<svg width="24" height="24" viewBox="0 0 24 24" fill="none" xmlns="http://www.w3.org/2000/svg">
<path d="M20.4958 16.6851L13.6232 4.81006C13.4583 4.52567 13.2216 4.28959 12.9368 4.12549C12.652 3.96138 12.329 3.875 12.0003 3.875C11.6716 3.875 11.3486 3.96138 11.0638 4.12549C10.7789 4.28959 10.5422 4.52567 10.3774 4.81006V4.81067L3.50481 16.6851C3.3398 16.97 3.25276 17.2934 3.25244 17.6227C3.25212 17.952 3.33854 18.2756 3.50299 18.5609C3.66744 18.8461 3.90413 19.0831 4.18924 19.2478C4.47435 19.4126 4.79783 19.4994 5.12712 19.4994H18.8735C19.2027 19.4994 19.5262 19.4126 19.8113 19.2478C20.0964 19.0831 20.3331 18.8461 20.4976 18.5609C20.662 18.2756 20.7485 17.952 20.7481 17.6227C20.7478 17.2934 20.6608 16.97 20.4958 16.6851ZM11.3747 10.125C11.3747 9.95924 11.4405 9.80027 11.5577 9.68306C11.6749 9.56585 11.8339 9.5 11.9997 9.5C12.1654 9.5 12.3244 9.56585 12.4416 9.68306C12.5588 9.80027 12.6247 9.95924 12.6247 10.125V13.25C12.6247 13.4158 12.5588 13.5747 12.4416 13.6919C12.3244 13.8091 12.1654 13.875 11.9997 13.875C11.8339 13.875 11.6749 13.8091 11.5577 13.6919C11.4405 13.5747 11.3747 13.4158 11.3747 13.25V10.125ZM12.0001 17.0002C11.8147 17.0002 11.6335 16.9452 11.4793 16.8422C11.3251 16.7392 11.205 16.5928 11.134 16.4215C11.063 16.2502 11.0445 16.0617 11.0806 15.8798C11.1168 15.698 11.2061 15.5309 11.3372 15.3998C11.4683 15.2687 11.6354 15.1794 11.8172 15.1432C11.9991 15.1071 12.1876 15.1256 12.3589 15.1966C12.5302 15.2675 12.6766 15.3877 12.7796 15.5419C12.8827 15.696 12.9376 15.8773 12.9376 16.0627C12.9376 16.3114 12.8388 16.5498 12.663 16.7256C12.4872 16.9014 12.2488 17.0002 12.0001 17.0002Z" fill="#EE7246"/>
</svg>
