<svg width="24" height="24" viewBox="0 0 24 24" fill="none" xmlns="http://www.w3.org/2000/svg">
<path d="M12.1758 19.9141L12.8789 19.2461C13.0547 19.0703 13.0547 18.7891 12.8789 18.6484L7.42969 13.1641H19.4531C19.6641 13.1641 19.875 12.9883 19.875 12.7422V11.7578C19.875 11.5469 19.6641 11.3359 19.4531 11.3359H7.42969L12.8789 5.88672C13.0547 5.74609 13.0547 5.46484 12.8789 5.28906L12.1758 4.62109C12.0352 4.44531 11.7539 4.44531 11.5781 4.62109L4.23047 11.9688C4.05469 12.1445 4.05469 12.3906 4.23047 12.5664L11.5781 19.9141C11.7539 20.0898 12.0352 20.0898 12.1758 19.9141Z" fill="black"/>
</svg>
