<svg width="28" height="28" viewBox="0 0 28 28" fill="none" xmlns="http://www.w3.org/2000/svg">
<path d="M13.7188 3.82812L12.7812 4.71875C12.5469 4.95312 12.5469 5.32812 12.7812 5.51562L20.0469 12.7812H4.0625C3.73438 12.7812 3.5 13.0625 3.5 13.3438V14.6562C3.5 14.9844 3.73438 15.2188 4.0625 15.2188H20.0469L12.7812 22.5312C12.5469 22.7188 12.5469 23.0938 12.7812 23.3281L13.7188 24.2188C13.9062 24.4531 14.2812 24.4531 14.5156 24.2188L24.3125 14.4219C24.5469 14.1875 24.5469 13.8594 24.3125 13.625L14.5156 3.82812C14.2812 3.59375 13.9062 3.59375 13.7188 3.82812Z" fill="white"/>
</svg>
