<svg width="26" height="26" viewBox="0 0 26 26" fill="none" xmlns="http://www.w3.org/2000/svg">
<path d="M13 22.75C18.3848 22.75 22.75 18.3848 22.75 13C22.75 7.61522 18.3848 3.25 13 3.25C7.61522 3.25 3.25 7.61522 3.25 13C3.25 18.3848 7.61522 22.75 13 22.75Z" stroke="black" stroke-width="1.5" stroke-linecap="round" stroke-linejoin="round"/>
<path d="M13 16.25C15.2437 16.25 17.0625 14.4312 17.0625 12.1875C17.0625 9.94384 15.2437 8.125 13 8.125C10.7563 8.125 8.9375 9.94384 8.9375 12.1875C8.9375 14.4312 10.7563 16.25 13 16.25Z" stroke="black" stroke-width="1.5" stroke-linecap="round" stroke-linejoin="round"/>
<path d="M6.47949 20.2489C7.09152 19.0456 8.02458 18.0352 9.1754 17.3294C10.3262 16.6236 11.6499 16.25 12.9999 16.25C14.3499 16.25 15.6736 16.6236 16.8244 17.3293C17.9752 18.0351 18.9083 19.0456 19.5203 20.2489" stroke="black" stroke-width="1.5" stroke-linecap="round" stroke-linejoin="round"/>
</svg>
