<svg width="20" height="20" viewBox="0 0 20 20" fill="none" xmlns="http://www.w3.org/2000/svg">
<path d="M16.625 5.875C16.8125 5.875 17 5.71875 17 5.5V4.5C17 4.3125 16.8125 4.125 16.625 4.125H3.375C3.15625 4.125 3 4.3125 3 4.5V5.5C3 5.71875 3.15625 5.875 3.375 5.875H16.625ZM16.625 10.875C16.8125 10.875 17 10.7188 17 10.5V9.5C17 9.3125 16.8125 9.125 16.625 9.125H3.375C3.15625 9.125 3 9.3125 3 9.5V10.5C3 10.7188 3.15625 10.875 3.375 10.875H16.625ZM16.625 15.875C16.8125 15.875 17 15.7188 17 15.5V14.5C17 14.3125 16.8125 14.125 16.625 14.125H3.375C3.15625 14.125 3 14.3125 3 14.5V15.5C3 15.7188 3.15625 15.875 3.375 15.875H16.625Z" fill="#172327"/>
</svg>
