<svg width="400" height="180" viewBox="0 0 400 180" fill="none" xmlns="http://www.w3.org/2000/svg">
<g clip-path="url(#clip0)">
<rect width="400" height="180" fill="#095941"/>
<path d="M307.441 126.357C297.177 136.903 296.293 168.319 295 182H428.422C428.422 179.099 429.983 176.143 430.85 173.433C432.985 166.756 434.578 158.572 430.329 152.352C422.622 141.068 408.396 137.598 395.218 141.139C385.867 143.652 377.192 148.656 369.383 154.116C366.029 156.461 366.842 156.108 364.355 158.021L364.347 158.027C364.151 158.178 363.736 158.498 363.662 158.273C363.385 157.43 363.923 155.654 363.965 154.829C364.154 151.116 364.077 147.358 363.705 143.659C362.848 135.138 361.337 124.016 352.868 119.26C338.68 111.291 318.515 114.978 307.441 126.357Z" fill="#57BD6F"/>
<path d="M296.06 103.273C310.861 118.384 312.136 163.397 314 183H121.601C121.601 178.843 119.351 174.607 118.101 170.725C115.021 161.158 112.725 149.431 118.851 140.519C129.965 124.351 150.48 119.379 169.482 124.453C182.968 128.054 195.476 135.223 206.737 143.046C211.574 146.406 210.401 145.9 213.988 148.642L213.999 148.651C214.283 148.868 214.881 149.325 214.988 149.003C215.387 147.795 214.611 145.251 214.55 144.069C214.277 138.749 214.389 133.364 214.925 128.063C216.161 115.855 218.34 99.9186 230.552 93.1038C251.012 81.6862 280.091 86.9687 296.06 103.273Z" fill="#57BD6F"/>
</g>
<defs>
<clipPath id="clip0">
<rect width="400" height="180" rx="12" fill="white"/>
</clipPath>
</defs>
</svg>
