<svg width="400" height="180" viewBox="0 0 400 180" fill="none" xmlns="http://www.w3.org/2000/svg">
<rect width="400" height="180" fill="#D3D6ED"/>
<path d="M250 163V180H282L277.429 163H250Z" fill="black"/>
<path d="M203 163V180H234L229.571 163H203Z" fill="black"/>
<path d="M263.845 136.32C254.364 139.473 256.13 150.644 256.13 158.877L272.623 161C274.074 158.106 274.11 153.957 275.283 150.68C277.267 145.14 280.211 143.386 284.801 140.095C288.289 137.594 290.962 137.129 295.264 136.556C300.388 135.875 300.434 134.095 300.94 129.686C301.526 124.566 302.236 119.644 306.023 116.005C307.27 114.807 309.723 115.342 311.255 115.386C318.316 115.587 325.318 115.887 332.389 115.887C338.926 115.887 345.152 115.476 351.424 113.528C357.364 111.683 363.228 110.219 367.917 105.98C374.417 100.104 377.897 88.1864 377.967 79.7375C378.066 67.7194 378.621 50.2129 366.617 43.5291C360.764 40.2705 354.546 39.8946 347.995 40.0203C338.642 40.1997 328.885 41.496 320.329 45.5046C314.723 48.1315 312.2 55.2668 310.812 60.8077C308.468 70.1616 308.214 79.9525 304.073 88.7896C301.383 94.5274 296.115 98.3724 289.826 98.3724C285.774 98.3724 278.385 96.9239 275.047 99.7877C269.198 104.805 271.321 111.714 271.53 118.688C271.739 125.673 271.517 133.769 263.845 136.32Z" fill="white"/>
<path d="M202.383 148.035C204.664 151.779 207.238 155.354 209.667 159H223.486C221.622 156.499 221.067 153.23 221.308 150.049C221.539 146.986 221.616 143.101 223.004 140.306C223.951 138.399 226.337 136.92 227.913 135.597C233.339 131.045 239.909 127.652 244.338 122.008C252.425 111.703 260.789 99.0029 260.995 85.4113C261.087 79.3212 259.882 74.4295 255.728 69.953C248.574 62.2421 238.447 63.4283 229.074 65.7469C223.28 67.1802 217.924 69.4339 213.381 73.4042C211.909 74.6908 209.447 76.7227 209.025 78.8326C207.757 85.1646 211.494 92.2322 214.095 97.6701C217.191 104.144 222.11 110.622 220.701 118.215C219.925 122.398 215.932 125.385 212.935 128.029C209.871 130.732 206.748 133.378 203.704 136.1C202.101 137.534 200.45 139.345 200.062 141.564C199.662 143.857 201.272 146.212 202.383 148.035Z" fill="white"/>
</svg>
