<svg width="24" height="24" viewBox="0 0 24 24" fill="none" xmlns="http://www.w3.org/2000/svg">
<path d="M9 20.25C9 20.5467 8.91203 20.8367 8.7472 21.0834C8.58238 21.33 8.34811 21.5223 8.07403 21.6358C7.79994 21.7494 7.49834 21.7791 7.20736 21.7212C6.91639 21.6633 6.64912 21.5204 6.43934 21.3107C6.22956 21.1009 6.0867 20.8336 6.02882 20.5426C5.97094 20.2517 6.00065 19.9501 6.11418 19.676C6.22771 19.4019 6.41997 19.1676 6.66665 19.0028C6.91332 18.838 7.20333 18.75 7.5 18.75C7.89782 18.75 8.27935 18.908 8.56066 19.1893C8.84196 19.4706 9 19.8522 9 20.25ZM17.25 18.75C16.9533 18.75 16.6633 18.838 16.4166 19.0028C16.17 19.1676 15.9777 19.4019 15.8642 19.676C15.7506 19.9501 15.7209 20.2517 15.7788 20.5426C15.8367 20.8336 15.9796 21.1009 16.1893 21.3107C16.3991 21.5204 16.6664 21.6633 16.9574 21.7212C17.2483 21.7791 17.5499 21.7494 17.824 21.6358C18.0981 21.5223 18.3324 21.33 18.4972 21.0834C18.662 20.8367 18.75 20.5467 18.75 20.25C18.75 19.8522 18.592 19.4706 18.3107 19.1893C18.0294 18.908 17.6478 18.75 17.25 18.75ZM21.3844 6.29837C21.3145 6.20568 21.2241 6.13049 21.1202 6.07872C21.0163 6.02694 20.9018 5.99999 20.7857 6H4.53003L3.76941 3.33788C3.6789 3.025 3.48943 2.74989 3.2294 2.55376C2.96937 2.35763 2.65279 2.25106 2.32709 2.25H0.75C0.551088 2.25 0.360322 2.32902 0.21967 2.46967C0.0790176 2.61032 0 2.80109 0 3C0 3.19891 0.0790176 3.38968 0.21967 3.53033C0.360322 3.67098 0.551088 3.75 0.75 3.75H2.32709L3.23932 6.94263C3.24179 6.95187 3.24435 6.96107 3.24719 6.97023L5.71802 15.6181C5.85371 16.0874 6.13787 16.5001 6.52791 16.7944C6.91795 17.0886 7.39285 17.2484 7.88141 17.25H16.8686C17.3571 17.2484 17.832 17.0886 18.2221 16.7944C18.6121 16.5002 18.8963 16.0875 19.032 15.6181L21.5068 6.95604C21.5387 6.84442 21.5443 6.72692 21.523 6.6128C21.5018 6.49868 21.4543 6.39104 21.3844 6.29837Z" fill="white"/>
</svg>
