<svg width="24" height="24" viewBox="0 0 24 24" fill="none" xmlns="http://www.w3.org/2000/svg">
<path d="M20.7188 12.25C20.7188 7.46875 16.7812 3.53125 12 3.53125C7.18359 3.53125 3.28125 7.46875 3.28125 12.25C3.28125 17.0664 7.18359 20.9688 12 20.9688C16.7812 20.9688 20.7188 17.0664 20.7188 12.25ZM10.9805 16.8906C10.7695 17.1016 10.3828 17.1016 10.1719 16.8906L6.51562 13.2344C6.30469 13.0234 6.30469 12.6367 6.51562 12.4258L7.32422 11.6523C7.53516 11.4062 7.88672 11.4062 8.09766 11.6523L10.5938 14.1133L15.8672 8.83984C16.0781 8.59375 16.4297 8.59375 16.6406 8.83984L17.4492 9.61328C17.6602 9.82422 17.6602 10.2109 17.4492 10.4219L10.9805 16.8906Z" fill="#57BD6F"/>
</svg>
