<svg width="356" height="180" viewBox="0 0 356 180" fill="none" xmlns="http://www.w3.org/2000/svg">
<g clip-path="url(#clip0)">
<rect width="356" height="180" fill="#57BD6F"/>
<path d="M55.9361 -29.9919C36.4857 -44.6424 12.1719 -44.7691 -9.02795 -40.7367L-31 67H252C250.887 60.4224 248.672 53.3583 246.922 47.0247C245.512 41.924 242.916 34.9083 240.037 31.3041C233.172 22.708 225.367 19.0129 216.674 15.5114C197.081 7.61937 175.8 8.64909 155.762 10.8601C139.188 12.689 122.072 15.5809 105.593 10.7519C86.077 5.03303 73.0088 -17.1323 55.9361 -29.9919Z" fill="#CED3F9"/>
<path d="M307.521 134.633C326.422 124.91 350.049 124.826 370.649 127.502L392 199H117C118.082 194.635 120.234 189.947 121.934 185.744C123.304 182.359 125.827 177.703 128.624 175.311C135.295 169.606 142.88 167.154 151.328 164.83C170.367 159.593 191.046 160.276 210.517 161.744C226.623 162.957 243.255 164.876 259.268 161.672C278.233 157.876 290.931 143.167 307.521 134.633Z" fill="#CED3F9"/>
<path d="M23.24 56H30.584C30.7653 56 31.144 55.9947 31.72 55.984C32.3067 55.9733 32.8613 55.936 33.384 55.872C35.2187 55.6373 36.7653 54.992 38.024 53.936C39.2827 52.8693 40.2373 51.5147 40.888 49.872C41.5387 48.2293 41.864 46.432 41.864 44.48C41.864 42.528 41.5387 40.7307 40.888 39.088C40.2373 37.4453 39.2827 36.0907 38.024 35.024C36.7653 33.9573 35.2187 33.312 33.384 33.088C32.8507 33.024 32.296 32.9867 31.72 32.976C31.1547 32.9653 30.776 32.96 30.584 32.96H23.24V56ZM27.16 52.368V36.592H30.584C30.904 36.592 31.3093 36.6027 31.8 36.624C32.2907 36.6347 32.7333 36.6827 33.128 36.768C34.1947 36.9707 35.0693 37.4453 35.752 38.192C36.4347 38.9387 36.9413 39.8613 37.272 40.96C37.6133 42.048 37.784 43.2213 37.784 44.48C37.784 45.6853 37.624 46.8373 37.304 47.936C36.984 49.0347 36.4773 49.968 35.784 50.736C35.1013 51.4933 34.216 51.9787 33.128 52.192C32.7333 52.2667 32.2907 52.3147 31.8 52.336C31.3093 52.3573 30.904 52.368 30.584 52.368H27.16ZM53.2783 56.48C55.0063 56.48 56.5156 56.096 57.8063 55.328C59.0969 54.5493 60.0996 53.4773 60.8143 52.112C61.5396 50.736 61.9023 49.152 61.9023 47.36C61.9023 45.5787 61.5449 44.0053 60.8303 42.64C60.1156 41.264 59.1129 40.1867 57.8223 39.408C56.5316 38.6293 55.0169 38.24 53.2783 38.24C51.5823 38.24 50.0889 38.624 48.7983 39.392C47.5076 40.16 46.4996 41.2267 45.7743 42.592C45.0489 43.9573 44.6863 45.5467 44.6863 47.36C44.6863 49.1413 45.0383 50.72 45.7423 52.096C46.4569 53.4613 47.4596 54.5333 48.7503 55.312C50.0409 56.0907 51.5503 56.48 53.2783 56.48ZM53.2783 52.864C51.7956 52.864 50.6703 52.368 49.9023 51.376C49.1449 50.3733 48.7663 49.0347 48.7663 47.36C48.7663 45.728 49.1289 44.4053 49.8543 43.392C50.5903 42.368 51.7316 41.856 53.2783 41.856C54.7929 41.856 55.9289 42.3573 56.6863 43.36C57.4436 44.352 57.8223 45.6853 57.8223 47.36C57.8223 48.9813 57.4436 50.304 56.6863 51.328C55.9396 52.352 54.8036 52.864 53.2783 52.864ZM65.3955 56H69.2995V47.12C69.2995 45.7227 69.4968 44.6453 69.8915 43.888C70.2968 43.12 70.8088 42.592 71.4275 42.304C72.0568 42.0053 72.6968 41.856 73.3475 41.856C74.2648 41.856 74.9955 42.0587 75.5395 42.464C76.0835 42.8587 76.4835 43.3653 76.7395 43.984C77.0062 44.592 77.1768 45.2267 77.2515 45.888C77.3368 46.5493 77.3795 47.1467 77.3795 47.68V56H81.2835V46.352C81.2835 45.9467 81.2462 45.408 81.1715 44.736C81.1075 44.064 80.9582 43.3547 80.7235 42.608C80.4888 41.8613 80.1262 41.1573 79.6355 40.496C79.1448 39.824 78.4782 39.28 77.6355 38.864C76.8035 38.4373 75.7528 38.224 74.4835 38.224C73.2355 38.224 72.1368 38.4427 71.1875 38.88C70.2488 39.3067 69.4648 39.8933 68.8355 40.64V38.72H65.3955V56ZM90.2908 56.48C91.6668 56.48 92.8348 56.256 93.7948 55.808C94.7654 55.3493 95.6188 54.64 96.3548 53.68V56H99.7308V45.392C99.7308 44.6453 99.6988 43.9573 99.6348 43.328C99.5708 42.688 99.3841 42.064 99.0748 41.456C98.5094 40.3147 97.6401 39.4933 96.4668 38.992C95.3041 38.4907 93.9548 38.24 92.4188 38.24C90.3921 38.24 88.7761 38.6827 87.5708 39.568C86.3654 40.4533 85.5494 41.6267 85.1228 43.088L88.6428 44.192C88.9308 43.3067 89.4374 42.6827 90.1628 42.32C90.8881 41.9573 91.6401 41.776 92.4188 41.776C93.5921 41.776 94.4561 42.016 95.0108 42.496C95.5654 42.9653 95.8801 43.696 95.9548 44.688C94.4401 44.912 93.0321 45.1307 91.7308 45.344C90.4401 45.5467 89.3414 45.7973 88.4348 46.096C87.0694 46.5653 86.0721 47.232 85.4428 48.096C84.8134 48.9493 84.4988 50.0053 84.4988 51.264C84.4988 52.2133 84.7174 53.0827 85.1548 53.872C85.6028 54.6613 86.2588 55.296 87.1228 55.776C87.9868 56.2453 89.0428 56.48 90.2908 56.48ZM91.0588 53.408C90.1521 53.408 89.4588 53.2 88.9788 52.784C88.5094 52.368 88.2748 51.8453 88.2748 51.216C88.2748 50.6507 88.4561 50.192 88.8188 49.84C89.1921 49.488 89.7094 49.1893 90.3708 48.944C90.9788 48.7413 91.7094 48.5653 92.5628 48.416C93.4161 48.256 94.5308 48.0693 95.9068 47.856C95.8961 48.2613 95.8694 48.7147 95.8268 49.216C95.7841 49.7067 95.6828 50.1493 95.5228 50.544C95.3948 50.9387 95.1441 51.36 94.7708 51.808C94.4081 52.256 93.9174 52.6347 93.2988 52.944C92.6801 53.2533 91.9334 53.408 91.0588 53.408ZM114.024 56V52.768C112.947 52.928 111.987 52.9707 111.144 52.896C110.302 52.8213 109.688 52.464 109.304 51.824C109.102 51.4933 108.99 51.0667 108.968 50.544C108.958 50.0107 108.952 49.4027 108.952 48.72V41.744H114.024V38.72H108.952V33.92H105.112V38.72H101.976V41.744H105.112V48.944C105.112 49.936 105.123 50.8213 105.144 51.6C105.166 52.368 105.374 53.1253 105.768 53.872C106.216 54.6933 106.872 55.296 107.736 55.68C108.6 56.0533 109.576 56.2507 110.664 56.272C111.763 56.304 112.883 56.2133 114.024 56ZM124.721 56.48C126.385 56.48 127.905 56.0533 129.281 55.2C130.668 54.336 131.692 53.12 132.353 51.552L128.545 50.4C127.777 52.0427 126.428 52.864 124.497 52.864C123.185 52.864 122.15 52.4853 121.393 51.728C120.636 50.96 120.182 49.8613 120.033 48.432H132.545C132.694 46.352 132.465 44.5493 131.857 43.024C131.249 41.4987 130.316 40.32 129.057 39.488C127.809 38.656 126.289 38.24 124.497 38.24C122.801 38.24 121.308 38.624 120.017 39.392C118.726 40.1493 117.718 41.2267 116.993 42.624C116.268 44.0213 115.905 45.664 115.905 47.552C115.905 49.3013 116.273 50.848 117.009 52.192C117.756 53.536 118.79 54.5867 120.113 55.344C121.436 56.1013 122.972 56.48 124.721 56.48ZM124.657 41.616C125.852 41.616 126.769 41.9307 127.409 42.56C128.06 43.1787 128.47 44.1653 128.641 45.52H120.129C120.588 42.9173 122.097 41.616 124.657 41.616ZM152.649 56V52.768C151.572 52.928 150.612 52.9707 149.769 52.896C148.927 52.8213 148.313 52.464 147.929 51.824C147.727 51.4933 147.615 51.0667 147.593 50.544C147.583 50.0107 147.577 49.4027 147.577 48.72V41.744H152.649V38.72H147.577V33.92H143.737V38.72H140.601V41.744H143.737V48.944C143.737 49.936 143.748 50.8213 143.769 51.6C143.791 52.368 143.999 53.1253 144.393 53.872C144.841 54.6933 145.497 55.296 146.361 55.68C147.225 56.0533 148.201 56.2507 149.289 56.272C150.388 56.304 151.508 56.2133 152.649 56ZM163.122 56.48C164.85 56.48 166.359 56.096 167.65 55.328C168.941 54.5493 169.943 53.4773 170.658 52.112C171.383 50.736 171.746 49.152 171.746 47.36C171.746 45.5787 171.389 44.0053 170.674 42.64C169.959 41.264 168.957 40.1867 167.666 39.408C166.375 38.6293 164.861 38.24 163.122 38.24C161.426 38.24 159.933 38.624 158.642 39.392C157.351 40.16 156.343 41.2267 155.618 42.592C154.893 43.9573 154.53 45.5467 154.53 47.36C154.53 49.1413 154.882 50.72 155.586 52.096C156.301 53.4613 157.303 54.5333 158.594 55.312C159.885 56.0907 161.394 56.48 163.122 56.48ZM163.122 52.864C161.639 52.864 160.514 52.368 159.746 51.376C158.989 50.3733 158.61 49.0347 158.61 47.36C158.61 45.728 158.973 44.4053 159.698 43.392C160.434 42.368 161.575 41.856 163.122 41.856C164.637 41.856 165.773 42.3573 166.53 43.36C167.287 44.352 167.666 45.6853 167.666 47.36C167.666 48.9813 167.287 50.304 166.53 51.328C165.783 52.352 164.647 52.864 163.122 52.864ZM183.182 56H187.038V41.744H191.214V38.72H187.038V37.616C187.038 37.0187 187.214 36.5387 187.566 36.176C187.928 35.8027 188.478 35.616 189.214 35.616H191.214V32.48H189.054C188.638 32.48 188.152 32.496 187.598 32.528C187.043 32.5493 186.478 32.6667 185.902 32.88C185.336 33.0827 184.808 33.456 184.318 34C183.731 34.64 183.395 35.376 183.31 36.208C183.224 37.04 183.182 37.7867 183.182 38.448V38.72H180.398V41.744H183.182V56ZM200.778 56.48C202.506 56.48 204.016 56.096 205.306 55.328C206.597 54.5493 207.6 53.4773 208.314 52.112C209.04 50.736 209.402 49.152 209.402 47.36C209.402 45.5787 209.045 44.0053 208.33 42.64C207.616 41.264 206.613 40.1867 205.322 39.408C204.032 38.6293 202.517 38.24 200.778 38.24C199.082 38.24 197.589 38.624 196.298 39.392C195.008 40.16 194 41.2267 193.274 42.592C192.549 43.9573 192.186 45.5467 192.186 47.36C192.186 49.1413 192.538 50.72 193.242 52.096C193.957 53.4613 194.96 54.5333 196.25 55.312C197.541 56.0907 199.05 56.48 200.778 56.48ZM200.778 52.864C199.296 52.864 198.17 52.368 197.402 51.376C196.645 50.3733 196.266 49.0347 196.266 47.36C196.266 45.728 196.629 44.4053 197.354 43.392C198.09 42.368 199.232 41.856 200.778 41.856C202.293 41.856 203.429 42.3573 204.186 43.36C204.944 44.352 205.322 45.6853 205.322 47.36C205.322 48.9813 204.944 50.304 204.186 51.328C203.44 52.352 202.304 52.864 200.778 52.864ZM220.56 56.48C222.288 56.48 223.797 56.096 225.088 55.328C226.378 54.5493 227.381 53.4773 228.096 52.112C228.821 50.736 229.184 49.152 229.184 47.36C229.184 45.5787 228.826 44.0053 228.112 42.64C227.397 41.264 226.394 40.1867 225.104 39.408C223.813 38.6293 222.298 38.24 220.56 38.24C218.864 38.24 217.37 38.624 216.08 39.392C214.789 40.16 213.781 41.2267 213.056 42.592C212.33 43.9573 211.968 45.5467 211.968 47.36C211.968 49.1413 212.32 50.72 213.024 52.096C213.738 53.4613 214.741 54.5333 216.032 55.312C217.322 56.0907 218.832 56.48 220.56 56.48ZM220.56 52.864C219.077 52.864 217.952 52.368 217.184 51.376C216.426 50.3733 216.048 49.0347 216.048 47.36C216.048 45.728 216.41 44.4053 217.136 43.392C217.872 42.368 219.013 41.856 220.56 41.856C222.074 41.856 223.21 42.3573 223.968 43.36C224.725 44.352 225.104 45.6853 225.104 47.36C225.104 48.9813 224.725 50.304 223.968 51.328C223.221 52.352 222.085 52.864 220.56 52.864ZM239.637 56.48C240.661 56.48 241.583 56.3253 242.405 56.016C243.226 55.7067 243.946 55.2747 244.565 54.72V56H247.973V32.96H244.085V39.568C243.509 39.1413 242.863 38.816 242.149 38.592C241.434 38.3573 240.645 38.24 239.781 38.24C238.149 38.24 236.73 38.6347 235.525 39.424C234.33 40.2133 233.402 41.296 232.741 42.672C232.079 44.048 231.749 45.6107 231.749 47.36C231.749 49.088 232.074 50.64 232.725 52.016C233.375 53.392 234.293 54.48 235.477 55.28C236.661 56.08 238.047 56.48 239.637 56.48ZM240.229 53.024C239.226 53.024 238.399 52.7733 237.749 52.272C237.098 51.76 236.613 51.0773 236.293 50.224C235.983 49.3707 235.829 48.416 235.829 47.36C235.829 46.3147 235.989 45.3653 236.309 44.512C236.639 43.648 237.135 42.9653 237.797 42.464C238.469 41.952 239.322 41.696 240.357 41.696C241.829 41.696 242.895 42.2187 243.557 43.264C244.229 44.3093 244.565 45.6747 244.565 47.36C244.565 49.0347 244.229 50.4 243.557 51.456C242.895 52.5013 241.786 53.024 240.229 53.024ZM258.833 56H262.241V54.72C262.86 55.2747 263.58 55.7067 264.401 56.016C265.222 56.3253 266.145 56.48 267.169 56.48C268.769 56.48 270.156 56.08 271.329 55.28C272.513 54.48 273.43 53.392 274.081 52.016C274.732 50.64 275.057 49.088 275.057 47.36C275.057 45.6107 274.726 44.048 274.065 42.672C273.414 41.296 272.486 40.2133 271.281 39.424C270.076 38.6347 268.657 38.24 267.025 38.24C266.161 38.24 265.372 38.3573 264.657 38.592C263.942 38.816 263.297 39.1413 262.721 39.568V32.96H258.833V56ZM266.577 53.024C265.03 53.024 263.921 52.5013 263.249 51.456C262.577 50.4 262.241 49.0347 262.241 47.36C262.241 45.6747 262.572 44.3093 263.233 43.264C263.905 42.2187 264.977 41.696 266.449 41.696C267.484 41.696 268.332 41.952 268.993 42.464C269.665 42.9653 270.161 43.648 270.481 44.512C270.812 45.3653 270.977 46.3147 270.977 47.36C270.977 48.416 270.817 49.3707 270.497 50.224C270.188 51.0773 269.708 51.76 269.057 52.272C268.406 52.7733 267.58 53.024 266.577 53.024ZM283.416 56.48C284.792 56.48 285.96 56.256 286.92 55.808C287.89 55.3493 288.744 54.64 289.48 53.68V56H292.856V45.392C292.856 44.6453 292.824 43.9573 292.76 43.328C292.696 42.688 292.509 42.064 292.2 41.456C291.634 40.3147 290.765 39.4933 289.592 38.992C288.429 38.4907 287.08 38.24 285.544 38.24C283.517 38.24 281.901 38.6827 280.696 39.568C279.49 40.4533 278.674 41.6267 278.248 43.088L281.768 44.192C282.056 43.3067 282.562 42.6827 283.288 42.32C284.013 41.9573 284.765 41.776 285.544 41.776C286.717 41.776 287.581 42.016 288.136 42.496C288.69 42.9653 289.005 43.696 289.08 44.688C287.565 44.912 286.157 45.1307 284.856 45.344C283.565 45.5467 282.466 45.7973 281.56 46.096C280.194 46.5653 279.197 47.232 278.568 48.096C277.938 48.9493 277.624 50.0053 277.624 51.264C277.624 52.2133 277.842 53.0827 278.28 53.872C278.728 54.6613 279.384 55.296 280.248 55.776C281.112 56.2453 282.168 56.48 283.416 56.48ZM284.184 53.408C283.277 53.408 282.584 53.2 282.104 52.784C281.634 52.368 281.4 51.8453 281.4 51.216C281.4 50.6507 281.581 50.192 281.944 49.84C282.317 49.488 282.834 49.1893 283.496 48.944C284.104 48.7413 284.834 48.5653 285.688 48.416C286.541 48.256 287.656 48.0693 289.032 47.856C289.021 48.2613 288.994 48.7147 288.952 49.216C288.909 49.7067 288.808 50.1493 288.648 50.544C288.52 50.9387 288.269 51.36 287.896 51.808C287.533 52.256 287.042 52.6347 286.424 52.944C285.805 53.2533 285.058 53.408 284.184 53.408ZM296.989 56H300.893V47.12C300.893 45.7227 301.091 44.6453 301.485 43.888C301.891 43.12 302.403 42.592 303.021 42.304C303.651 42.0053 304.291 41.856 304.941 41.856C305.859 41.856 306.589 42.0587 307.133 42.464C307.677 42.8587 308.077 43.3653 308.333 43.984C308.6 44.592 308.771 45.2267 308.845 45.888C308.931 46.5493 308.973 47.1467 308.973 47.68V56H312.877V46.352C312.877 45.9467 312.84 45.408 312.765 44.736C312.701 44.064 312.552 43.3547 312.317 42.608C312.083 41.8613 311.72 41.1573 311.229 40.496C310.739 39.824 310.072 39.28 309.229 38.864C308.397 38.4373 307.347 38.224 306.077 38.224C304.829 38.224 303.731 38.4427 302.781 38.88C301.843 39.3067 301.059 39.8933 300.429 40.64V38.72H296.989V56ZM317.021 56H320.957V47.68L327.565 56H332.669L325.389 47.36L332.093 38.72H327.277L320.957 47.04V32.96H317.053L317.021 56Z" fill="black"/>
<path d="M25.338 84.18C26.182 84.18 26.89 84.002 27.462 83.646C28.038 83.29 28.472 82.802 28.764 82.182C29.06 81.558 29.208 80.852 29.208 80.064C29.208 80.028 29.206 79.956 29.202 79.848C29.198 79.736 29.192 79.638 29.184 79.554H26.22V80.436H28.056C27.992 81.296 27.74 81.966 27.3 82.446C26.864 82.926 26.228 83.164 25.392 83.16C24.748 83.156 24.21 83.008 23.778 82.716C23.35 82.424 23.028 82.018 22.812 81.498C22.596 80.974 22.49 80.368 22.494 79.68C22.498 78.988 22.606 78.382 22.818 77.862C23.034 77.338 23.356 76.93 23.784 76.638C24.212 76.346 24.748 76.202 25.392 76.206C26.008 76.21 26.52 76.368 26.928 76.68C27.34 76.988 27.638 77.404 27.822 77.928L28.902 77.706C28.678 76.93 28.27 76.316 27.678 75.864C27.086 75.412 26.306 75.186 25.338 75.186C24.534 75.186 23.834 75.37 23.238 75.738C22.642 76.102 22.18 76.62 21.852 77.292C21.524 77.964 21.36 78.76 21.36 79.68C21.36 80.608 21.526 81.408 21.858 82.08C22.19 82.752 22.654 83.27 23.25 83.634C23.85 83.998 24.546 84.18 25.338 84.18ZM33.2144 84.18C33.8424 84.18 34.4084 84.024 34.9124 83.712C35.4164 83.396 35.7964 82.952 36.0524 82.38L35.0264 82.026C34.6544 82.786 34.0344 83.166 33.1664 83.166C32.5704 83.166 32.1024 82.984 31.7624 82.62C31.4264 82.252 31.2364 81.732 31.1924 81.06H36.1604C36.1924 80.292 36.0924 79.63 35.8604 79.074C35.6324 78.518 35.2884 78.09 34.8284 77.79C34.3724 77.49 33.8184 77.34 33.1664 77.34C32.5384 77.34 31.9904 77.482 31.5224 77.766C31.0544 78.046 30.6904 78.446 30.4304 78.966C30.1744 79.482 30.0464 80.094 30.0464 80.802C30.0464 81.478 30.1764 82.07 30.4364 82.578C30.7004 83.082 31.0704 83.476 31.5464 83.76C32.0224 84.04 32.5784 84.18 33.2144 84.18ZM33.2024 78.3C34.3024 78.3 34.9184 78.934 35.0504 80.202H31.2104C31.2864 79.586 31.4924 79.116 31.8284 78.792C32.1644 78.464 32.6224 78.3 33.2024 78.3ZM41.1143 84V83.082C40.6703 83.15 40.2903 83.162 39.9743 83.118C39.6623 83.074 39.4343 82.924 39.2903 82.668C39.2143 82.532 39.1723 82.372 39.1643 82.188C39.1603 82 39.1583 81.772 39.1583 81.504V78.402H41.1143V77.52H39.1583V75.72H38.0903V77.52H36.7763V78.402H38.0903V81.552C38.0903 81.888 38.0943 82.188 38.1023 82.452C38.1143 82.712 38.1843 82.968 38.3123 83.22C38.4643 83.512 38.6863 83.728 38.9783 83.868C39.2703 84.004 39.6023 84.078 39.9743 84.09C40.3503 84.106 40.7303 84.076 41.1143 84ZM47.3882 84.18C47.9242 84.18 48.4162 84.05 48.8642 83.79C49.3162 83.526 49.6782 83.176 49.9502 82.74C50.2222 82.3 50.3582 81.814 50.3582 81.282C50.3582 80.746 50.2342 80.264 49.9862 79.836C49.7382 79.404 49.4022 79.064 48.9782 78.816C48.5542 78.564 48.0742 78.438 47.5382 78.438C46.9302 78.438 46.3922 78.624 45.9242 78.996L46.0802 76.374H49.7582V75.36H45.1202L44.8562 79.878L45.8042 80.238C45.9602 80.014 46.1722 79.822 46.4402 79.662C46.7122 79.502 47.0382 79.422 47.4182 79.422C47.7542 79.422 48.0642 79.504 48.3482 79.668C48.6322 79.832 48.8582 80.056 49.0262 80.34C49.1982 80.62 49.2842 80.934 49.2842 81.282C49.2842 81.618 49.2002 81.928 49.0322 82.212C48.8682 82.492 48.6462 82.718 48.3662 82.89C48.0862 83.058 47.7702 83.142 47.4182 83.142C47.0182 83.142 46.6442 83.018 46.2962 82.77C45.9522 82.518 45.7262 82.18 45.6182 81.756L44.5922 82.032C44.7082 82.452 44.9002 82.824 45.1682 83.148C45.4402 83.472 45.7662 83.726 46.1462 83.91C46.5302 84.09 46.9442 84.18 47.3882 84.18ZM53.8331 79.5C54.2291 79.5 54.5891 79.404 54.9131 79.212C55.2411 79.016 55.5031 78.756 55.6991 78.432C55.8951 78.104 55.9931 77.74 55.9931 77.34C55.9931 76.94 55.8951 76.578 55.6991 76.254C55.5031 75.926 55.2411 75.666 54.9131 75.474C54.5891 75.278 54.2291 75.18 53.8331 75.18C53.4491 75.18 53.0931 75.278 52.7651 75.474C52.4371 75.67 52.1731 75.932 51.9731 76.26C51.7731 76.588 51.6731 76.948 51.6731 77.34C51.6731 77.74 51.7711 78.104 51.9671 78.432C52.1631 78.756 52.4231 79.016 52.7471 79.212C53.0751 79.404 53.4371 79.5 53.8331 79.5ZM52.7531 84L60.6851 76.08L59.9651 75.36L52.0331 83.28L52.7531 84ZM53.8331 78.558C53.5051 78.558 53.2191 78.438 52.9751 78.198C52.7351 77.954 52.6151 77.668 52.6151 77.34C52.6151 77.008 52.7351 76.722 52.9751 76.482C53.2191 76.242 53.5051 76.122 53.8331 76.122C54.1651 76.122 54.4511 76.242 54.6911 76.482C54.9311 76.722 55.0511 77.008 55.0511 77.34C55.0511 77.668 54.9311 77.954 54.6911 78.198C54.4511 78.438 54.1651 78.558 53.8331 78.558ZM58.8851 84.18C59.2811 84.18 59.6411 84.084 59.9651 83.892C60.2931 83.696 60.5551 83.436 60.7511 83.112C60.9471 82.784 61.0451 82.42 61.0451 82.02C61.0451 81.62 60.9471 81.258 60.7511 80.934C60.5551 80.606 60.2931 80.346 59.9651 80.154C59.6411 79.958 59.2811 79.86 58.8851 79.86C58.5011 79.86 58.1451 79.958 57.8171 80.154C57.4891 80.35 57.2251 80.612 57.0251 80.94C56.8251 81.268 56.7251 81.628 56.7251 82.02C56.7251 82.42 56.8211 82.784 57.0131 83.112C57.2091 83.436 57.4711 83.696 57.7991 83.892C58.1271 84.084 58.4891 84.18 58.8851 84.18ZM58.8851 83.238C58.5571 83.238 58.2711 83.118 58.0271 82.878C57.7871 82.634 57.6671 82.348 57.6671 82.02C57.6671 81.688 57.7871 81.402 58.0271 81.162C58.2711 80.922 58.5571 80.802 58.8851 80.802C59.2171 80.802 59.5031 80.922 59.7431 81.162C59.9831 81.402 60.1031 81.688 60.1031 82.02C60.1031 82.348 59.9831 82.634 59.7431 82.878C59.5031 83.118 59.2171 83.238 58.8851 83.238ZM67.5559 84.18C67.9959 84.18 68.3839 84.1 68.7199 83.94C69.0599 83.776 69.3479 83.552 69.5839 83.268V84H70.5379V75.36H69.4639V78.108C69.2319 77.868 68.9559 77.68 68.6359 77.544C68.3159 77.408 67.9539 77.34 67.5499 77.34C66.9499 77.34 66.4319 77.49 65.9959 77.79C65.5639 78.086 65.2319 78.492 64.9999 79.008C64.7679 79.524 64.6519 80.106 64.6519 80.754C64.6519 81.402 64.7679 81.984 64.9999 82.5C65.2319 83.016 65.5639 83.426 65.9959 83.73C66.4319 84.03 66.9519 84.18 67.5559 84.18ZM67.6879 83.202C67.2639 83.202 66.9099 83.094 66.6259 82.878C66.3459 82.662 66.1359 82.37 65.9959 82.002C65.8559 81.63 65.7859 81.214 65.7859 80.754C65.7859 80.298 65.8539 79.886 65.9899 79.518C66.1299 79.15 66.3419 78.858 66.6259 78.642C66.9139 78.426 67.2779 78.318 67.7179 78.318C68.3499 78.318 68.8179 78.546 69.1219 79.002C69.4299 79.454 69.5839 80.038 69.5839 80.754C69.5839 81.466 69.4319 82.052 69.1279 82.512C68.8239 82.972 68.3439 83.202 67.6879 83.202ZM72.3389 76.374H73.4069V75.27H72.3389V76.374ZM72.3389 84H73.4069V77.52H72.3389V84ZM77.6552 84.174C78.4632 84.174 79.0972 83.996 79.5572 83.64C80.0172 83.284 80.2472 82.792 80.2472 82.164C80.2472 81.828 80.1772 81.546 80.0372 81.318C79.8972 81.086 79.6612 80.886 79.3292 80.718C79.0012 80.546 78.5512 80.388 77.9792 80.244C77.4712 80.116 77.0832 80.002 76.8152 79.902C76.5512 79.802 76.3692 79.696 76.2692 79.584C76.1732 79.472 76.1252 79.338 76.1252 79.182C76.1252 78.906 76.2552 78.686 76.5152 78.522C76.7792 78.358 77.1212 78.282 77.5412 78.294C77.9812 78.306 78.3432 78.414 78.6272 78.618C78.9112 78.818 79.0792 79.09 79.1312 79.434L80.2232 79.236C80.1552 78.664 79.8752 78.206 79.3832 77.862C78.8952 77.514 78.2812 77.34 77.5412 77.34C76.7932 77.34 76.1912 77.514 75.7352 77.862C75.2792 78.206 75.0512 78.664 75.0512 79.236C75.0512 79.544 75.1192 79.806 75.2552 80.022C75.3952 80.238 75.6292 80.428 75.9572 80.592C76.2892 80.756 76.7412 80.914 77.3132 81.066C77.8412 81.206 78.2352 81.328 78.4952 81.432C78.7592 81.532 78.9332 81.638 79.0172 81.75C79.1012 81.862 79.1432 82.01 79.1432 82.194C79.1432 82.51 79.0152 82.76 78.7592 82.944C78.5072 83.128 78.1612 83.22 77.7212 83.22C77.2532 83.22 76.8612 83.118 76.5452 82.914C76.2292 82.706 76.0272 82.426 75.9392 82.074L74.8472 82.248C74.9592 82.856 75.2612 83.33 75.7532 83.67C76.2492 84.006 76.8832 84.174 77.6552 84.174ZM84.3005 84.18C84.9685 84.18 85.5405 84.02 86.0165 83.7C86.4925 83.38 86.8445 82.918 87.0725 82.314L85.9925 82.032C85.6925 82.788 85.1285 83.166 84.3005 83.166C83.6565 83.166 83.1705 82.946 82.8425 82.506C82.5185 82.066 82.3525 81.484 82.3445 80.76C82.3525 80.056 82.5145 79.48 82.8305 79.032C83.1465 78.58 83.6365 78.354 84.3005 78.354C84.6925 78.354 85.0425 78.458 85.3505 78.666C85.6585 78.874 85.8805 79.166 86.0165 79.542L87.0725 79.224C86.9005 78.64 86.5665 78.18 86.0705 77.844C85.5785 77.508 84.9925 77.34 84.3125 77.34C83.6645 77.34 83.1085 77.486 82.6445 77.778C82.1845 78.066 81.8325 78.466 81.5885 78.978C81.3445 79.49 81.2185 80.084 81.2105 80.76C81.2185 81.42 81.3425 82.008 81.5825 82.524C81.8225 83.04 82.1705 83.446 82.6265 83.742C83.0865 84.034 83.6445 84.18 84.3005 84.18ZM90.8813 84.18C91.5253 84.18 92.0793 84.036 92.5433 83.748C93.0113 83.46 93.3713 83.058 93.6233 82.542C93.8793 82.026 94.0073 81.43 94.0073 80.754C94.0073 80.086 93.8813 79.496 93.6293 78.984C93.3813 78.468 93.0233 78.066 92.5553 77.778C92.0873 77.486 91.5293 77.34 90.8813 77.34C90.2493 77.34 89.6993 77.484 89.2313 77.772C88.7633 78.056 88.4013 78.454 88.1453 78.966C87.8893 79.478 87.7613 80.074 87.7613 80.754C87.7613 81.422 87.8853 82.014 88.1333 82.53C88.3853 83.046 88.7453 83.45 89.2133 83.742C89.6813 84.034 90.2373 84.18 90.8813 84.18ZM90.8813 83.166C90.2293 83.166 89.7353 82.948 89.3993 82.512C89.0633 82.072 88.8953 81.486 88.8953 80.754C88.8953 80.046 89.0573 79.47 89.3813 79.026C89.7053 78.578 90.2053 78.354 90.8813 78.354C91.5453 78.354 92.0433 78.572 92.3753 79.008C92.7073 79.444 92.8733 80.026 92.8733 80.754C92.8733 81.466 92.7073 82.046 92.3753 82.494C92.0473 82.942 91.5493 83.166 90.8813 83.166ZM97.7883 84.168C98.7323 84.168 99.4523 83.834 99.9483 83.166V84H100.902V77.52H99.8283V80.934C99.8283 81.682 99.6643 82.24 99.3363 82.608C99.0123 82.972 98.5823 83.154 98.0463 83.154C97.5903 83.154 97.2343 83.04 96.9783 82.812C96.7263 82.584 96.5483 82.288 96.4443 81.924C96.3403 81.556 96.2883 81.17 96.2883 80.766V77.52H95.2083V81.102C95.2083 81.41 95.2443 81.742 95.3163 82.098C95.3923 82.45 95.5243 82.784 95.7123 83.1C95.9043 83.412 96.1683 83.668 96.5043 83.868C96.8403 84.068 97.2683 84.168 97.7883 84.168ZM102.576 84H103.656V80.586C103.656 79.834 103.818 79.276 104.142 78.912C104.47 78.548 104.902 78.366 105.438 78.366C105.894 78.366 106.25 78.48 106.506 78.708C106.762 78.936 106.94 79.232 107.04 79.596C107.144 79.96 107.196 80.346 107.196 80.754V84H108.276V80.418C108.276 80.11 108.238 79.78 108.162 79.428C108.09 79.072 107.958 78.738 107.766 78.426C107.578 78.11 107.316 77.852 106.98 77.652C106.648 77.452 106.22 77.352 105.696 77.352C104.752 77.352 104.032 77.686 103.536 78.354V77.52H102.576V84ZM113.454 84V83.082C113.01 83.15 112.63 83.162 112.314 83.118C112.002 83.074 111.774 82.924 111.63 82.668C111.554 82.532 111.512 82.372 111.504 82.188C111.5 82 111.498 81.772 111.498 81.504V78.402H113.454V77.52H111.498V75.72H110.43V77.52H109.116V78.402H110.43V81.552C110.43 81.888 110.434 82.188 110.442 82.452C110.454 82.712 110.524 82.968 110.652 83.22C110.804 83.512 111.026 83.728 111.318 83.868C111.61 84.004 111.942 84.078 112.314 84.09C112.69 84.106 113.07 84.076 113.454 84ZM117.166 84H118.12V83.268C118.356 83.552 118.642 83.776 118.978 83.94C119.318 84.1 119.708 84.18 120.148 84.18C120.752 84.18 121.27 84.03 121.702 83.73C122.138 83.426 122.472 83.016 122.704 82.5C122.936 81.984 123.052 81.402 123.052 80.754C123.052 80.106 122.936 79.524 122.704 79.008C122.472 78.492 122.138 78.086 121.702 77.79C121.27 77.49 120.754 77.34 120.154 77.34C119.75 77.34 119.388 77.408 119.068 77.544C118.748 77.68 118.472 77.868 118.24 78.108V75.36H117.166V84ZM120.016 83.202C119.364 83.202 118.884 82.972 118.576 82.512C118.272 82.052 118.12 81.466 118.12 80.754C118.12 80.038 118.272 79.454 118.576 79.002C118.884 78.546 119.354 78.318 119.986 78.318C120.426 78.318 120.788 78.426 121.072 78.642C121.36 78.858 121.572 79.15 121.708 79.518C121.848 79.886 121.918 80.298 121.918 80.754C121.918 81.214 121.848 81.63 121.708 82.002C121.568 82.37 121.358 82.662 121.078 82.878C120.798 83.094 120.444 83.202 120.016 83.202ZM124.904 86.88H125.942L129.47 77.52H128.384L126.488 82.62L124.466 77.52H123.344L125.972 83.976L124.904 86.88ZM135.311 84.174C136.119 84.174 136.753 83.996 137.213 83.64C137.673 83.284 137.903 82.792 137.903 82.164C137.903 81.828 137.833 81.546 137.693 81.318C137.553 81.086 137.317 80.886 136.985 80.718C136.657 80.546 136.207 80.388 135.635 80.244C135.127 80.116 134.739 80.002 134.471 79.902C134.207 79.802 134.025 79.696 133.925 79.584C133.829 79.472 133.781 79.338 133.781 79.182C133.781 78.906 133.911 78.686 134.171 78.522C134.435 78.358 134.777 78.282 135.197 78.294C135.637 78.306 135.999 78.414 136.283 78.618C136.567 78.818 136.735 79.09 136.787 79.434L137.879 79.236C137.811 78.664 137.531 78.206 137.039 77.862C136.551 77.514 135.937 77.34 135.197 77.34C134.449 77.34 133.847 77.514 133.391 77.862C132.935 78.206 132.707 78.664 132.707 79.236C132.707 79.544 132.775 79.806 132.911 80.022C133.051 80.238 133.285 80.428 133.613 80.592C133.945 80.756 134.397 80.914 134.969 81.066C135.497 81.206 135.891 81.328 136.151 81.432C136.415 81.532 136.589 81.638 136.673 81.75C136.757 81.862 136.799 82.01 136.799 82.194C136.799 82.51 136.671 82.76 136.415 82.944C136.163 83.128 135.817 83.22 135.377 83.22C134.909 83.22 134.517 83.118 134.201 82.914C133.885 82.706 133.683 82.426 133.595 82.074L132.503 82.248C132.615 82.856 132.917 83.33 133.409 83.67C133.905 84.006 134.539 84.174 135.311 84.174ZM139.221 84H140.301V80.586C140.301 79.834 140.463 79.276 140.787 78.912C141.115 78.548 141.547 78.366 142.083 78.366C142.539 78.366 142.895 78.48 143.151 78.708C143.407 78.936 143.585 79.232 143.685 79.596C143.789 79.96 143.841 80.346 143.841 80.754V84H144.921V80.418C144.921 80.11 144.883 79.78 144.807 79.428C144.735 79.072 144.603 78.738 144.411 78.426C144.223 78.11 143.961 77.852 143.625 77.652C143.293 77.452 142.865 77.352 142.341 77.352C141.397 77.352 140.677 77.686 140.181 78.354V75.36H139.221V84ZM148.323 84.18C149.403 84.18 150.203 83.784 150.723 82.992V84H151.671V79.992C151.671 79.736 151.659 79.492 151.635 79.26C151.611 79.024 151.553 78.806 151.461 78.606C151.277 78.182 150.973 77.866 150.549 77.658C150.125 77.446 149.621 77.34 149.037 77.34C148.305 77.34 147.713 77.502 147.261 77.826C146.813 78.15 146.513 78.596 146.361 79.164L147.375 79.47C147.491 79.074 147.697 78.786 147.993 78.606C148.289 78.426 148.633 78.336 149.025 78.336C149.585 78.336 149.987 78.462 150.231 78.714C150.479 78.962 150.609 79.344 150.621 79.86C150.141 79.928 149.637 80 149.109 80.076C148.585 80.148 148.119 80.238 147.711 80.346C147.219 80.49 146.831 80.716 146.547 81.024C146.263 81.328 146.121 81.736 146.121 82.248C146.121 82.596 146.203 82.916 146.367 83.208C146.535 83.5 146.781 83.736 147.105 83.916C147.433 84.092 147.839 84.18 148.323 84.18ZM148.485 83.286C148.025 83.286 147.693 83.18 147.489 82.968C147.285 82.752 147.183 82.51 147.183 82.242C147.183 81.938 147.283 81.706 147.483 81.546C147.687 81.382 147.923 81.258 148.191 81.174C148.507 81.086 148.875 81.012 149.295 80.952C149.715 80.892 150.153 80.832 150.609 80.772C150.609 80.92 150.601 81.088 150.585 81.276C150.573 81.464 150.545 81.636 150.501 81.792C150.425 82.192 150.213 82.542 149.865 82.842C149.521 83.138 149.061 83.286 148.485 83.286ZM153.231 84H154.305V80.748C154.305 80.364 154.357 79.994 154.461 79.638C154.565 79.282 154.775 78.992 155.091 78.768C155.315 78.604 155.561 78.508 155.829 78.48C156.101 78.452 156.349 78.466 156.573 78.522V77.52C156.285 77.456 155.969 77.456 155.625 77.52C155.281 77.584 154.985 77.716 154.737 77.916C154.521 78.068 154.337 78.278 154.185 78.546V77.52H153.231V84ZM157.827 76.374H158.895V75.27H157.827V76.374ZM157.827 84H158.895V77.52H157.827V84ZM160.689 84H161.769V80.586C161.769 79.834 161.931 79.276 162.255 78.912C162.583 78.548 163.015 78.366 163.551 78.366C164.007 78.366 164.363 78.48 164.619 78.708C164.875 78.936 165.053 79.232 165.153 79.596C165.257 79.96 165.309 80.346 165.309 80.754V84H166.389V80.418C166.389 80.11 166.351 79.78 166.275 79.428C166.203 79.072 166.071 78.738 165.879 78.426C165.691 78.11 165.429 77.852 165.093 77.652C164.761 77.452 164.333 77.352 163.809 77.352C162.865 77.352 162.145 77.686 161.649 78.354V77.52H160.689V84ZM170.493 84.18C170.893 84.18 171.251 84.112 171.567 83.976C171.887 83.84 172.163 83.65 172.395 83.406V84.03C172.407 85.362 171.801 86.028 170.577 86.028C170.261 86.028 169.957 85.956 169.665 85.812C169.373 85.668 169.147 85.438 168.987 85.122L168.009 85.638C168.281 86.122 168.649 86.48 169.113 86.712C169.577 86.944 170.063 87.06 170.571 87.06C171.347 87.06 171.979 86.894 172.467 86.562C172.959 86.234 173.267 85.726 173.391 85.038C173.423 84.878 173.443 84.716 173.451 84.552C173.463 84.392 173.469 84.222 173.469 84.042V77.52H172.521V78.246C172.285 77.962 171.997 77.74 171.657 77.58C171.317 77.42 170.927 77.34 170.487 77.34C169.887 77.34 169.371 77.49 168.939 77.79C168.507 78.086 168.173 78.492 167.937 79.008C167.705 79.524 167.589 80.106 167.589 80.754C167.589 81.402 167.705 81.984 167.937 82.5C168.169 83.016 168.501 83.426 168.933 83.73C169.369 84.03 169.889 84.18 170.493 84.18ZM170.625 83.202C170.201 83.202 169.847 83.094 169.563 82.878C169.283 82.662 169.073 82.37 168.933 82.002C168.793 81.63 168.723 81.214 168.723 80.754C168.723 80.298 168.791 79.886 168.927 79.518C169.067 79.15 169.279 78.858 169.563 78.642C169.851 78.426 170.215 78.318 170.655 78.318C171.287 78.318 171.755 78.546 172.059 79.002C172.367 79.454 172.521 80.038 172.521 80.754C172.521 81.466 172.369 82.052 172.065 82.512C171.761 82.972 171.281 83.202 170.625 83.202ZM178.447 86.88H179.485L183.013 77.52H181.927L180.031 82.62L178.009 77.52H176.887L179.515 83.976L178.447 86.88ZM186.53 84.18C187.174 84.18 187.728 84.036 188.192 83.748C188.66 83.46 189.02 83.058 189.272 82.542C189.528 82.026 189.656 81.43 189.656 80.754C189.656 80.086 189.53 79.496 189.278 78.984C189.03 78.468 188.672 78.066 188.204 77.778C187.736 77.486 187.178 77.34 186.53 77.34C185.898 77.34 185.348 77.484 184.88 77.772C184.412 78.056 184.05 78.454 183.794 78.966C183.538 79.478 183.41 80.074 183.41 80.754C183.41 81.422 183.534 82.014 183.782 82.53C184.034 83.046 184.394 83.45 184.862 83.742C185.33 84.034 185.886 84.18 186.53 84.18ZM186.53 83.166C185.878 83.166 185.384 82.948 185.048 82.512C184.712 82.072 184.544 81.486 184.544 80.754C184.544 80.046 184.706 79.47 185.03 79.026C185.354 78.578 185.854 78.354 186.53 78.354C187.194 78.354 187.692 78.572 188.024 79.008C188.356 79.444 188.522 80.026 188.522 80.754C188.522 81.466 188.356 82.046 188.024 82.494C187.696 82.942 187.198 83.166 186.53 83.166ZM193.437 84.168C194.381 84.168 195.101 83.834 195.597 83.166V84H196.551V77.52H195.477V80.934C195.477 81.682 195.313 82.24 194.985 82.608C194.661 82.972 194.231 83.154 193.695 83.154C193.239 83.154 192.883 83.04 192.627 82.812C192.375 82.584 192.197 82.288 192.093 81.924C191.989 81.556 191.937 81.17 191.937 80.766V77.52H190.857V81.102C190.857 81.41 190.893 81.742 190.965 82.098C191.041 82.45 191.173 82.784 191.361 83.1C191.553 83.412 191.817 83.668 192.153 83.868C192.489 84.068 192.917 84.168 193.437 84.168ZM198.231 84H199.305V80.748C199.305 80.364 199.357 79.994 199.461 79.638C199.565 79.282 199.775 78.992 200.091 78.768C200.315 78.604 200.561 78.508 200.829 78.48C201.101 78.452 201.349 78.466 201.573 78.522V77.52C201.285 77.456 200.969 77.456 200.625 77.52C200.281 77.584 199.985 77.716 199.737 77.916C199.521 78.068 199.337 78.278 199.185 78.546V77.52H198.231V84ZM207.87 84.18C208.514 84.18 209.068 84.036 209.532 83.748C210 83.46 210.36 83.058 210.612 82.542C210.868 82.026 210.996 81.43 210.996 80.754C210.996 80.086 210.87 79.496 210.618 78.984C210.37 78.468 210.012 78.066 209.544 77.778C209.076 77.486 208.518 77.34 207.87 77.34C207.238 77.34 206.688 77.484 206.22 77.772C205.752 78.056 205.39 78.454 205.134 78.966C204.878 79.478 204.75 80.074 204.75 80.754C204.75 81.422 204.874 82.014 205.122 82.53C205.374 83.046 205.734 83.45 206.202 83.742C206.67 84.034 207.226 84.18 207.87 84.18ZM207.87 83.166C207.218 83.166 206.724 82.948 206.388 82.512C206.052 82.072 205.884 81.486 205.884 80.754C205.884 80.046 206.046 79.47 206.37 79.026C206.694 78.578 207.194 78.354 207.87 78.354C208.534 78.354 209.032 78.572 209.364 79.008C209.696 79.444 209.862 80.026 209.862 80.754C209.862 81.466 209.696 82.046 209.364 82.494C209.036 82.942 208.538 83.166 207.87 83.166ZM212.317 84H213.391V80.748C213.391 80.364 213.443 79.994 213.547 79.638C213.651 79.282 213.861 78.992 214.177 78.768C214.401 78.604 214.647 78.508 214.915 78.48C215.187 78.452 215.435 78.466 215.659 78.522V77.52C215.371 77.456 215.055 77.456 214.711 77.52C214.367 77.584 214.071 77.716 213.823 77.916C213.607 78.068 213.423 78.278 213.271 78.546V77.52H212.317V84ZM219.22 84.18C219.66 84.18 220.048 84.1 220.384 83.94C220.724 83.776 221.012 83.552 221.248 83.268V84H222.202V75.36H221.128V78.108C220.896 77.868 220.62 77.68 220.3 77.544C219.98 77.408 219.618 77.34 219.214 77.34C218.614 77.34 218.096 77.49 217.66 77.79C217.228 78.086 216.896 78.492 216.664 79.008C216.432 79.524 216.316 80.106 216.316 80.754C216.316 81.402 216.432 81.984 216.664 82.5C216.896 83.016 217.228 83.426 217.66 83.73C218.096 84.03 218.616 84.18 219.22 84.18ZM219.352 83.202C218.928 83.202 218.574 83.094 218.29 82.878C218.01 82.662 217.8 82.37 217.66 82.002C217.52 81.63 217.45 81.214 217.45 80.754C217.45 80.298 217.518 79.886 217.654 79.518C217.794 79.15 218.006 78.858 218.29 78.642C218.578 78.426 218.942 78.318 219.382 78.318C220.014 78.318 220.482 78.546 220.786 79.002C221.094 79.454 221.248 80.038 221.248 80.754C221.248 81.466 221.096 82.052 220.792 82.512C220.488 82.972 220.008 83.202 219.352 83.202ZM226.691 84.18C227.319 84.18 227.885 84.024 228.389 83.712C228.893 83.396 229.273 82.952 229.529 82.38L228.503 82.026C228.131 82.786 227.511 83.166 226.643 83.166C226.047 83.166 225.579 82.984 225.239 82.62C224.903 82.252 224.713 81.732 224.669 81.06H229.637C229.669 80.292 229.569 79.63 229.337 79.074C229.109 78.518 228.765 78.09 228.305 77.79C227.849 77.49 227.295 77.34 226.643 77.34C226.015 77.34 225.467 77.482 224.999 77.766C224.531 78.046 224.167 78.446 223.907 78.966C223.651 79.482 223.523 80.094 223.523 80.802C223.523 81.478 223.653 82.07 223.913 82.578C224.177 83.082 224.547 83.476 225.023 83.76C225.499 84.04 226.055 84.18 226.691 84.18ZM226.679 78.3C227.779 78.3 228.395 78.934 228.527 80.202H224.687C224.763 79.586 224.969 79.116 225.305 78.792C225.641 78.464 226.099 78.3 226.679 78.3ZM230.973 84H232.047V80.748C232.047 80.364 232.099 79.994 232.203 79.638C232.307 79.282 232.517 78.992 232.833 78.768C233.057 78.604 233.303 78.508 233.571 78.48C233.843 78.452 234.091 78.466 234.315 78.522V77.52C234.027 77.456 233.711 77.456 233.367 77.52C233.023 77.584 232.727 77.716 232.479 77.916C232.263 78.068 232.079 78.278 231.927 78.546V77.52H230.973V84ZM241.47 84V83.082C241.026 83.15 240.646 83.162 240.33 83.118C240.018 83.074 239.79 82.924 239.646 82.668C239.57 82.532 239.528 82.372 239.52 82.188C239.516 82 239.514 81.772 239.514 81.504V78.402H241.47V77.52H239.514V75.72H238.446V77.52H237.132V78.402H238.446V81.552C238.446 81.888 238.45 82.188 238.458 82.452C238.47 82.712 238.54 82.968 238.668 83.22C238.82 83.512 239.042 83.728 239.334 83.868C239.626 84.004 239.958 84.078 240.33 84.09C240.706 84.106 241.086 84.076 241.47 84ZM245.276 84.18C245.92 84.18 246.474 84.036 246.938 83.748C247.406 83.46 247.766 83.058 248.018 82.542C248.274 82.026 248.402 81.43 248.402 80.754C248.402 80.086 248.276 79.496 248.024 78.984C247.776 78.468 247.418 78.066 246.95 77.778C246.482 77.486 245.924 77.34 245.276 77.34C244.644 77.34 244.094 77.484 243.626 77.772C243.158 78.056 242.796 78.454 242.54 78.966C242.284 79.478 242.156 80.074 242.156 80.754C242.156 81.422 242.28 82.014 242.528 82.53C242.78 83.046 243.14 83.45 243.608 83.742C244.076 84.034 244.632 84.18 245.276 84.18ZM245.276 83.166C244.624 83.166 244.13 82.948 243.794 82.512C243.458 82.072 243.29 81.486 243.29 80.754C243.29 80.046 243.452 79.47 243.776 79.026C244.1 78.578 244.6 78.354 245.276 78.354C245.94 78.354 246.438 78.572 246.77 79.008C247.102 79.444 247.268 80.026 247.268 80.754C247.268 81.466 247.102 82.046 246.77 82.494C246.442 82.942 245.944 83.166 245.276 83.166ZM252.245 84H253.313V75.18H252.245V84ZM257.873 84.18C258.517 84.18 259.071 84.036 259.535 83.748C260.003 83.46 260.363 83.058 260.615 82.542C260.871 82.026 260.999 81.43 260.999 80.754C260.999 80.086 260.873 79.496 260.621 78.984C260.373 78.468 260.015 78.066 259.547 77.778C259.079 77.486 258.521 77.34 257.873 77.34C257.241 77.34 256.691 77.484 256.223 77.772C255.755 78.056 255.393 78.454 255.137 78.966C254.881 79.478 254.753 80.074 254.753 80.754C254.753 81.422 254.877 82.014 255.125 82.53C255.377 83.046 255.737 83.45 256.205 83.742C256.673 84.034 257.229 84.18 257.873 84.18ZM257.873 83.166C257.221 83.166 256.727 82.948 256.391 82.512C256.055 82.072 255.887 81.486 255.887 80.754C255.887 80.046 256.049 79.47 256.373 79.026C256.697 78.578 257.197 78.354 257.873 78.354C258.537 78.354 259.035 78.572 259.367 79.008C259.699 79.444 259.865 80.026 259.865 80.754C259.865 81.466 259.699 82.046 259.367 82.494C259.039 82.942 258.541 83.166 257.873 83.166ZM265.05 84.18C265.718 84.18 266.29 84.02 266.766 83.7C267.242 83.38 267.594 82.918 267.822 82.314L266.742 82.032C266.442 82.788 265.878 83.166 265.05 83.166C264.406 83.166 263.92 82.946 263.592 82.506C263.268 82.066 263.102 81.484 263.094 80.76C263.102 80.056 263.264 79.48 263.58 79.032C263.896 78.58 264.386 78.354 265.05 78.354C265.442 78.354 265.792 78.458 266.1 78.666C266.408 78.874 266.63 79.166 266.766 79.542L267.822 79.224C267.65 78.64 267.316 78.18 266.82 77.844C266.328 77.508 265.742 77.34 265.062 77.34C264.414 77.34 263.858 77.486 263.394 77.778C262.934 78.066 262.582 78.466 262.338 78.978C262.094 79.49 261.968 80.084 261.96 80.76C261.968 81.42 262.092 82.008 262.332 82.524C262.572 83.04 262.92 83.446 263.376 83.742C263.836 84.034 264.394 84.18 265.05 84.18ZM270.83 84.18C271.91 84.18 272.71 83.784 273.23 82.992V84H274.178V79.992C274.178 79.736 274.166 79.492 274.142 79.26C274.118 79.024 274.06 78.806 273.968 78.606C273.784 78.182 273.48 77.866 273.056 77.658C272.632 77.446 272.128 77.34 271.544 77.34C270.812 77.34 270.22 77.502 269.768 77.826C269.32 78.15 269.02 78.596 268.868 79.164L269.882 79.47C269.998 79.074 270.204 78.786 270.5 78.606C270.796 78.426 271.14 78.336 271.532 78.336C272.092 78.336 272.494 78.462 272.738 78.714C272.986 78.962 273.116 79.344 273.128 79.86C272.648 79.928 272.144 80 271.616 80.076C271.092 80.148 270.626 80.238 270.218 80.346C269.726 80.49 269.338 80.716 269.054 81.024C268.77 81.328 268.628 81.736 268.628 82.248C268.628 82.596 268.71 82.916 268.874 83.208C269.042 83.5 269.288 83.736 269.612 83.916C269.94 84.092 270.346 84.18 270.83 84.18ZM270.992 83.286C270.532 83.286 270.2 83.18 269.996 82.968C269.792 82.752 269.69 82.51 269.69 82.242C269.69 81.938 269.79 81.706 269.99 81.546C270.194 81.382 270.43 81.258 270.698 81.174C271.014 81.086 271.382 81.012 271.802 80.952C272.222 80.892 272.66 80.832 273.116 80.772C273.116 80.92 273.108 81.088 273.092 81.276C273.08 81.464 273.052 81.636 273.008 81.792C272.932 82.192 272.72 82.542 272.372 82.842C272.028 83.138 271.568 83.286 270.992 83.286ZM275.858 84H276.926V75.18H275.858V84ZM22.458 100H23.526V94.402H25.23V93.52H23.526V92.998C23.526 92.378 23.84 92.068 24.468 92.068H25.23V91.18H24.408C24.164 91.18 23.902 91.204 23.622 91.252C23.342 91.296 23.09 91.44 22.866 91.684C22.674 91.892 22.558 92.13 22.518 92.398C22.478 92.662 22.458 92.918 22.458 93.166V93.52H21.36V94.402H22.458V100ZM28.7133 100.18C29.3573 100.18 29.9113 100.036 30.3753 99.748C30.8433 99.46 31.2033 99.058 31.4553 98.542C31.7113 98.026 31.8393 97.43 31.8393 96.754C31.8393 96.086 31.7133 95.496 31.4613 94.984C31.2133 94.468 30.8553 94.066 30.3873 93.778C29.9193 93.486 29.3613 93.34 28.7133 93.34C28.0813 93.34 27.5313 93.484 27.0633 93.772C26.5953 94.056 26.2333 94.454 25.9773 94.966C25.7213 95.478 25.5933 96.074 25.5933 96.754C25.5933 97.422 25.7173 98.014 25.9653 98.53C26.2173 99.046 26.5773 99.45 27.0453 99.742C27.5133 100.034 28.0693 100.18 28.7133 100.18ZM28.7133 99.166C28.0613 99.166 27.5673 98.948 27.2313 98.512C26.8953 98.072 26.7273 97.486 26.7273 96.754C26.7273 96.046 26.8893 95.47 27.2133 95.026C27.5373 94.578 28.0373 94.354 28.7133 94.354C29.3773 94.354 29.8753 94.572 30.2073 95.008C30.5393 95.444 30.7053 96.026 30.7053 96.754C30.7053 97.466 30.5393 98.046 30.2073 98.494C29.8793 98.942 29.3813 99.166 28.7133 99.166ZM35.9203 100.18C36.5643 100.18 37.1183 100.036 37.5823 99.748C38.0503 99.46 38.4103 99.058 38.6623 98.542C38.9183 98.026 39.0463 97.43 39.0463 96.754C39.0463 96.086 38.9203 95.496 38.6683 94.984C38.4203 94.468 38.0623 94.066 37.5943 93.778C37.1263 93.486 36.5683 93.34 35.9203 93.34C35.2883 93.34 34.7383 93.484 34.2703 93.772C33.8023 94.056 33.4403 94.454 33.1843 94.966C32.9283 95.478 32.8003 96.074 32.8003 96.754C32.8003 97.422 32.9243 98.014 33.1723 98.53C33.4243 99.046 33.7843 99.45 34.2523 99.742C34.7203 100.034 35.2763 100.18 35.9203 100.18ZM35.9203 99.166C35.2683 99.166 34.7743 98.948 34.4383 98.512C34.1023 98.072 33.9343 97.486 33.9343 96.754C33.9343 96.046 34.0963 95.47 34.4203 95.026C34.7443 94.578 35.2443 94.354 35.9203 94.354C36.5843 94.354 37.0823 94.572 37.4143 95.008C37.7463 95.444 37.9123 96.026 37.9123 96.754C37.9123 97.466 37.7463 98.046 37.4143 98.494C37.0863 98.942 36.5883 99.166 35.9203 99.166ZM42.9113 100.18C43.3513 100.18 43.7393 100.1 44.0753 99.94C44.4153 99.776 44.7033 99.552 44.9393 99.268V100H45.8933V91.36H44.8193V94.108C44.5873 93.868 44.3113 93.68 43.9913 93.544C43.6713 93.408 43.3093 93.34 42.9053 93.34C42.3053 93.34 41.7873 93.49 41.3513 93.79C40.9193 94.086 40.5873 94.492 40.3553 95.008C40.1233 95.524 40.0073 96.106 40.0073 96.754C40.0073 97.402 40.1233 97.984 40.3553 98.5C40.5873 99.016 40.9193 99.426 41.3513 99.73C41.7873 100.03 42.3073 100.18 42.9113 100.18ZM43.0433 99.202C42.6193 99.202 42.2653 99.094 41.9813 98.878C41.7013 98.662 41.4913 98.37 41.3513 98.002C41.2113 97.63 41.1413 97.214 41.1413 96.754C41.1413 96.298 41.2093 95.886 41.3453 95.518C41.4853 95.15 41.6973 94.858 41.9813 94.642C42.2693 94.426 42.6333 94.318 43.0733 94.318C43.7053 94.318 44.1733 94.546 44.4773 95.002C44.7853 95.454 44.9393 96.038 44.9393 96.754C44.9393 97.466 44.7873 98.052 44.4833 98.512C44.1793 98.972 43.6993 99.202 43.0433 99.202ZM49.9707 100H50.9247V99.268C51.1607 99.552 51.4467 99.776 51.7827 99.94C52.1227 100.1 52.5127 100.18 52.9527 100.18C53.5567 100.18 54.0747 100.03 54.5067 99.73C54.9427 99.426 55.2767 99.016 55.5087 98.5C55.7407 97.984 55.8567 97.402 55.8567 96.754C55.8567 96.106 55.7407 95.524 55.5087 95.008C55.2767 94.492 54.9427 94.086 54.5067 93.79C54.0747 93.49 53.5587 93.34 52.9587 93.34C52.5547 93.34 52.1927 93.408 51.8727 93.544C51.5527 93.68 51.2767 93.868 51.0447 94.108V91.36H49.9707V100ZM52.8207 99.202C52.1687 99.202 51.6887 98.972 51.3807 98.512C51.0767 98.052 50.9247 97.466 50.9247 96.754C50.9247 96.038 51.0767 95.454 51.3807 95.002C51.6887 94.546 52.1587 94.318 52.7907 94.318C53.2307 94.318 53.5927 94.426 53.8767 94.642C54.1647 94.858 54.3767 95.15 54.5127 95.518C54.6527 95.886 54.7227 96.298 54.7227 96.754C54.7227 97.214 54.6527 97.63 54.5127 98.002C54.3727 98.37 54.1627 98.662 53.8827 98.878C53.6027 99.094 53.2487 99.202 52.8207 99.202ZM59.014 100.18C60.094 100.18 60.894 99.784 61.414 98.992V100H62.362V95.992C62.362 95.736 62.35 95.492 62.326 95.26C62.302 95.024 62.244 94.806 62.152 94.606C61.968 94.182 61.664 93.866 61.24 93.658C60.816 93.446 60.312 93.34 59.728 93.34C58.996 93.34 58.404 93.502 57.952 93.826C57.504 94.15 57.204 94.596 57.052 95.164L58.066 95.47C58.182 95.074 58.388 94.786 58.684 94.606C58.98 94.426 59.324 94.336 59.716 94.336C60.276 94.336 60.678 94.462 60.922 94.714C61.17 94.962 61.3 95.344 61.312 95.86C60.832 95.928 60.328 96 59.8 96.076C59.276 96.148 58.81 96.238 58.402 96.346C57.91 96.49 57.522 96.716 57.238 97.024C56.954 97.328 56.812 97.736 56.812 98.248C56.812 98.596 56.894 98.916 57.058 99.208C57.226 99.5 57.472 99.736 57.796 99.916C58.124 100.092 58.53 100.18 59.014 100.18ZM59.176 99.286C58.716 99.286 58.384 99.18 58.18 98.968C57.976 98.752 57.874 98.51 57.874 98.242C57.874 97.938 57.974 97.706 58.174 97.546C58.378 97.382 58.614 97.258 58.882 97.174C59.198 97.086 59.566 97.012 59.986 96.952C60.406 96.892 60.844 96.832 61.3 96.772C61.3 96.92 61.292 97.088 61.276 97.276C61.264 97.464 61.236 97.636 61.192 97.792C61.116 98.192 60.904 98.542 60.556 98.842C60.212 99.138 59.752 99.286 59.176 99.286ZM63.916 100H64.996V96.586C64.996 95.834 65.158 95.276 65.482 94.912C65.81 94.548 66.242 94.366 66.778 94.366C67.234 94.366 67.59 94.48 67.846 94.708C68.102 94.936 68.28 95.232 68.38 95.596C68.484 95.96 68.536 96.346 68.536 96.754V100H69.616V96.418C69.616 96.11 69.578 95.78 69.502 95.428C69.43 95.072 69.298 94.738 69.106 94.426C68.918 94.11 68.656 93.852 68.32 93.652C67.988 93.452 67.56 93.352 67.036 93.352C66.092 93.352 65.372 93.686 64.876 94.354V93.52H63.916V100ZM71.1699 100H72.2559V96.88L75.2019 100H76.6959L73.4979 96.76L76.3599 93.52H74.9739L72.2559 96.64V91.36H71.1759L71.1699 100ZM77.4851 100H78.6611V98.824H77.4851V100Z" fill="black"/>
<rect width="108" height="35" transform="translate(21 122)" fill="#172327"/>
<path d="M38.12 145H44.259V143.418H39.807V134.92H38.12V145ZM48.8818 145.21C49.6098 145.21 50.2748 145.023 50.8768 144.65C51.4835 144.272 51.9315 143.74 52.2208 143.054L50.5548 142.55C50.2188 143.269 49.6285 143.628 48.7838 143.628C48.2098 143.628 47.7572 143.462 47.4258 143.131C47.0945 142.795 46.8962 142.314 46.8308 141.689H52.3048C52.3702 140.779 52.2698 139.99 52.0038 139.323C51.7378 138.656 51.3295 138.14 50.7788 137.776C50.2328 137.412 49.5678 137.23 48.7838 137.23C48.0418 137.23 47.3885 137.398 46.8238 137.734C46.2592 138.065 45.8182 138.537 45.5008 139.148C45.1835 139.759 45.0248 140.478 45.0248 141.304C45.0248 142.069 45.1858 142.746 45.5078 143.334C45.8345 143.922 46.2872 144.382 46.8658 144.713C47.4445 145.044 48.1165 145.21 48.8818 145.21ZM48.8538 138.707C49.3765 138.707 49.7778 138.845 50.0578 139.12C50.3425 139.391 50.5222 139.822 50.5968 140.415H46.8728C47.0735 139.276 47.7338 138.707 48.8538 138.707ZM55.844 145.21C56.446 145.21 56.957 145.112 57.377 144.916C57.8017 144.715 58.175 144.405 58.497 143.985V145H59.974V140.359C59.974 140.032 59.96 139.731 59.932 139.456C59.904 139.176 59.8223 138.903 59.687 138.637C59.4397 138.138 59.0593 137.778 58.546 137.559C58.0373 137.34 57.447 137.23 56.775 137.23C55.8883 137.23 55.1813 137.424 54.654 137.811C54.1267 138.198 53.7697 138.712 53.583 139.351L55.123 139.834C55.249 139.447 55.4707 139.174 55.788 139.015C56.1053 138.856 56.4343 138.777 56.775 138.777C57.2883 138.777 57.6663 138.882 57.909 139.092C58.1517 139.297 58.2893 139.617 58.322 140.051C57.6593 140.149 57.0433 140.245 56.474 140.338C55.9093 140.427 55.4287 140.536 55.032 140.667C54.4347 140.872 53.9983 141.164 53.723 141.542C53.4477 141.915 53.31 142.377 53.31 142.928C53.31 143.343 53.4057 143.724 53.597 144.069C53.793 144.414 54.08 144.692 54.458 144.902C54.836 145.107 55.298 145.21 55.844 145.21ZM56.18 143.866C55.7833 143.866 55.48 143.775 55.27 143.593C55.0647 143.411 54.962 143.182 54.962 142.907C54.962 142.66 55.0413 142.459 55.2 142.305C55.3633 142.151 55.5897 142.02 55.879 141.913C56.145 141.824 56.4647 141.747 56.838 141.682C57.2113 141.612 57.699 141.53 58.301 141.437C58.2963 141.614 58.2847 141.813 58.266 142.032C58.2473 142.247 58.203 142.44 58.133 142.613C58.077 142.786 57.9673 142.97 57.804 143.166C57.6453 143.362 57.4307 143.528 57.16 143.663C56.8893 143.798 56.5627 143.866 56.18 143.866ZM61.7964 145H63.4904V141.157C63.4904 140.718 63.5697 140.329 63.7284 139.988C63.8917 139.647 64.1461 139.384 64.4914 139.197C64.7247 139.062 64.9861 138.982 65.2754 138.959C65.5647 138.931 65.8237 138.95 66.0524 139.015V137.44C65.7117 137.389 65.3617 137.396 65.0024 137.461C64.6431 137.522 64.3234 137.648 64.0434 137.839C63.8847 137.937 63.7424 138.056 63.6164 138.196C63.4904 138.331 63.3807 138.483 63.2874 138.651V137.44H61.7964V145ZM67.3742 145H69.0822V141.115C69.0822 140.504 69.1685 140.032 69.3412 139.701C69.5185 139.365 69.7425 139.134 70.0132 139.008C70.2885 138.877 70.5685 138.812 70.8532 138.812C71.2545 138.812 71.5742 138.901 71.8122 139.078C72.0502 139.251 72.2252 139.472 72.3372 139.743C72.4539 140.009 72.5285 140.287 72.5612 140.576C72.5985 140.865 72.6172 141.127 72.6172 141.36V145H74.3252V140.779C74.3252 140.602 74.3089 140.366 74.2762 140.072C74.2482 139.778 74.1829 139.468 74.0802 139.141C73.9775 138.814 73.8189 138.506 73.6042 138.217C73.3895 137.923 73.0979 137.685 72.7292 137.503C72.3652 137.316 71.9055 137.223 71.3502 137.223C70.8042 137.223 70.3235 137.319 69.9082 137.51C69.4975 137.697 69.1545 137.953 68.8792 138.28V137.44H67.3742V145ZM78.9406 145H80.6416V140.345C80.6416 139.874 80.7699 139.491 81.0266 139.197C81.2879 138.903 81.6333 138.756 82.0626 138.756C82.5059 138.756 82.8559 138.903 83.1126 139.197C83.3693 139.491 83.4976 139.902 83.4976 140.429V145H85.1776V140.345C85.1776 139.846 85.3129 139.456 85.5836 139.176C85.8589 138.896 86.1996 138.756 86.6056 138.756C87.0396 138.756 87.3849 138.903 87.6416 139.197C87.9029 139.486 88.0336 139.89 88.0336 140.408V145H89.7206V139.981C89.7206 139.16 89.4966 138.499 89.0486 138C88.6053 137.501 87.9659 137.251 87.1306 137.251C86.6406 137.251 86.1926 137.358 85.7866 137.573C85.3806 137.788 85.0609 138.082 84.8276 138.455C84.6269 138.086 84.3423 137.795 83.9736 137.58C83.6049 137.361 83.1546 137.251 82.6226 137.251C82.1699 137.251 81.7523 137.342 81.3696 137.524C80.9916 137.701 80.6789 137.946 80.4316 138.259V137.44H78.9406V145ZM94.7624 145.21C95.5184 145.21 96.1787 145.042 96.7434 144.706C97.308 144.365 97.7467 143.896 98.0594 143.299C98.3767 142.697 98.5354 142.004 98.5354 141.22C98.5354 140.441 98.379 139.752 98.0664 139.155C97.7537 138.553 97.315 138.082 96.7504 137.741C96.1857 137.4 95.523 137.23 94.7624 137.23C94.0204 137.23 93.367 137.398 92.8024 137.734C92.2377 138.07 91.7967 138.537 91.4794 139.134C91.162 139.731 91.0034 140.427 91.0034 141.22C91.0034 141.999 91.1574 142.69 91.4654 143.292C91.778 143.889 92.2167 144.358 92.7814 144.699C93.346 145.04 94.0064 145.21 94.7624 145.21ZM94.7624 143.628C94.1137 143.628 93.6214 143.411 93.2854 142.977C92.954 142.538 92.7884 141.953 92.7884 141.22C92.7884 140.506 92.947 139.927 93.2644 139.484C93.5864 139.036 94.0857 138.812 94.7624 138.812C95.425 138.812 95.922 139.031 96.2534 139.47C96.5847 139.904 96.7504 140.487 96.7504 141.22C96.7504 141.929 96.5847 142.508 96.2534 142.956C95.9267 143.404 95.4297 143.628 94.7624 143.628ZM100.078 145H101.772V141.157C101.772 140.718 101.851 140.329 102.01 139.988C102.173 139.647 102.427 139.384 102.773 139.197C103.006 139.062 103.267 138.982 103.557 138.959C103.846 138.931 104.105 138.95 104.334 139.015V137.44C103.993 137.389 103.643 137.396 103.284 137.461C102.924 137.522 102.605 137.648 102.325 137.839C102.166 137.937 102.024 138.056 101.898 138.196C101.772 138.331 101.662 138.483 101.569 138.651V137.44H100.078V145ZM108.97 145.21C109.698 145.21 110.363 145.023 110.965 144.65C111.571 144.272 112.019 143.74 112.309 143.054L110.643 142.55C110.307 143.269 109.716 143.628 108.872 143.628C108.298 143.628 107.845 143.462 107.514 143.131C107.182 142.795 106.984 142.314 106.919 141.689H112.393C112.458 140.779 112.358 139.99 112.092 139.323C111.826 138.656 111.417 138.14 110.867 137.776C110.321 137.412 109.656 137.23 108.872 137.23C108.13 137.23 107.476 137.398 106.912 137.734C106.347 138.065 105.906 138.537 105.589 139.148C105.271 139.759 105.113 140.478 105.113 141.304C105.113 142.069 105.274 142.746 105.596 143.334C105.922 143.922 106.375 144.382 106.954 144.713C107.532 145.044 108.204 145.21 108.97 145.21ZM108.942 138.707C109.464 138.707 109.866 138.845 110.146 139.12C110.43 139.391 110.61 139.822 110.685 140.415H106.961C107.161 139.276 107.822 138.707 108.942 138.707Z" fill="white"/>
</g>
<defs>
<clipPath id="clip0">
<rect width="356" height="180" rx="12" fill="white"/>
</clipPath>
</defs>
</svg>
