<svg width="356" height="180" viewBox="0 0 356 180" fill="none" xmlns="http://www.w3.org/2000/svg">
<g clip-path="url(#clip0)">
<rect width="356" height="180" fill="#F6C042"/>
<path d="M116.57 144.253C114.411 149.146 118.093 156.574 119.737 161.167L320.063 162.468C320.063 157.906 317.925 154.451 313.728 153.794C304.589 152.364 294.687 152.712 285.619 154.565C284.249 154.845 284.005 155.182 285.223 153.891C287.507 151.47 289.561 148.884 291.074 145.795C295.365 137.037 295.392 126.131 293.361 116.642C290.764 104.5 280.352 96.6141 270.091 92.693C254.643 86.7895 236.491 91.1203 222.979 100.547C212.796 107.653 207.415 118.771 204.416 131.195C204.168 132.223 203.837 135.326 203.668 134.279C203.461 132.993 203.076 131.738 202.788 130.472C200.843 121.899 199.353 112.834 194.914 105.27C191.366 99.2227 183.311 97.8444 177.319 98.7646C167.176 100.322 158.674 108.196 153.213 117.413C150.725 121.612 149.74 125.958 149.518 130.905C149.381 133.933 149.903 137.111 149.65 140.109C149.596 140.748 147.418 139.125 147.274 139.049C144.977 137.837 142.51 137.045 139.972 136.736C133.116 135.902 120.141 136.159 116.57 144.253Z" fill="#FEE8D9"/>
<path d="M-34.4594 150.689C-36.2255 153.728 -33.2135 158.34 -31.8686 161.192L132 162C132 159.167 130.251 157.022 126.818 156.614C119.342 155.726 111.242 155.942 103.825 157.093C102.704 157.267 102.505 157.476 103.501 156.674C105.369 155.17 107.049 153.565 108.287 151.647C111.797 146.208 111.819 139.436 110.158 133.544C108.033 126.004 99.5166 121.107 91.1228 118.672C78.4856 115.006 63.6371 117.696 52.5845 123.55C44.2543 127.962 39.8527 134.865 37.3995 142.58C37.1965 143.219 36.9258 145.146 36.7878 144.495C36.6184 143.697 36.3032 142.918 36.0681 142.131C34.4767 136.808 33.2583 131.179 29.6271 126.482C26.7242 122.727 20.1352 121.871 15.2337 122.442C6.93649 123.41 -0.0175438 128.299 -4.48521 134.022C-6.5204 136.63 -7.3257 139.329 -7.50781 142.401C-7.61927 144.281 -7.19257 146.254 -7.39987 148.116C-7.44404 148.513 -9.22503 147.505 -9.34297 147.458C-11.2224 146.705 -13.2403 146.213 -15.3162 146.021C-20.9246 145.503 -31.5379 145.663 -34.4594 150.689Z" fill="#095941"/>
<path d="M110.946 116.262C103.565 123.825 102.93 146.355 102 156.167H197.938C197.938 154.086 199.06 151.966 199.684 150.023C201.219 145.234 202.364 139.365 199.31 134.904C193.768 126.812 183.538 124.323 174.063 126.863C167.338 128.665 161.101 132.254 155.486 136.169C153.074 137.851 153.659 137.598 151.87 138.97L151.865 138.974C151.723 139.083 151.425 139.312 151.372 139.151C151.173 138.546 151.56 137.272 151.59 136.681C151.726 134.018 151.67 131.323 151.403 128.67C150.787 122.559 149.7 114.583 143.611 111.172C133.408 105.457 118.908 108.101 110.946 116.262Z" fill="#57BD6F"/>
<path d="M274.688 117.318C267.387 124.817 266.758 147.154 265.839 156.883H360.743C360.743 154.82 361.853 152.718 362.47 150.791C363.989 146.044 365.122 140.224 362.1 135.801C356.618 127.778 346.498 125.311 337.125 127.828C330.473 129.615 324.303 133.173 318.748 137.055C316.363 138.723 316.941 138.472 315.172 139.832L315.166 139.837C315.026 139.944 314.731 140.171 314.678 140.011C314.482 139.412 314.864 138.149 314.894 137.563C315.029 134.923 314.974 132.251 314.709 129.62C314.1 123.562 313.025 115.653 307.001 112.271C296.909 106.605 282.565 109.227 274.688 117.318Z" fill="#57BD6F"/>
<rect x="172.418" y="156.167" width="184.052" height="25.6564" fill="#095941"/>
<rect x="-4.54688" y="156.167" width="184.052" height="25.6564" fill="#EE7246"/>
<path d="M27.6 55.968H43.456V52.336H33.568L39.472 47.104C40.3467 46.336 41.0773 45.6373 41.664 45.008C42.2613 44.368 42.7093 43.68 43.008 42.944C43.3067 42.1973 43.456 41.2747 43.456 40.176C43.456 38.672 43.1147 37.344 42.432 36.192C41.76 35.0293 40.8427 34.1227 39.68 33.472C38.5173 32.8107 37.1947 32.48 35.712 32.48C34.1227 32.48 32.72 32.7947 31.504 33.424C30.288 34.0533 29.3387 34.9387 28.656 36.08C27.9733 37.2213 27.632 38.56 27.632 40.096H31.6C31.5787 39.392 31.7387 38.736 32.08 38.128C32.4213 37.52 32.896 37.0347 33.504 36.672C34.1227 36.2987 34.832 36.112 35.632 36.112C36.7733 36.112 37.7013 36.496 38.416 37.264C39.1413 38.0213 39.504 38.976 39.504 40.128C39.504 40.6933 39.3493 41.28 39.04 41.888C38.7413 42.496 38.2133 43.1413 37.456 43.824L27.6 52.608V55.968ZM55.5905 56.48C57.2332 56.48 58.6732 56.1333 59.9105 55.44C61.1585 54.736 62.1292 53.76 62.8225 52.512C63.5265 51.264 63.8785 49.824 63.8785 48.192V40.768C63.8785 39.1253 63.5265 37.6853 62.8225 36.448C62.1292 35.2 61.1585 34.2293 59.9105 33.536C58.6732 32.832 57.2332 32.48 55.5905 32.48C53.9478 32.48 52.5025 32.832 51.2545 33.536C50.0172 34.2293 49.0465 35.2 48.3425 36.448C47.6492 37.6853 47.3025 39.1253 47.3025 40.768V48.192C47.3025 49.824 47.6492 51.264 48.3425 52.512C49.0465 53.76 50.0172 54.736 51.2545 55.44C52.5025 56.1333 53.9478 56.48 55.5905 56.48ZM55.5905 52.816C54.7798 52.816 54.0438 52.624 53.3825 52.24C52.7318 51.8453 52.2092 51.3227 51.8145 50.672C51.4305 50.0107 51.2385 49.2747 51.2385 48.464V40.48C51.2385 39.6587 51.4305 38.9227 51.8145 38.272C52.2092 37.6107 52.7318 37.088 53.3825 36.704C54.0438 36.3093 54.7798 36.112 55.5905 36.112C56.4012 36.112 57.1318 36.3093 57.7825 36.704C58.4438 37.088 58.9665 37.6107 59.3505 38.272C59.7452 38.9227 59.9425 39.6587 59.9425 40.48V48.464C59.9425 49.2747 59.7452 50.0107 59.3505 50.672C58.9665 51.3227 58.4438 51.8453 57.7825 52.24C57.1318 52.624 56.4012 52.816 55.5905 52.816ZM73.805 44C74.861 44 75.821 43.744 76.685 43.232C77.5597 42.7093 78.2583 42.016 78.781 41.152C79.3037 40.2773 79.565 39.3067 79.565 38.24C79.565 37.1733 79.3037 36.208 78.781 35.344C78.2583 34.4693 77.5597 33.776 76.685 33.264C75.821 32.7413 74.861 32.48 73.805 32.48C72.781 32.48 71.8317 32.7413 70.957 33.264C70.0823 33.7867 69.3783 34.4853 68.845 35.36C68.3117 36.2347 68.045 37.1947 68.045 38.24C68.045 39.3067 68.3063 40.2773 68.829 41.152C69.3517 42.016 70.045 42.7093 70.909 43.232C71.7837 43.744 72.749 44 73.805 44ZM71.565 56L92.061 35.536L89.501 32.96L69.005 53.44L71.565 56ZM73.805 40.704C73.1437 40.704 72.5677 40.4587 72.077 39.968C71.5863 39.4773 71.341 38.9013 71.341 38.24C71.341 37.5787 71.5863 37.0027 72.077 36.512C72.5677 36.0213 73.1437 35.776 73.805 35.776C74.4663 35.776 75.0423 36.0213 75.533 36.512C76.0237 37.0027 76.269 37.5787 76.269 38.24C76.269 38.9013 76.0237 39.4773 75.533 39.968C75.0423 40.4587 74.4663 40.704 73.805 40.704ZM87.261 56.48C88.317 56.48 89.277 56.224 90.141 55.712C91.0157 55.1893 91.7143 54.496 92.237 53.632C92.7597 52.7573 93.021 51.7867 93.021 50.72C93.021 49.6533 92.7597 48.688 92.237 47.824C91.7143 46.9493 91.0157 46.256 90.141 45.744C89.277 45.2213 88.317 44.96 87.261 44.96C86.237 44.96 85.2877 45.2213 84.413 45.744C83.5383 46.2667 82.8343 46.9653 82.301 47.84C81.7677 48.7147 81.501 49.6747 81.501 50.72C81.501 51.7867 81.757 52.7573 82.269 53.632C82.7917 54.496 83.4903 55.1893 84.365 55.712C85.2397 56.224 86.205 56.48 87.261 56.48ZM87.261 53.184C86.5997 53.184 86.0237 52.9387 85.533 52.448C85.0423 51.9573 84.797 51.3813 84.797 50.72C84.797 50.0587 85.0423 49.4827 85.533 48.992C86.0237 48.5013 86.5997 48.256 87.261 48.256C87.9223 48.256 88.4983 48.5013 88.989 48.992C89.4797 49.4827 89.725 50.0587 89.725 50.72C89.725 51.3813 89.4797 51.9573 88.989 52.448C88.4983 52.9387 87.9223 53.184 87.261 53.184ZM111.216 56.48C112.944 56.48 114.453 56.096 115.744 55.328C117.034 54.5493 118.037 53.4773 118.752 52.112C119.477 50.736 119.84 49.152 119.84 47.36C119.84 45.5787 119.482 44.0053 118.768 42.64C118.053 41.264 117.05 40.1867 115.76 39.408C114.469 38.6293 112.954 38.24 111.216 38.24C109.52 38.24 108.026 38.624 106.736 39.392C105.445 40.16 104.437 41.2267 103.712 42.592C102.986 43.9573 102.624 45.5467 102.624 47.36C102.624 49.1413 102.976 50.72 103.68 52.096C104.394 53.4613 105.397 54.5333 106.688 55.312C107.978 56.0907 109.488 56.48 111.216 56.48ZM111.216 52.864C109.733 52.864 108.608 52.368 107.84 51.376C107.082 50.3733 106.704 49.0347 106.704 47.36C106.704 45.728 107.066 44.4053 107.792 43.392C108.528 42.368 109.669 41.856 111.216 41.856C112.73 41.856 113.866 42.3573 114.624 43.36C115.381 44.352 115.76 45.6853 115.76 47.36C115.76 48.9813 115.381 50.304 114.624 51.328C113.877 52.352 112.741 52.864 111.216 52.864ZM124.869 56H128.725V41.744H132.901V38.72H128.725V37.616C128.725 37.0187 128.901 36.5387 129.253 36.176C129.616 35.8027 130.165 35.616 130.901 35.616H132.901V32.48H130.741C130.325 32.48 129.84 32.496 129.285 32.528C128.73 32.5493 128.165 32.6667 127.589 32.88C127.024 33.0827 126.496 33.456 126.005 34C125.418 34.64 125.082 35.376 124.997 36.208C124.912 37.04 124.869 37.7867 124.869 38.448V38.72H122.085V41.744H124.869V56ZM135.637 56H139.493V41.744H143.669V38.72H139.493V37.616C139.493 37.0187 139.669 36.5387 140.021 36.176C140.384 35.8027 140.933 35.616 141.669 35.616H143.669V32.48H141.509C141.093 32.48 140.608 32.496 140.053 32.528C139.498 32.5493 138.933 32.6667 138.357 32.88C137.792 33.0827 137.264 33.456 136.773 34C136.186 34.64 135.85 35.376 135.765 36.208C135.68 37.04 135.637 37.7867 135.637 38.448V38.72H132.853V41.744H135.637V56ZM154.15 56H158.006V41.744H162.182V38.72H158.006V37.616C158.006 37.0187 158.182 36.5387 158.534 36.176C158.897 35.8027 159.446 35.616 160.182 35.616H162.182V32.48H160.022C159.606 32.48 159.121 32.496 158.566 32.528C158.012 32.5493 157.446 32.6667 156.87 32.88C156.305 33.0827 155.777 33.456 155.286 34C154.7 34.64 154.364 35.376 154.278 36.208C154.193 37.04 154.15 37.7867 154.15 38.448V38.72H151.366V41.744H154.15V56ZM171.747 56.48C173.475 56.48 174.984 56.096 176.275 55.328C177.566 54.5493 178.568 53.4773 179.283 52.112C180.008 50.736 180.371 49.152 180.371 47.36C180.371 45.5787 180.014 44.0053 179.299 42.64C178.584 41.264 177.582 40.1867 176.291 39.408C175 38.6293 173.486 38.24 171.747 38.24C170.051 38.24 168.558 38.624 167.267 39.392C165.976 40.16 164.968 41.2267 164.243 42.592C163.518 43.9573 163.155 45.5467 163.155 47.36C163.155 49.1413 163.507 50.72 164.211 52.096C164.926 53.4613 165.928 54.5333 167.219 55.312C168.51 56.0907 170.019 56.48 171.747 56.48ZM171.747 52.864C170.264 52.864 169.139 52.368 168.371 51.376C167.614 50.3733 167.235 49.0347 167.235 47.36C167.235 45.728 167.598 44.4053 168.323 43.392C169.059 42.368 170.2 41.856 171.747 41.856C173.262 41.856 174.398 42.3573 175.155 43.36C175.912 44.352 176.291 45.6853 176.291 47.36C176.291 48.9813 175.912 50.304 175.155 51.328C174.408 52.352 173.272 52.864 171.747 52.864ZM183.896 56H187.768V47.216C187.768 46.2133 187.95 45.3227 188.312 44.544C188.686 43.7653 189.267 43.1627 190.056 42.736C190.59 42.4267 191.187 42.2453 191.848 42.192C192.51 42.128 193.102 42.1707 193.624 42.32V38.72C192.846 38.6027 192.046 38.6187 191.224 38.768C190.403 38.9067 189.672 39.1947 189.032 39.632C188.67 39.856 188.344 40.128 188.056 40.448C187.768 40.7573 187.518 41.104 187.304 41.488V38.72H183.896V56ZM207.916 56.48C209.292 56.48 210.46 56.256 211.42 55.808C212.39 55.3493 213.244 54.64 213.98 53.68V56H217.356V45.392C217.356 44.6453 217.324 43.9573 217.26 43.328C217.196 42.688 217.009 42.064 216.7 41.456C216.134 40.3147 215.265 39.4933 214.092 38.992C212.929 38.4907 211.58 38.24 210.044 38.24C208.017 38.24 206.401 38.6827 205.196 39.568C203.99 40.4533 203.174 41.6267 202.748 43.088L206.268 44.192C206.556 43.3067 207.062 42.6827 207.788 42.32C208.513 41.9573 209.265 41.776 210.044 41.776C211.217 41.776 212.081 42.016 212.636 42.496C213.19 42.9653 213.505 43.696 213.58 44.688C212.065 44.912 210.657 45.1307 209.356 45.344C208.065 45.5467 206.966 45.7973 206.06 46.096C204.694 46.5653 203.697 47.232 203.068 48.096C202.438 48.9493 202.124 50.0053 202.124 51.264C202.124 52.2133 202.342 53.0827 202.78 53.872C203.228 54.6613 203.884 55.296 204.748 55.776C205.612 56.2453 206.668 56.48 207.916 56.48ZM208.684 53.408C207.777 53.408 207.084 53.2 206.604 52.784C206.134 52.368 205.9 51.8453 205.9 51.216C205.9 50.6507 206.081 50.192 206.444 49.84C206.817 49.488 207.334 49.1893 207.996 48.944C208.604 48.7413 209.334 48.5653 210.188 48.416C211.041 48.256 212.156 48.0693 213.532 47.856C213.521 48.2613 213.494 48.7147 213.452 49.216C213.409 49.7067 213.308 50.1493 213.148 50.544C213.02 50.9387 212.769 51.36 212.396 51.808C212.033 52.256 211.542 52.6347 210.924 52.944C210.305 53.2533 209.558 53.408 208.684 53.408ZM221.841 56H225.697V32.48H221.841V56ZM230.81 56H234.666V32.48H230.81V56Z" fill="black"/>
<path d="M30.248 84.18C30.916 84.18 31.506 84.042 32.018 83.766C32.53 83.49 32.93 83.102 33.218 82.602C33.51 82.102 33.656 81.518 33.656 80.85V75.36H32.576V80.76C32.576 81.3 32.458 81.75 32.222 82.11C31.99 82.466 31.694 82.732 31.334 82.908C30.978 83.084 30.616 83.172 30.248 83.172C29.884 83.172 29.522 83.086 29.162 82.914C28.806 82.738 28.51 82.472 28.274 82.116C28.038 81.756 27.92 81.304 27.92 80.76V75.36L26.84 75.366V80.85C26.84 81.522 26.984 82.108 27.272 82.608C27.564 83.104 27.966 83.49 28.478 83.766C28.99 84.042 29.58 84.18 30.248 84.18ZM37.7841 84.174C38.5921 84.174 39.2261 83.996 39.6861 83.64C40.1461 83.284 40.3761 82.792 40.3761 82.164C40.3761 81.828 40.3061 81.546 40.1661 81.318C40.0261 81.086 39.7901 80.886 39.4581 80.718C39.1301 80.546 38.6801 80.388 38.1081 80.244C37.6001 80.116 37.2121 80.002 36.9441 79.902C36.6801 79.802 36.4981 79.696 36.3981 79.584C36.3021 79.472 36.2541 79.338 36.2541 79.182C36.2541 78.906 36.3841 78.686 36.6441 78.522C36.9081 78.358 37.2501 78.282 37.6701 78.294C38.1101 78.306 38.4721 78.414 38.7561 78.618C39.0401 78.818 39.2081 79.09 39.2601 79.434L40.3521 79.236C40.2841 78.664 40.0041 78.206 39.5121 77.862C39.0241 77.514 38.4101 77.34 37.6701 77.34C36.9221 77.34 36.3201 77.514 35.8641 77.862C35.4081 78.206 35.1801 78.664 35.1801 79.236C35.1801 79.544 35.2481 79.806 35.3841 80.022C35.5241 80.238 35.7581 80.428 36.0861 80.592C36.4181 80.756 36.8701 80.914 37.4421 81.066C37.9701 81.206 38.3641 81.328 38.6241 81.432C38.8881 81.532 39.0621 81.638 39.1461 81.75C39.2301 81.862 39.2721 82.01 39.2721 82.194C39.2721 82.51 39.1441 82.76 38.8881 82.944C38.6361 83.128 38.2901 83.22 37.8501 83.22C37.3821 83.22 36.9901 83.118 36.6741 82.914C36.3581 82.706 36.1561 82.426 36.0681 82.074L34.9761 82.248C35.0881 82.856 35.3901 83.33 35.8821 83.67C36.3781 84.006 37.0121 84.174 37.7841 84.174ZM44.5074 84.18C45.1354 84.18 45.7014 84.024 46.2054 83.712C46.7094 83.396 47.0894 82.952 47.3454 82.38L46.3194 82.026C45.9474 82.786 45.3274 83.166 44.4594 83.166C43.8634 83.166 43.3954 82.984 43.0554 82.62C42.7194 82.252 42.5294 81.732 42.4854 81.06H47.4534C47.4854 80.292 47.3854 79.63 47.1534 79.074C46.9254 78.518 46.5814 78.09 46.1214 77.79C45.6654 77.49 45.1114 77.34 44.4594 77.34C43.8314 77.34 43.2834 77.482 42.8154 77.766C42.3474 78.046 41.9834 78.446 41.7234 78.966C41.4674 79.482 41.3394 80.094 41.3394 80.802C41.3394 81.478 41.4694 82.07 41.7294 82.578C41.9934 83.082 42.3634 83.476 42.8394 83.76C43.3154 84.04 43.8714 84.18 44.5074 84.18ZM44.4954 78.3C45.5954 78.3 46.2114 78.934 46.3434 80.202H42.5034C42.5794 79.586 42.7854 79.116 43.1214 78.792C43.4574 78.464 43.9154 78.3 44.4954 78.3ZM53.9216 84.18C54.5896 84.18 55.1616 84.02 55.6376 83.7C56.1136 83.38 56.4656 82.918 56.6936 82.314L55.6136 82.032C55.3136 82.788 54.7496 83.166 53.9216 83.166C53.2776 83.166 52.7916 82.946 52.4636 82.506C52.1396 82.066 51.9736 81.484 51.9656 80.76C51.9736 80.056 52.1356 79.48 52.4516 79.032C52.7676 78.58 53.2576 78.354 53.9216 78.354C54.3136 78.354 54.6636 78.458 54.9716 78.666C55.2796 78.874 55.5016 79.166 55.6376 79.542L56.6936 79.224C56.5216 78.64 56.1876 78.18 55.6916 77.844C55.1996 77.508 54.6136 77.34 53.9336 77.34C53.2856 77.34 52.7296 77.486 52.2656 77.778C51.8056 78.066 51.4536 78.466 51.2096 78.978C50.9656 79.49 50.8396 80.084 50.8316 80.76C50.8396 81.42 50.9636 82.008 51.2036 82.524C51.4436 83.04 51.7916 83.446 52.2476 83.742C52.7076 84.034 53.2656 84.18 53.9216 84.18ZM60.5023 84.18C61.1463 84.18 61.7003 84.036 62.1643 83.748C62.6323 83.46 62.9923 83.058 63.2443 82.542C63.5003 82.026 63.6283 81.43 63.6283 80.754C63.6283 80.086 63.5023 79.496 63.2503 78.984C63.0023 78.468 62.6443 78.066 62.1763 77.778C61.7083 77.486 61.1503 77.34 60.5023 77.34C59.8703 77.34 59.3203 77.484 58.8523 77.772C58.3843 78.056 58.0223 78.454 57.7663 78.966C57.5103 79.478 57.3823 80.074 57.3823 80.754C57.3823 81.422 57.5063 82.014 57.7543 82.53C58.0063 83.046 58.3663 83.45 58.8343 83.742C59.3023 84.034 59.8583 84.18 60.5023 84.18ZM60.5023 83.166C59.8503 83.166 59.3563 82.948 59.0203 82.512C58.6843 82.072 58.5163 81.486 58.5163 80.754C58.5163 80.046 58.6783 79.47 59.0023 79.026C59.3263 78.578 59.8263 78.354 60.5023 78.354C61.1663 78.354 61.6643 78.572 61.9963 79.008C62.3283 79.444 62.4943 80.026 62.4943 80.754C62.4943 81.466 62.3283 82.046 61.9963 82.494C61.6683 82.942 61.1703 83.166 60.5023 83.166ZM67.4934 84.18C67.9334 84.18 68.3214 84.1 68.6574 83.94C68.9974 83.776 69.2854 83.552 69.5214 83.268V84H70.4754V75.36H69.4014V78.108C69.1694 77.868 68.8934 77.68 68.5734 77.544C68.2534 77.408 67.8914 77.34 67.4874 77.34C66.8874 77.34 66.3694 77.49 65.9334 77.79C65.5014 78.086 65.1694 78.492 64.9374 79.008C64.7054 79.524 64.5894 80.106 64.5894 80.754C64.5894 81.402 64.7054 81.984 64.9374 82.5C65.1694 83.016 65.5014 83.426 65.9334 83.73C66.3694 84.03 66.8894 84.18 67.4934 84.18ZM67.6254 83.202C67.2014 83.202 66.8474 83.094 66.5634 82.878C66.2834 82.662 66.0734 82.37 65.9334 82.002C65.7934 81.63 65.7234 81.214 65.7234 80.754C65.7234 80.298 65.7914 79.886 65.9274 79.518C66.0674 79.15 66.2794 78.858 66.5634 78.642C66.8514 78.426 67.2154 78.318 67.6554 78.318C68.2874 78.318 68.7554 78.546 69.0594 79.002C69.3674 79.454 69.5214 80.038 69.5214 80.754C69.5214 81.466 69.3694 82.052 69.0654 82.512C68.7614 82.972 68.2814 83.202 67.6254 83.202ZM74.9644 84.18C75.5924 84.18 76.1584 84.024 76.6624 83.712C77.1664 83.396 77.5464 82.952 77.8024 82.38L76.7764 82.026C76.4044 82.786 75.7844 83.166 74.9164 83.166C74.3204 83.166 73.8524 82.984 73.5124 82.62C73.1764 82.252 72.9864 81.732 72.9424 81.06H77.9104C77.9424 80.292 77.8424 79.63 77.6104 79.074C77.3824 78.518 77.0384 78.09 76.5784 77.79C76.1224 77.49 75.5684 77.34 74.9164 77.34C74.2884 77.34 73.7404 77.482 73.2724 77.766C72.8044 78.046 72.4404 78.446 72.1804 78.966C71.9244 79.482 71.7964 80.094 71.7964 80.802C71.7964 81.478 71.9264 82.07 72.1864 82.578C72.4504 83.082 72.8204 83.476 73.2964 83.76C73.7724 84.04 74.3284 84.18 74.9644 84.18ZM74.9524 78.3C76.0524 78.3 76.6684 78.934 76.8004 80.202H72.9604C73.0364 79.586 73.2424 79.116 73.5784 78.792C73.9144 78.464 74.3724 78.3 74.9524 78.3ZM81.6486 84H82.7286V77.244L87.2346 84H88.3146V75.36H87.2346V82.11L82.7286 75.36H81.6486V84ZM93.5443 84.18C94.4083 84.18 95.1403 83.99 95.7403 83.61C96.3403 83.23 96.7963 82.702 97.1083 82.026C97.4203 81.35 97.5763 80.568 97.5763 79.68C97.5763 78.792 97.4203 78.01 97.1083 77.334C96.7963 76.658 96.3403 76.13 95.7403 75.75C95.1403 75.37 94.4083 75.18 93.5443 75.18C92.6843 75.18 91.9523 75.37 91.3483 75.75C90.7483 76.13 90.2923 76.658 89.9803 77.334C89.6683 78.01 89.5123 78.792 89.5123 79.68C89.5123 80.568 89.6683 81.35 89.9803 82.026C90.2923 82.702 90.7483 83.23 91.3483 83.61C91.9523 83.99 92.6843 84.18 93.5443 84.18ZM93.5443 83.16C92.9003 83.156 92.3623 83.008 91.9303 82.716C91.5023 82.424 91.1803 82.018 90.9643 81.498C90.7483 80.974 90.6423 80.368 90.6463 79.68C90.6503 78.988 90.7583 78.38 90.9703 77.856C91.1863 77.332 91.5083 76.924 91.9363 76.632C92.3643 76.34 92.9003 76.196 93.5443 76.2C94.1883 76.204 94.7243 76.352 95.1523 76.644C95.5843 76.936 95.9063 77.342 96.1183 77.862C96.3343 78.382 96.4423 78.988 96.4423 79.68C96.4423 80.368 96.3343 80.976 96.1183 81.504C95.9063 82.028 95.5843 82.436 95.1523 82.728C94.7243 83.02 94.1883 83.164 93.5443 83.16ZM98.7814 84H99.7954V77.706L102.729 84H103.299L106.233 77.706V83.994H107.247V75.36H106.263L103.017 82.242L99.7534 75.36H98.7814V84ZM112.482 84.18C113.346 84.18 114.078 83.99 114.678 83.61C115.278 83.23 115.734 82.702 116.046 82.026C116.358 81.35 116.514 80.568 116.514 79.68C116.514 78.792 116.358 78.01 116.046 77.334C115.734 76.658 115.278 76.13 114.678 75.75C114.078 75.37 113.346 75.18 112.482 75.18C111.622 75.18 110.89 75.37 110.286 75.75C109.686 76.13 109.23 76.658 108.918 77.334C108.606 78.01 108.45 78.792 108.45 79.68C108.45 80.568 108.606 81.35 108.918 82.026C109.23 82.702 109.686 83.23 110.286 83.61C110.89 83.99 111.622 84.18 112.482 84.18ZM112.482 83.16C111.838 83.156 111.3 83.008 110.868 82.716C110.44 82.424 110.118 82.018 109.902 81.498C109.686 80.974 109.58 80.368 109.584 79.68C109.588 78.988 109.696 78.38 109.908 77.856C110.124 77.332 110.446 76.924 110.874 76.632C111.302 76.34 111.838 76.196 112.482 76.2C113.126 76.204 113.662 76.352 114.09 76.644C114.522 76.936 114.844 77.342 115.056 77.862C115.272 78.382 115.38 78.988 115.38 79.68C115.38 80.368 115.272 80.976 115.056 81.504C114.844 82.028 114.522 82.436 114.09 82.728C113.662 83.02 113.126 83.164 112.482 83.16ZM117.719 84H118.787V80.214H122.039V79.146H118.787V76.428H122.759V75.36H117.719V84ZM123.956 84H125.024V75.36H123.956V84ZM126.824 84H127.892V80.808H130.418L131.966 84H133.19L131.522 80.574C132.01 80.37 132.38 80.048 132.632 79.608C132.884 79.164 133.01 78.656 133.01 78.084C133.01 77.396 132.828 76.806 132.464 76.314C132.104 75.818 131.574 75.516 130.874 75.408C130.762 75.388 130.648 75.376 130.532 75.372C130.42 75.364 130.322 75.36 130.238 75.36H126.824V84ZM127.892 79.794V76.374H130.202C130.278 76.374 130.364 76.378 130.46 76.386C130.56 76.394 130.654 76.408 130.742 76.428C131.158 76.52 131.458 76.73 131.642 77.058C131.826 77.382 131.918 77.724 131.918 78.084C131.918 78.444 131.826 78.788 131.642 79.116C131.458 79.44 131.158 79.648 130.742 79.74C130.654 79.76 130.56 79.774 130.46 79.782C130.364 79.79 130.278 79.794 130.202 79.794H127.892ZM137.578 84.18C138.178 84.18 138.722 84.08 139.21 83.88C139.698 83.68 140.086 83.388 140.374 83.004C140.666 82.616 140.812 82.144 140.812 81.588C140.812 81.172 140.736 80.828 140.584 80.556C140.432 80.28 140.24 80.06 140.008 79.896C139.776 79.728 139.536 79.598 139.288 79.506C139.044 79.414 138.828 79.342 138.64 79.29L136.996 78.816C136.784 78.756 136.566 78.68 136.342 78.588C136.118 78.492 135.93 78.364 135.778 78.204C135.63 78.04 135.556 77.826 135.556 77.562C135.556 77.294 135.638 77.058 135.802 76.854C135.97 76.646 136.196 76.484 136.48 76.368C136.768 76.252 137.088 76.196 137.44 76.2C137.988 76.204 138.466 76.36 138.874 76.668C139.286 76.972 139.536 77.386 139.624 77.91L140.758 77.712C140.598 76.924 140.224 76.308 139.636 75.864C139.052 75.416 138.324 75.19 137.452 75.186C136.88 75.182 136.364 75.276 135.904 75.468C135.448 75.66 135.088 75.938 134.824 76.302C134.56 76.662 134.428 77.098 134.428 77.61C134.428 78.034 134.516 78.386 134.692 78.666C134.872 78.946 135.104 79.17 135.388 79.338C135.676 79.502 135.98 79.632 136.3 79.728L138.502 80.382C138.81 80.474 139.088 80.614 139.336 80.802C139.584 80.986 139.708 81.268 139.708 81.648C139.708 81.96 139.614 82.23 139.426 82.458C139.242 82.686 138.994 82.862 138.682 82.986C138.37 83.106 138.02 83.166 137.632 83.166C137.028 83.166 136.506 83.014 136.066 82.71C135.626 82.402 135.336 81.976 135.196 81.432L134.092 81.606C134.188 82.134 134.394 82.592 134.71 82.98C135.03 83.364 135.434 83.66 135.922 83.868C136.414 84.076 136.966 84.18 137.578 84.18ZM144.296 84H145.364V76.374H148.31V75.36H141.35V76.374H144.296V84ZM152.207 84H153.275V76.374H156.221V75.36H149.261V76.374H152.207V84ZM157.296 84H158.364V75.36H157.296V84ZM160.164 84H161.178V77.706L164.112 84H164.682L167.616 77.706V83.994H168.63V75.36H167.646L164.4 82.242L161.136 75.36H160.164V84ZM170.313 84H175.773V82.986H171.381V80.094H175.053V79.08H171.381V76.374H175.773V75.36H170.313V84ZM183.235 84V83.082C182.791 83.15 182.411 83.162 182.095 83.118C181.783 83.074 181.555 82.924 181.411 82.668C181.335 82.532 181.293 82.372 181.285 82.188C181.281 82 181.279 81.772 181.279 81.504V78.402H183.235V77.52H181.279V75.72H180.211V77.52H178.897V78.402H180.211V81.552C180.211 81.888 180.215 82.188 180.223 82.452C180.235 82.712 180.305 82.968 180.433 83.22C180.585 83.512 180.807 83.728 181.099 83.868C181.391 84.004 181.723 84.078 182.095 84.09C182.471 84.106 182.851 84.076 183.235 84ZM187.041 84.18C187.685 84.18 188.239 84.036 188.703 83.748C189.171 83.46 189.531 83.058 189.783 82.542C190.039 82.026 190.167 81.43 190.167 80.754C190.167 80.086 190.041 79.496 189.789 78.984C189.541 78.468 189.183 78.066 188.715 77.778C188.247 77.486 187.689 77.34 187.041 77.34C186.409 77.34 185.859 77.484 185.391 77.772C184.923 78.056 184.561 78.454 184.305 78.966C184.049 79.478 183.921 80.074 183.921 80.754C183.921 81.422 184.045 82.014 184.293 82.53C184.545 83.046 184.905 83.45 185.373 83.742C185.841 84.034 186.397 84.18 187.041 84.18ZM187.041 83.166C186.389 83.166 185.895 82.948 185.559 82.512C185.223 82.072 185.055 81.486 185.055 80.754C185.055 80.046 185.217 79.47 185.541 79.026C185.865 78.578 186.365 78.354 187.041 78.354C187.705 78.354 188.203 78.572 188.535 79.008C188.867 79.444 189.033 80.026 189.033 80.754C189.033 81.466 188.867 82.046 188.535 82.494C188.207 82.942 187.709 83.166 187.041 83.166ZM196.435 84.18C196.835 84.18 197.193 84.112 197.509 83.976C197.829 83.84 198.105 83.65 198.337 83.406V84.03C198.349 85.362 197.743 86.028 196.519 86.028C196.203 86.028 195.899 85.956 195.607 85.812C195.315 85.668 195.089 85.438 194.929 85.122L193.951 85.638C194.223 86.122 194.591 86.48 195.055 86.712C195.519 86.944 196.005 87.06 196.513 87.06C197.289 87.06 197.921 86.894 198.409 86.562C198.901 86.234 199.209 85.726 199.333 85.038C199.365 84.878 199.385 84.716 199.393 84.552C199.405 84.392 199.411 84.222 199.411 84.042V77.52H198.463V78.246C198.227 77.962 197.939 77.74 197.599 77.58C197.259 77.42 196.869 77.34 196.429 77.34C195.829 77.34 195.313 77.49 194.881 77.79C194.449 78.086 194.115 78.492 193.879 79.008C193.647 79.524 193.531 80.106 193.531 80.754C193.531 81.402 193.647 81.984 193.879 82.5C194.111 83.016 194.443 83.426 194.875 83.73C195.311 84.03 195.831 84.18 196.435 84.18ZM196.567 83.202C196.143 83.202 195.789 83.094 195.505 82.878C195.225 82.662 195.015 82.37 194.875 82.002C194.735 81.63 194.665 81.214 194.665 80.754C194.665 80.298 194.733 79.886 194.869 79.518C195.009 79.15 195.221 78.858 195.505 78.642C195.793 78.426 196.157 78.318 196.597 78.318C197.229 78.318 197.697 78.546 198.001 79.002C198.309 79.454 198.463 80.038 198.463 80.754C198.463 81.466 198.311 82.052 198.007 82.512C197.703 82.972 197.223 83.202 196.567 83.202ZM203.894 84.18C204.522 84.18 205.088 84.024 205.592 83.712C206.096 83.396 206.476 82.952 206.732 82.38L205.706 82.026C205.334 82.786 204.714 83.166 203.846 83.166C203.25 83.166 202.782 82.984 202.442 82.62C202.106 82.252 201.916 81.732 201.872 81.06H206.84C206.872 80.292 206.772 79.63 206.54 79.074C206.312 78.518 205.968 78.09 205.508 77.79C205.052 77.49 204.498 77.34 203.846 77.34C203.218 77.34 202.67 77.482 202.202 77.766C201.734 78.046 201.37 78.446 201.11 78.966C200.854 79.482 200.726 80.094 200.726 80.802C200.726 81.478 200.856 82.07 201.116 82.578C201.38 83.082 201.75 83.476 202.226 83.76C202.702 84.04 203.258 84.18 203.894 84.18ZM203.882 78.3C204.982 78.3 205.598 78.934 205.73 80.202H201.89C201.966 79.586 202.172 79.116 202.508 78.792C202.844 78.464 203.302 78.3 203.882 78.3ZM211.794 84V83.082C211.35 83.15 210.97 83.162 210.654 83.118C210.342 83.074 210.114 82.924 209.97 82.668C209.894 82.532 209.852 82.372 209.844 82.188C209.84 82 209.838 81.772 209.838 81.504V78.402H211.794V77.52H209.838V75.72H208.77V77.52H207.456V78.402H208.77V81.552C208.77 81.888 208.774 82.188 208.782 82.452C208.794 82.712 208.864 82.968 208.992 83.22C209.144 83.512 209.366 83.728 209.658 83.868C209.95 84.004 210.282 84.078 210.654 84.09C211.03 84.106 211.41 84.076 211.794 84ZM216.412 86.88H217.45L220.978 77.52H219.892L217.996 82.62L215.974 77.52H214.852L217.48 83.976L216.412 86.88ZM224.495 84.18C225.139 84.18 225.693 84.036 226.157 83.748C226.625 83.46 226.985 83.058 227.237 82.542C227.493 82.026 227.621 81.43 227.621 80.754C227.621 80.086 227.495 79.496 227.243 78.984C226.995 78.468 226.637 78.066 226.169 77.778C225.701 77.486 225.143 77.34 224.495 77.34C223.863 77.34 223.313 77.484 222.845 77.772C222.377 78.056 222.015 78.454 221.759 78.966C221.503 79.478 221.375 80.074 221.375 80.754C221.375 81.422 221.499 82.014 221.747 82.53C221.999 83.046 222.359 83.45 222.827 83.742C223.295 84.034 223.851 84.18 224.495 84.18ZM224.495 83.166C223.843 83.166 223.349 82.948 223.013 82.512C222.677 82.072 222.509 81.486 222.509 80.754C222.509 80.046 222.671 79.47 222.995 79.026C223.319 78.578 223.819 78.354 224.495 78.354C225.159 78.354 225.657 78.572 225.989 79.008C226.321 79.444 226.487 80.026 226.487 80.754C226.487 81.466 226.321 82.046 225.989 82.494C225.661 82.942 225.163 83.166 224.495 83.166ZM231.402 84.168C232.346 84.168 233.066 83.834 233.562 83.166V84H234.516V77.52H233.442V80.934C233.442 81.682 233.278 82.24 232.95 82.608C232.626 82.972 232.196 83.154 231.66 83.154C231.204 83.154 230.848 83.04 230.592 82.812C230.34 82.584 230.162 82.288 230.058 81.924C229.954 81.556 229.902 81.17 229.902 80.766V77.52H228.822V81.102C228.822 81.41 228.858 81.742 228.93 82.098C229.006 82.45 229.138 82.784 229.326 83.1C229.518 83.412 229.782 83.668 230.118 83.868C230.454 84.068 230.882 84.168 231.402 84.168ZM236.195 84H237.269V80.748C237.269 80.364 237.321 79.994 237.425 79.638C237.529 79.282 237.739 78.992 238.055 78.768C238.279 78.604 238.525 78.508 238.793 78.48C239.065 78.452 239.313 78.466 239.537 78.522V77.52C239.249 77.456 238.933 77.456 238.589 77.52C238.245 77.584 237.949 77.716 237.701 77.916C237.485 78.068 237.301 78.278 237.149 78.546V77.52H236.195V84ZM243.692 84H244.76V78.402H246.464V77.52H244.76V76.998C244.76 76.378 245.074 76.068 245.702 76.068H246.464V75.18H245.642C245.398 75.18 245.136 75.204 244.856 75.252C244.576 75.296 244.324 75.44 244.1 75.684C243.908 75.892 243.792 76.13 243.752 76.398C243.712 76.662 243.692 76.918 243.692 77.166V77.52H242.594V78.402H243.692V84ZM247.724 76.374H248.792V75.27H247.724V76.374ZM247.724 84H248.792V77.52H247.724V84ZM250.598 84H251.672V80.748C251.672 80.364 251.724 79.994 251.828 79.638C251.932 79.282 252.142 78.992 252.458 78.768C252.682 78.604 252.928 78.508 253.196 78.48C253.468 78.452 253.716 78.466 253.94 78.522V77.52C253.652 77.456 253.336 77.456 252.992 77.52C252.648 77.584 252.352 77.716 252.104 77.916C251.888 78.068 251.704 78.278 251.552 78.546V77.52H250.598V84ZM257.288 84.174C258.096 84.174 258.73 83.996 259.19 83.64C259.65 83.284 259.88 82.792 259.88 82.164C259.88 81.828 259.81 81.546 259.67 81.318C259.53 81.086 259.294 80.886 258.962 80.718C258.634 80.546 258.184 80.388 257.612 80.244C257.104 80.116 256.716 80.002 256.448 79.902C256.184 79.802 256.002 79.696 255.902 79.584C255.806 79.472 255.758 79.338 255.758 79.182C255.758 78.906 255.888 78.686 256.148 78.522C256.412 78.358 256.754 78.282 257.174 78.294C257.614 78.306 257.976 78.414 258.26 78.618C258.544 78.818 258.712 79.09 258.764 79.434L259.856 79.236C259.788 78.664 259.508 78.206 259.016 77.862C258.528 77.514 257.914 77.34 257.174 77.34C256.426 77.34 255.824 77.514 255.368 77.862C254.912 78.206 254.684 78.664 254.684 79.236C254.684 79.544 254.752 79.806 254.888 80.022C255.028 80.238 255.262 80.428 255.59 80.592C255.922 80.756 256.374 80.914 256.946 81.066C257.474 81.206 257.868 81.328 258.128 81.432C258.392 81.532 258.566 81.638 258.65 81.75C258.734 81.862 258.776 82.01 258.776 82.194C258.776 82.51 258.648 82.76 258.392 82.944C258.14 83.128 257.794 83.22 257.354 83.22C256.886 83.22 256.494 83.118 256.178 82.914C255.862 82.706 255.66 82.426 255.572 82.074L254.48 82.248C254.592 82.856 254.894 83.33 255.386 83.67C255.882 84.006 256.516 84.174 257.288 84.174ZM264.821 84V83.082C264.377 83.15 263.997 83.162 263.681 83.118C263.369 83.074 263.141 82.924 262.997 82.668C262.921 82.532 262.879 82.372 262.871 82.188C262.867 82 262.865 81.772 262.865 81.504V78.402H264.821V77.52H262.865V75.72H261.797V77.52H260.483V78.402H261.797V81.552C261.797 81.888 261.801 82.188 261.809 82.452C261.821 82.712 261.891 82.968 262.019 83.22C262.171 83.512 262.393 83.728 262.685 83.868C262.977 84.004 263.309 84.078 263.681 84.09C264.057 84.106 264.437 84.076 264.821 84ZM271.299 84.18C271.943 84.18 272.497 84.036 272.961 83.748C273.429 83.46 273.789 83.058 274.041 82.542C274.297 82.026 274.425 81.43 274.425 80.754C274.425 80.086 274.299 79.496 274.047 78.984C273.799 78.468 273.441 78.066 272.973 77.778C272.505 77.486 271.947 77.34 271.299 77.34C270.667 77.34 270.117 77.484 269.649 77.772C269.181 78.056 268.819 78.454 268.563 78.966C268.307 79.478 268.179 80.074 268.179 80.754C268.179 81.422 268.303 82.014 268.551 82.53C268.803 83.046 269.163 83.45 269.631 83.742C270.099 84.034 270.655 84.18 271.299 84.18ZM271.299 83.166C270.647 83.166 270.153 82.948 269.817 82.512C269.481 82.072 269.313 81.486 269.313 80.754C269.313 80.046 269.475 79.47 269.799 79.026C270.123 78.578 270.623 78.354 271.299 78.354C271.963 78.354 272.461 78.572 272.793 79.008C273.125 79.444 273.291 80.026 273.291 80.754C273.291 81.466 273.125 82.046 272.793 82.494C272.465 82.942 271.967 83.166 271.299 83.166ZM275.746 84H276.82V80.748C276.82 80.364 276.872 79.994 276.976 79.638C277.08 79.282 277.29 78.992 277.606 78.768C277.83 78.604 278.076 78.508 278.344 78.48C278.616 78.452 278.864 78.466 279.088 78.522V77.52C278.8 77.456 278.484 77.456 278.14 77.52C277.796 77.584 277.5 77.716 277.252 77.916C277.036 78.068 276.852 78.278 276.7 78.546V77.52H275.746V84ZM282.65 84.18C283.09 84.18 283.478 84.1 283.814 83.94C284.154 83.776 284.442 83.552 284.678 83.268V84H285.632V75.36H284.558V78.108C284.326 77.868 284.05 77.68 283.73 77.544C283.41 77.408 283.048 77.34 282.644 77.34C282.044 77.34 281.526 77.49 281.09 77.79C280.658 78.086 280.326 78.492 280.094 79.008C279.862 79.524 279.746 80.106 279.746 80.754C279.746 81.402 279.862 81.984 280.094 82.5C280.326 83.016 280.658 83.426 281.09 83.73C281.526 84.03 282.046 84.18 282.65 84.18ZM282.782 83.202C282.358 83.202 282.004 83.094 281.72 82.878C281.44 82.662 281.23 82.37 281.09 82.002C280.95 81.63 280.88 81.214 280.88 80.754C280.88 80.298 280.948 79.886 281.084 79.518C281.224 79.15 281.436 78.858 281.72 78.642C282.008 78.426 282.372 78.318 282.812 78.318C283.444 78.318 283.912 78.546 284.216 79.002C284.524 79.454 284.678 80.038 284.678 80.754C284.678 81.466 284.526 82.052 284.222 82.512C283.918 82.972 283.438 83.202 282.782 83.202ZM290.121 84.18C290.749 84.18 291.315 84.024 291.819 83.712C292.323 83.396 292.703 82.952 292.959 82.38L291.933 82.026C291.561 82.786 290.941 83.166 290.073 83.166C289.477 83.166 289.009 82.984 288.669 82.62C288.333 82.252 288.143 81.732 288.099 81.06H293.067C293.099 80.292 292.999 79.63 292.767 79.074C292.539 78.518 292.195 78.09 291.735 77.79C291.279 77.49 290.725 77.34 290.073 77.34C289.445 77.34 288.897 77.482 288.429 77.766C287.961 78.046 287.597 78.446 287.337 78.966C287.081 79.482 286.953 80.094 286.953 80.802C286.953 81.478 287.083 82.07 287.343 82.578C287.607 83.082 287.977 83.476 288.453 83.76C288.929 84.04 289.485 84.18 290.121 84.18ZM290.109 78.3C291.209 78.3 291.825 78.934 291.957 80.202H288.117C288.193 79.586 288.399 79.116 288.735 78.792C289.071 78.464 289.529 78.3 290.109 78.3ZM294.403 84H295.477V80.748C295.477 80.364 295.529 79.994 295.633 79.638C295.737 79.282 295.947 78.992 296.263 78.768C296.487 78.604 296.733 78.508 297.001 78.48C297.273 78.452 297.521 78.466 297.745 78.522V77.52C297.457 77.456 297.141 77.456 296.797 77.52C296.453 77.584 296.157 77.716 295.909 77.916C295.693 78.068 295.509 78.278 295.357 78.546V77.52H294.403V84ZM29.6 100.18C30.244 100.18 30.798 100.036 31.262 99.748C31.73 99.46 32.09 99.058 32.342 98.542C32.598 98.026 32.726 97.43 32.726 96.754C32.726 96.086 32.6 95.496 32.348 94.984C32.1 94.468 31.742 94.066 31.274 93.778C30.806 93.486 30.248 93.34 29.6 93.34C28.968 93.34 28.418 93.484 27.95 93.772C27.482 94.056 27.12 94.454 26.864 94.966C26.608 95.478 26.48 96.074 26.48 96.754C26.48 97.422 26.604 98.014 26.852 98.53C27.104 99.046 27.464 99.45 27.932 99.742C28.4 100.034 28.956 100.18 29.6 100.18ZM29.6 99.166C28.948 99.166 28.454 98.948 28.118 98.512C27.782 98.072 27.614 97.486 27.614 96.754C27.614 96.046 27.776 95.47 28.1 95.026C28.424 94.578 28.924 94.354 29.6 94.354C30.264 94.354 30.762 94.572 31.094 95.008C31.426 95.444 31.592 96.026 31.592 96.754C31.592 97.466 31.426 98.046 31.094 98.494C30.766 98.942 30.268 99.166 29.6 99.166ZM34.041 100H35.121V96.586C35.121 95.834 35.283 95.276 35.607 94.912C35.935 94.548 36.367 94.366 36.903 94.366C37.359 94.366 37.715 94.48 37.971 94.708C38.227 94.936 38.405 95.232 38.505 95.596C38.609 95.96 38.661 96.346 38.661 96.754V100H39.741V96.418C39.741 96.11 39.703 95.78 39.627 95.428C39.555 95.072 39.423 94.738 39.231 94.426C39.043 94.11 38.781 93.852 38.445 93.652C38.113 93.452 37.685 93.352 37.161 93.352C36.217 93.352 35.497 93.686 35.001 94.354V93.52H34.041V100ZM46.2473 100.18C46.6873 100.18 47.0753 100.1 47.4113 99.94C47.7513 99.776 48.0393 99.552 48.2753 99.268V100H49.2293V91.36H48.1553V94.108C47.9233 93.868 47.6473 93.68 47.3273 93.544C47.0073 93.408 46.6453 93.34 46.2413 93.34C45.6413 93.34 45.1233 93.49 44.6873 93.79C44.2553 94.086 43.9233 94.492 43.6913 95.008C43.4593 95.524 43.3433 96.106 43.3433 96.754C43.3433 97.402 43.4593 97.984 43.6913 98.5C43.9233 99.016 44.2553 99.426 44.6873 99.73C45.1233 100.03 45.6433 100.18 46.2473 100.18ZM46.3793 99.202C45.9553 99.202 45.6013 99.094 45.3173 98.878C45.0373 98.662 44.8273 98.37 44.6873 98.002C44.5473 97.63 44.4773 97.214 44.4773 96.754C44.4773 96.298 44.5453 95.886 44.6813 95.518C44.8213 95.15 45.0333 94.858 45.3173 94.642C45.6053 94.426 45.9693 94.318 46.4093 94.318C47.0413 94.318 47.5093 94.546 47.8133 95.002C48.1213 95.454 48.2753 96.038 48.2753 96.754C48.2753 97.466 48.1233 98.052 47.8193 98.512C47.5153 98.972 47.0353 99.202 46.3793 99.202ZM53.7183 100.18C54.3463 100.18 54.9123 100.024 55.4163 99.712C55.9203 99.396 56.3003 98.952 56.5563 98.38L55.5303 98.026C55.1583 98.786 54.5383 99.166 53.6703 99.166C53.0743 99.166 52.6063 98.984 52.2663 98.62C51.9303 98.252 51.7403 97.732 51.6963 97.06H56.6643C56.6963 96.292 56.5963 95.63 56.3643 95.074C56.1363 94.518 55.7923 94.09 55.3323 93.79C54.8763 93.49 54.3223 93.34 53.6703 93.34C53.0423 93.34 52.4943 93.482 52.0263 93.766C51.5583 94.046 51.1943 94.446 50.9343 94.966C50.6783 95.482 50.5503 96.094 50.5503 96.802C50.5503 97.478 50.6803 98.07 50.9403 98.578C51.2043 99.082 51.5743 99.476 52.0503 99.76C52.5263 100.04 53.0823 100.18 53.7183 100.18ZM53.7063 94.3C54.8063 94.3 55.4223 94.934 55.5543 96.202H51.7143C51.7903 95.586 51.9963 95.116 52.3323 94.792C52.6683 94.464 53.1263 94.3 53.7063 94.3ZM57.8184 100H58.8924V95.884C58.8924 95.408 59.0204 95.026 59.2764 94.738C59.5364 94.45 59.8784 94.306 60.3024 94.306C60.7264 94.306 61.0664 94.448 61.3224 94.732C61.5784 95.016 61.7064 95.404 61.7064 95.896L61.7004 100H62.7624L62.7684 95.884C62.7684 95.52 62.8364 95.222 62.9724 94.99C63.1084 94.758 63.2844 94.586 63.5004 94.474C63.7164 94.362 63.9444 94.306 64.1844 94.306C64.5924 94.306 64.9264 94.444 65.1864 94.72C65.4464 94.992 65.5764 95.37 65.5764 95.854L65.5704 100H66.6384L66.6444 95.62C66.6444 94.928 66.4504 94.378 66.0624 93.97C65.6744 93.558 65.1424 93.352 64.4664 93.352C64.0384 93.352 63.6524 93.448 63.3084 93.64C62.9644 93.828 62.6964 94.088 62.5044 94.42C62.3284 94.08 62.0784 93.818 61.7544 93.634C61.4304 93.446 61.0504 93.352 60.6144 93.352C60.2264 93.352 59.8724 93.43 59.5524 93.586C59.2364 93.738 58.9764 93.946 58.7724 94.21V93.52H57.8184V100ZM70.0492 100.18C71.1292 100.18 71.9292 99.784 72.4492 98.992V100H73.3972V95.992C73.3972 95.736 73.3852 95.492 73.3612 95.26C73.3372 95.024 73.2792 94.806 73.1872 94.606C73.0032 94.182 72.6992 93.866 72.2752 93.658C71.8512 93.446 71.3472 93.34 70.7632 93.34C70.0312 93.34 69.4392 93.502 68.9872 93.826C68.5392 94.15 68.2392 94.596 68.0872 95.164L69.1012 95.47C69.2172 95.074 69.4232 94.786 69.7192 94.606C70.0152 94.426 70.3592 94.336 70.7512 94.336C71.3112 94.336 71.7132 94.462 71.9572 94.714C72.2052 94.962 72.3352 95.344 72.3472 95.86C71.8672 95.928 71.3632 96 70.8352 96.076C70.3112 96.148 69.8452 96.238 69.4372 96.346C68.9452 96.49 68.5572 96.716 68.2732 97.024C67.9892 97.328 67.8472 97.736 67.8472 98.248C67.8472 98.596 67.9292 98.916 68.0932 99.208C68.2612 99.5 68.5072 99.736 68.8312 99.916C69.1592 100.092 69.5652 100.18 70.0492 100.18ZM70.2112 99.286C69.7512 99.286 69.4192 99.18 69.2152 98.968C69.0112 98.752 68.9092 98.51 68.9092 98.242C68.9092 97.938 69.0092 97.706 69.2092 97.546C69.4132 97.382 69.6492 97.258 69.9172 97.174C70.2332 97.086 70.6012 97.012 71.0212 96.952C71.4412 96.892 71.8792 96.832 72.3352 96.772C72.3352 96.92 72.3272 97.088 72.3112 97.276C72.2992 97.464 72.2712 97.636 72.2272 97.792C72.1512 98.192 71.9392 98.542 71.5912 98.842C71.2472 99.138 70.7872 99.286 70.2112 99.286ZM74.9512 100H76.0312V96.586C76.0312 95.834 76.1932 95.276 76.5172 94.912C76.8452 94.548 77.2772 94.366 77.8132 94.366C78.2692 94.366 78.6252 94.48 78.8812 94.708C79.1372 94.936 79.3152 95.232 79.4152 95.596C79.5192 95.96 79.5712 96.346 79.5712 96.754V100H80.6512V96.418C80.6512 96.11 80.6132 95.78 80.5372 95.428C80.4652 95.072 80.3332 94.738 80.1412 94.426C79.9532 94.11 79.6912 93.852 79.3552 93.652C79.0232 93.452 78.5952 93.352 78.0712 93.352C77.1272 93.352 76.4072 93.686 75.9112 94.354V93.52H74.9512V100ZM84.6965 100.18C85.1365 100.18 85.5245 100.1 85.8605 99.94C86.2005 99.776 86.4885 99.552 86.7245 99.268V100H87.6785V91.36H86.6045V94.108C86.3725 93.868 86.0965 93.68 85.7765 93.544C85.4565 93.408 85.0945 93.34 84.6905 93.34C84.0905 93.34 83.5725 93.49 83.1365 93.79C82.7045 94.086 82.3725 94.492 82.1405 95.008C81.9085 95.524 81.7925 96.106 81.7925 96.754C81.7925 97.402 81.9085 97.984 82.1405 98.5C82.3725 99.016 82.7045 99.426 83.1365 99.73C83.5725 100.03 84.0925 100.18 84.6965 100.18ZM84.8285 99.202C84.4045 99.202 84.0505 99.094 83.7665 98.878C83.4865 98.662 83.2765 98.37 83.1365 98.002C82.9965 97.63 82.9265 97.214 82.9265 96.754C82.9265 96.298 82.9945 95.886 83.1305 95.518C83.2705 95.15 83.4825 94.858 83.7665 94.642C84.0545 94.426 84.4185 94.318 84.8585 94.318C85.4905 94.318 85.9585 94.546 86.2625 95.002C86.5705 95.454 86.7245 96.038 86.7245 96.754C86.7245 97.466 86.5725 98.052 86.2685 98.512C85.9645 98.972 85.4845 99.202 84.8285 99.202Z" fill="black"/>
</g>
<defs>
<clipPath id="clip0">
<rect width="356" height="180" rx="12" fill="white"/>
</clipPath>
</defs>
</svg>
