<svg width="48" height="48" viewBox="0 0 48 48" fill="none" xmlns="http://www.w3.org/2000/svg">
<rect width="48" height="48" rx="8" fill="#FFDEE5"/>
<path d="M37.5932 31.4961L26.5971 12.4961C26.3333 12.0411 25.9546 11.6634 25.4989 11.4008C25.0431 11.1382 24.5264 11 24.0005 11C23.4745 11 22.9578 11.1382 22.502 11.4008C22.0463 11.6634 21.6676 12.0411 21.4038 12.4961V12.4971L10.4077 31.4961C10.1437 31.952 10.0044 32.4695 10.0039 32.9963C10.0034 33.5232 10.1417 34.0409 10.4048 34.4974C10.6679 34.9538 11.0466 35.3329 11.5028 35.5965C11.959 35.8602 12.4765 35.999 13.0034 35.999H34.9975C35.5244 35.999 36.042 35.8602 36.4981 35.5965C36.9543 35.3329 37.333 34.9538 37.5961 34.4974C37.8593 34.0409 37.9975 33.5232 37.997 32.9963C37.9965 32.4695 37.8572 31.952 37.5932 31.4961V31.4961ZM22.9995 21C22.9995 20.7348 23.1048 20.4804 23.2924 20.2929C23.4799 20.1054 23.7343 20 23.9995 20C24.2647 20 24.5191 20.1054 24.7066 20.2929C24.8941 20.4804 24.9995 20.7348 24.9995 21V26C24.9995 26.2652 24.8941 26.5196 24.7066 26.7071C24.5191 26.8946 24.2647 27 23.9995 27C23.7343 27 23.4799 26.8946 23.2924 26.7071C23.1048 26.5196 22.9995 26.2652 22.9995 26V21ZM24.0002 32.0004C23.7035 32.0004 23.4135 31.9124 23.1669 31.7476C22.9202 31.5827 22.7279 31.3485 22.6144 31.0744C22.5009 30.8003 22.4712 30.4987 22.529 30.2077C22.5869 29.9168 22.7298 29.6495 22.9396 29.4397C23.1493 29.2299 23.4166 29.0871 23.7076 29.0292C23.9986 28.9713 24.3002 29.001 24.5742 29.1145C24.8483 29.2281 25.0826 29.4203 25.2474 29.667C25.4122 29.9137 25.5002 30.2037 25.5002 30.5004C25.5002 30.8982 25.3422 31.2797 25.0609 31.561C24.7796 31.8423 24.398 32.0003 24.0002 32.0004V32.0004Z" fill="#EE7246"/>
</svg>
