<svg width="24" height="24" viewBox="0 0 24 24" fill="none" xmlns="http://www.w3.org/2000/svg">
<path d="M20.8671 13.8601L19.6319 12.2134C19.6338 12.0679 19.6323 11.9127 19.6301 11.7888L20.8666 10.1404C20.9271 10.0597 20.9684 9.96628 20.9875 9.86725C21.0065 9.76821 21.0028 9.66614 20.9765 9.56877C20.7692 8.80045 20.4636 8.06209 20.0673 7.37195C20.0171 7.28446 19.9476 7.20958 19.864 7.15298C19.7805 7.09638 19.6852 7.05955 19.5853 7.04529L17.5523 6.75496C17.4528 6.64964 17.3503 6.54715 17.2449 6.44748L16.9546 4.4154C16.9404 4.31556 16.9036 4.22029 16.847 4.1368C16.7904 4.0533 16.7156 3.98379 16.6282 3.93353C15.9383 3.53685 15.2001 3.23082 14.432 3.02301C14.3346 2.99668 14.2325 2.99289 14.1334 3.01192C14.0343 3.03095 13.9408 3.0723 13.8601 3.13283L12.2173 4.3651C12.0725 4.36109 11.9273 4.36109 11.7825 4.3651L10.1404 3.13344C10.0597 3.07294 9.96631 3.0316 9.86727 3.01256C9.76823 2.99352 9.66615 2.99728 9.56878 3.02354C8.80046 3.23085 8.06209 3.53641 7.37195 3.93264C7.28447 3.98291 7.20958 4.05244 7.15298 4.13596C7.09637 4.21948 7.05953 4.3148 7.04526 4.41468L6.75497 6.44761C6.64969 6.54713 6.5472 6.64964 6.44749 6.75513L4.41541 7.04534C4.31557 7.0596 4.2203 7.0964 4.1368 7.15297C4.05331 7.20953 3.9838 7.28436 3.93353 7.37179C3.53685 8.06168 3.23082 8.79986 3.02302 9.56805C2.99668 9.66545 2.99289 9.76756 3.01193 9.86665C3.03096 9.96573 3.07232 10.0592 3.13287 10.1399L4.36806 11.7866C4.3662 11.9321 4.3677 12.0873 4.36985 12.2112L3.13344 13.8596C3.07293 13.9403 3.03158 14.0337 3.01253 14.1327C2.99348 14.2318 2.99724 14.3338 3.0235 14.4312C3.23083 15.1995 3.5364 15.9379 3.93264 16.628C3.9829 16.7155 4.05243 16.7904 4.13596 16.847C4.21948 16.9036 4.3148 16.9404 4.41468 16.9547L6.44765 17.245C6.54717 17.3503 6.64965 17.4528 6.75509 17.5525L7.04534 19.5846C7.05961 19.6844 7.09642 19.7797 7.15299 19.8632C7.20956 19.9467 7.2844 20.0162 7.37183 20.0665C8.06169 20.4631 8.79984 20.7692 9.56801 20.977C9.66541 21.0033 9.76753 21.0071 9.86662 20.9881C9.96571 20.9691 10.0592 20.9277 10.1399 20.8672L11.7827 19.6349C11.9275 19.639 12.0727 19.639 12.2175 19.6349L13.8596 20.8665C13.9403 20.9271 14.0337 20.9684 14.1327 20.9875C14.2318 21.0065 14.3338 21.0027 14.4312 20.9764C15.1995 20.7691 15.9379 20.4636 16.628 20.0673C16.7155 20.0171 16.7904 19.9476 16.847 19.864C16.9036 19.7805 16.9405 19.6852 16.9547 19.5853L17.2457 17.5475C17.3499 17.4459 17.4585 17.3351 17.5446 17.246L19.5846 16.9546C19.6844 16.9404 19.7797 16.9036 19.8632 16.847C19.9467 16.7905 20.0162 16.7156 20.0665 16.6282C20.4631 15.9383 20.7692 15.2001 20.977 14.4319C21.0033 14.3345 21.0071 14.2324 20.9881 14.1333C20.969 14.0343 20.9277 13.9408 20.8671 13.8601ZM12 15.6529C11.2775 15.6529 10.5712 15.4387 9.97049 15.0373C9.36976 14.6359 8.90156 14.0654 8.62507 13.3979C8.34859 12.7304 8.27625 11.9959 8.4172 11.2873C8.55815 10.5787 8.90606 9.92781 9.41693 9.41693C9.92781 8.90606 10.5787 8.55815 11.2873 8.4172C11.9959 8.27625 12.7304 8.34859 13.3979 8.62507C14.0654 8.90156 14.6359 9.36976 15.0373 9.97049C15.4387 10.5712 15.6529 11.2775 15.6529 12C15.6518 12.9684 15.2666 13.8969 14.5818 14.5818C13.8969 15.2666 12.9684 15.6518 12 15.6529Z" fill="white"/>
</svg>
