<svg width="24" height="24" viewBox="0 0 24 24" fill="none" xmlns="http://www.w3.org/2000/svg">
<path d="M21.2461 5.5H6.9375L6.62109 3.95312C6.55078 3.56641 6.19922 3.25 5.8125 3.25H2.29688C2.05078 3.25 1.875 3.46094 1.875 3.67188V4.51562C1.875 4.76172 2.05078 4.9375 2.29688 4.9375H5.10938L7.53516 17.4531C7.14844 17.875 6.9375 18.4023 6.9375 19C6.9375 20.2656 7.92188 21.25 9.1875 21.25C10.418 21.25 11.4375 20.2656 11.4375 19C11.4375 18.6836 11.2969 18.1914 11.1211 17.875H16.2188C16.043 18.1914 15.9375 18.6836 15.9375 19C15.9375 20.2656 16.9219 21.25 18.1875 21.25C19.418 21.25 20.4375 20.2656 20.4375 19C20.4375 18.3672 20.1562 17.8047 19.7344 17.3828L19.7695 17.2422C19.875 16.7148 19.4883 16.1875 18.9258 16.1875H9.01172L8.69531 14.5H19.6641C20.0859 14.5 20.4023 14.2539 20.5078 13.8672L22.0898 6.55469C22.1953 6.02734 21.8086 5.5 21.2461 5.5ZM9.1875 19.8438C8.69531 19.8438 8.34375 19.4922 8.34375 19C8.34375 18.543 8.69531 18.1562 9.1875 18.1562C9.64453 18.1562 10.0312 18.543 10.0312 19C10.0312 19.4922 9.64453 19.8438 9.1875 19.8438ZM18.1875 19.8438C17.6953 19.8438 17.3438 19.4922 17.3438 19C17.3438 18.543 17.6953 18.1562 18.1875 18.1562C18.6445 18.1562 19.0312 18.543 19.0312 19C19.0312 19.4922 18.6445 19.8438 18.1875 19.8438ZM18.9961 12.8125H8.34375L7.25391 7.1875H20.2266L18.9961 12.8125Z" fill="#292B32"/>
</svg>
