<svg width="32" height="32" viewBox="0 0 32 32" fill="none" xmlns="http://www.w3.org/2000/svg">
<rect width="32" height="32" rx="12" fill="#172327"/>
<path d="M15.9992 6.5498C14.0307 6.55214 12.1435 7.33516 10.7515 8.72712C9.35958 10.1191 8.57655 12.0063 8.57422 13.9748C8.57422 20.328 15.3242 25.1268 15.6116 25.3279C15.7253 25.4072 15.8606 25.4498 15.9992 25.4498C16.1379 25.4498 16.2732 25.4072 16.3868 25.3279C16.6742 25.1268 23.4242 20.328 23.4242 13.9748C23.4219 12.0063 22.6389 10.1191 21.2469 8.72712C19.855 7.33516 17.9677 6.55214 15.9992 6.5498ZM15.9997 11.275C16.5337 11.275 17.0557 11.4334 17.4998 11.7301C17.9438 12.0268 18.2898 12.4484 18.4942 12.9418C18.6985 13.4352 18.752 13.978 18.6478 14.5018C18.5437 15.0255 18.2865 15.5066 17.9089 15.8842C17.5313 16.2618 17.0502 16.519 16.5265 16.6232C16.0027 16.7273 15.4598 16.6739 14.9665 16.4695C14.4731 16.2652 14.0514 15.9191 13.7547 15.4751C13.4581 15.0311 13.2997 14.5091 13.2997 13.975C13.2997 13.6205 13.3695 13.2694 13.5052 12.9418C13.6409 12.6142 13.8398 12.3166 14.0905 12.0658C14.3412 11.8151 14.6389 11.6162 14.9665 11.4806C15.294 11.3449 15.6451 11.275 15.9997 11.275Z" fill="#F4EEEB"/>
</svg>
