<svg width="102" height="18" viewBox="0 0 102 18" fill="none" xmlns="http://www.w3.org/2000/svg">
<path d="M60.743 15H63.753C64.3896 15 64.903 14.82 65.293 14.46C65.683 14.0967 65.878 13.6033 65.878 12.98C65.878 12.5633 65.7713 12.2 65.558 11.89C65.348 11.58 65.0563 11.3433 64.683 11.18C64.943 11.03 65.148 10.8217 65.298 10.555C65.4513 10.285 65.528 9.985 65.528 9.655C65.528 9.315 65.4446 9.005 65.278 8.725C65.1113 8.44167 64.878 8.21667 64.578 8.05C64.278 7.88333 63.9263 7.8 63.523 7.8H60.743V15ZM61.483 10.87V8.495H63.518C63.8813 8.495 64.1796 8.60167 64.413 8.815C64.6496 9.02833 64.768 9.305 64.768 9.645C64.768 10.005 64.6463 10.3 64.403 10.53C64.1596 10.7567 63.8646 10.87 63.518 10.87H61.483ZM61.483 14.295V11.565H63.708C63.978 11.565 64.2196 11.6283 64.433 11.755C64.6463 11.8817 64.813 12.0533 64.933 12.27C65.0563 12.4833 65.118 12.7233 65.118 12.99C65.118 13.4 64.9696 13.72 64.673 13.95C64.3763 14.18 64.0096 14.295 63.573 14.295H61.483ZM68.9408 15.135C69.3274 15.135 69.6758 15.0617 69.9858 14.915C70.2991 14.765 70.5558 14.5433 70.7558 14.25V15H71.4158V9.6H70.6808V12.48C70.6808 13.09 70.5441 13.5683 70.2708 13.915C69.9974 14.2617 69.6008 14.435 69.0808 14.435C68.7041 14.435 68.4008 14.345 68.1708 14.165C67.9408 13.9817 67.7741 13.7333 67.6708 13.42C67.5674 13.1067 67.5158 12.7517 67.5158 12.355V9.6H66.7758V12.57C66.7758 12.8733 66.8124 13.1767 66.8858 13.48C66.9624 13.7833 67.0841 14.06 67.2508 14.31C67.4174 14.56 67.6391 14.76 67.9158 14.91C68.1958 15.06 68.5374 15.135 68.9408 15.135ZM74.8283 15.145C75.4916 15.145 76.0116 15 76.3883 14.71C76.7683 14.4167 76.9583 14.015 76.9583 13.505C76.9583 13.225 76.8983 12.99 76.7783 12.8C76.6616 12.61 76.4599 12.445 76.1733 12.305C75.8899 12.165 75.4999 12.0317 75.0033 11.905C74.5799 11.7983 74.2533 11.7 74.0233 11.61C73.7966 11.52 73.6399 11.425 73.5533 11.325C73.4666 11.2217 73.4233 11.0983 73.4233 10.955C73.4233 10.6983 73.5433 10.4933 73.7833 10.34C74.0233 10.1867 74.3349 10.1133 74.7183 10.12C75.1249 10.1267 75.4599 10.2233 75.7233 10.41C75.9866 10.5933 76.1449 10.8433 76.1983 11.16L76.9483 11.025C76.9116 10.7117 76.7949 10.4367 76.5983 10.2C76.4016 9.96333 76.1416 9.78 75.8183 9.65C75.4983 9.51667 75.1349 9.45 74.7283 9.45C74.3216 9.45 73.9633 9.515 73.6533 9.645C73.3466 9.77167 73.1066 9.95167 72.9333 10.185C72.7633 10.415 72.6783 10.6833 72.6783 10.99C72.6783 11.24 72.7349 11.4533 72.8483 11.63C72.9649 11.8033 73.1633 11.9583 73.4433 12.095C73.7233 12.2283 74.1066 12.3617 74.5933 12.495C75.0499 12.6183 75.3916 12.725 75.6183 12.815C75.8483 12.905 76.0016 13.0033 76.0783 13.11C76.1549 13.2133 76.1933 13.3483 76.1933 13.515C76.1933 13.8083 76.0749 14.0417 75.8383 14.215C75.6016 14.3883 75.2783 14.475 74.8683 14.475C74.4483 14.475 74.0949 14.385 73.8083 14.205C73.5216 14.0217 73.3399 13.7767 73.2633 13.47L72.5133 13.595C72.6066 14.0817 72.8566 14.4617 73.2633 14.735C73.6733 15.0083 74.1949 15.145 74.8283 15.145ZM78.1672 8.575H78.9022V7.75H78.1672V8.575ZM78.1672 15H78.9022V9.6H78.1672V15ZM80.3962 15H81.1362V12.12C81.1362 11.51 81.2728 11.0317 81.5462 10.685C81.8195 10.3383 82.2162 10.165 82.7362 10.165C83.1128 10.165 83.4162 10.2567 83.6462 10.44C83.8762 10.62 84.0428 10.8667 84.1462 11.18C84.2495 11.4933 84.3012 11.8483 84.3012 12.245V15H85.0412V12.03C85.0412 11.7267 85.0028 11.4233 84.9262 11.12C84.8528 10.8167 84.7328 10.54 84.5662 10.29C84.3995 10.04 84.1778 9.84 83.9012 9.69C83.6245 9.54 83.2828 9.465 82.8762 9.465C82.4895 9.465 82.1395 9.54 81.8262 9.69C81.5162 9.83667 81.2612 10.0567 81.0612 10.35V9.6H80.3962V15ZM88.5846 15.15C89.1079 15.15 89.5763 15.0217 89.9896 14.765C90.4063 14.5083 90.7213 14.1433 90.9346 13.67L90.2496 13.405C89.9063 14.0983 89.3413 14.445 88.5546 14.445C88.0146 14.445 87.5913 14.2767 87.2846 13.94C86.9813 13.6033 86.8146 13.125 86.7846 12.505H91.0396C91.0663 11.5517 90.8579 10.805 90.4146 10.265C89.9746 9.72167 89.3546 9.45 88.5546 9.45C88.0346 9.45 87.5829 9.56667 87.1996 9.8C86.8196 10.0333 86.5246 10.365 86.3146 10.795C86.1046 11.225 85.9996 11.735 85.9996 12.325C85.9996 12.895 86.1046 13.3917 86.3146 13.815C86.5279 14.2383 86.8279 14.5667 87.2146 14.8C87.6046 15.0333 88.0613 15.15 88.5846 15.15ZM88.5746 10.125C89.5913 10.125 90.1563 10.7133 90.2696 11.89H86.7996C86.8563 11.32 87.0363 10.8833 87.3396 10.58C87.6429 10.2767 88.0546 10.125 88.5746 10.125ZM94.1642 15.145C94.8276 15.145 95.3476 15 95.7242 14.71C96.1042 14.4167 96.2942 14.015 96.2942 13.505C96.2942 13.225 96.2342 12.99 96.1142 12.8C95.9976 12.61 95.7959 12.445 95.5092 12.305C95.2259 12.165 94.8359 12.0317 94.3392 11.905C93.9159 11.7983 93.5892 11.7 93.3592 11.61C93.1326 11.52 92.9759 11.425 92.8892 11.325C92.8026 11.2217 92.7592 11.0983 92.7592 10.955C92.7592 10.6983 92.8792 10.4933 93.1192 10.34C93.3592 10.1867 93.6709 10.1133 94.0542 10.12C94.4609 10.1267 94.7959 10.2233 95.0592 10.41C95.3226 10.5933 95.4809 10.8433 95.5342 11.16L96.2842 11.025C96.2476 10.7117 96.1309 10.4367 95.9342 10.2C95.7376 9.96333 95.4776 9.78 95.1542 9.65C94.8342 9.51667 94.4709 9.45 94.0642 9.45C93.6576 9.45 93.2992 9.515 92.9892 9.645C92.6826 9.77167 92.4426 9.95167 92.2692 10.185C92.0992 10.415 92.0142 10.6833 92.0142 10.99C92.0142 11.24 92.0709 11.4533 92.1842 11.63C92.3009 11.8033 92.4992 11.9583 92.7792 12.095C93.0592 12.2283 93.4426 12.3617 93.9292 12.495C94.3859 12.6183 94.7276 12.725 94.9542 12.815C95.1842 12.905 95.3376 13.0033 95.4142 13.11C95.4909 13.2133 95.5292 13.3483 95.5292 13.515C95.5292 13.8083 95.4109 14.0417 95.1742 14.215C94.9376 14.3883 94.6142 14.475 94.2042 14.475C93.7842 14.475 93.4309 14.385 93.1442 14.205C92.8576 14.0217 92.6759 13.7767 92.5992 13.47L91.8492 13.595C91.9426 14.0817 92.1926 14.4617 92.5992 14.735C93.0092 15.0083 93.5309 15.145 94.1642 15.145ZM99.4181 15.145C100.081 15.145 100.601 15 100.978 14.71C101.358 14.4167 101.548 14.015 101.548 13.505C101.548 13.225 101.488 12.99 101.368 12.8C101.251 12.61 101.05 12.445 100.763 12.305C100.48 12.165 100.09 12.0317 99.5931 11.905C99.1698 11.7983 98.8431 11.7 98.6131 11.61C98.3865 11.52 98.2298 11.425 98.1431 11.325C98.0565 11.2217 98.0131 11.0983 98.0131 10.955C98.0131 10.6983 98.1331 10.4933 98.3731 10.34C98.6131 10.1867 98.9248 10.1133 99.3081 10.12C99.7148 10.1267 100.05 10.2233 100.313 10.41C100.576 10.5933 100.735 10.8433 100.788 11.16L101.538 11.025C101.501 10.7117 101.385 10.4367 101.188 10.2C100.991 9.96333 100.731 9.78 100.408 9.65C100.088 9.51667 99.7248 9.45 99.3181 9.45C98.9115 9.45 98.5531 9.515 98.2431 9.645C97.9365 9.77167 97.6965 9.95167 97.5231 10.185C97.3531 10.415 97.2681 10.6833 97.2681 10.99C97.2681 11.24 97.3248 11.4533 97.4381 11.63C97.5548 11.8033 97.7531 11.9583 98.0331 12.095C98.3131 12.2283 98.6965 12.3617 99.1831 12.495C99.6398 12.6183 99.9815 12.725 100.208 12.815C100.438 12.905 100.591 13.0033 100.668 13.11C100.745 13.2133 100.783 13.3483 100.783 13.515C100.783 13.8083 100.665 14.0417 100.428 14.215C100.191 14.3883 99.8681 14.475 99.4581 14.475C99.0381 14.475 98.6848 14.385 98.3981 14.205C98.1115 14.0217 97.9298 13.7767 97.8531 13.47L97.1031 13.595C97.1965 14.0817 97.4465 14.4617 97.8531 14.735C98.2631 15.0083 98.7848 15.145 99.4181 15.145Z" fill="black"/>
<g clip-path="url(#clip0)">
<path d="M52.6519 14.733C54.8674 14.733 56.6634 12.937 56.6634 10.7215C56.6634 8.50598 54.8674 6.70996 52.6519 6.70996C50.4364 6.70996 48.6404 8.50598 48.6404 10.7215C48.6404 12.937 50.4364 14.733 52.6519 14.733Z" stroke="#172327" stroke-width="2.40761" stroke-miterlimit="10"/>
<path d="M12.9773 1.02686V14.2916L12.0346 14.3184L7.41462 3.74801C7.19867 3.23856 6.83755 2.80395 6.37623 2.49839C5.91492 2.19283 5.37383 2.02984 4.82049 2.02974C4.07397 2.02974 3.35802 2.32629 2.83015 2.85416C2.30229 3.38203 2.00576 4.09797 2.00576 4.84449V12.7271C2.00576 13.2361 2.20791 13.7241 2.56776 14.084C2.92762 14.4438 3.4157 14.646 3.92461 14.646V14.646C4.20673 14.6454 4.48524 14.5828 4.74043 14.4625C4.99562 14.3422 5.22123 14.1671 5.40118 13.9499C5.58113 13.7326 5.71109 13.4783 5.78175 13.2052C5.85241 12.9321 5.862 12.6467 5.80999 12.3694C5.34866 9.81878 3.98813 6.03458 0 6.03458" stroke="#172327" stroke-width="2.10666" stroke-miterlimit="10"/>
<path d="M20.7264 14.6529C22.9419 14.6529 24.7379 12.8569 24.7379 10.6414C24.7379 8.4259 22.9419 6.62988 20.7264 6.62988C18.5109 6.62988 16.7148 8.4259 16.7148 10.6414C16.7148 12.8569 18.5109 14.6529 20.7264 14.6529Z" stroke="#172327" stroke-width="2.40761" stroke-miterlimit="10"/>
<path d="M28.8936 1.76938V14.3188H29.5621V9.47151L32.5708 3.25365C32.7876 2.80869 33.125 2.4336 33.5447 2.17116C33.9644 1.90873 34.4493 1.76951 34.9443 1.76938V1.76938C35.5235 1.76948 36.0866 1.95997 36.5469 2.31153C37.0072 2.66309 37.3391 3.15622 37.4916 3.71497L39.7715 12.0723C39.8538 12.374 39.8654 12.6905 39.8054 12.9973C39.7453 13.3042 39.6153 13.593 39.4254 13.8415C39.2356 14.0899 38.991 14.2911 38.7107 14.4296C38.4303 14.568 38.1219 14.6399 37.8092 14.6397V14.6397C37.4755 14.6389 37.147 14.556 36.8528 14.3984C36.5586 14.2408 36.3077 14.0133 36.1221 13.7359C35.9365 13.4585 35.8219 13.1398 35.7885 12.8077C35.7551 12.4756 35.8039 12.1404 35.9305 11.8316L39.3904 3.43417C39.5955 2.93905 39.9429 2.51594 40.3887 2.21839C40.8344 1.92085 41.3584 1.76225 41.8943 1.7627V1.7627C42.6127 1.7627 43.3018 2.04787 43.8101 2.55558C44.3185 3.0633 44.6045 3.75202 44.6054 4.47048V15.315" stroke="#172327" stroke-width="2.10666" stroke-miterlimit="10"/>
</g>
<defs>
<clipPath id="clip0">
<rect width="58" height="15.4711" fill="white" transform="translate(0 0.599121)"/>
</clipPath>
</defs>
</svg>
