<svg xmlns="http://www.w3.org/2000/svg" viewBox="0 0 362.68 362.68"><defs><style>.cls-1{fill:#fff;}.cls-2{fill:#3f4678;}.cls-3{fill:#231f20;}.cls-4{fill:#fcdde4;}.cls-5{fill:#172327;}.cls-6{fill:#393e42;}.cls-7{fill:#83bc41;}.cls-8{fill:#92c15b;}</style></defs><g id="Layer_2" data-name="Layer 2"><g id="Layer_1-2" data-name="Layer 1"><path class="cls-1" d="M362.68.87q0,86.42,0,172.82a12.07,12.07,0,0,1-.33-3.49,179.76,179.76,0,0,0-26-83,4.5,4.5,0,0,0-.28-.37c-.17-.3-.32-.61-.5-.9a181.16,181.16,0,0,0-72.06-66.27,151.44,151.44,0,0,0-15.72-7,6.54,6.54,0,0,0-.6-.28A177.33,177.33,0,0,0,223.6,5,167.86,167.86,0,0,0,198.8.88a26.7,26.7,0,0,0-4-.3c-1.89-.3-3.79-.27-5.69-.4-.42,0-.87.11-1.27-.16q87,0,174,0C362.52,0,362.68.16,362.68.87Z"/><path class="cls-1" d="M362.66,189.17q0,86.33,0,172.64c0,.71-.16.87-.87.87l-180.28,0v-.19c1.56,0,3.13,0,4.69-.05,2.82-.13,5.64-.23,8.45-.42a60.45,60.45,0,0,0,6.45-.64h.47c4.51-.46,9-1.14,13.43-2a176.15,176.15,0,0,0,60.33-23.14q57.87-35.75,79-100.48a170.27,170.27,0,0,0,6.87-31.33c.64-5.09,1.12-10.18,1.28-15.31Z"/><path class="cls-2" d="M362.66,183.89v5.28l-.2,0A26.88,26.88,0,0,1,362.66,183.89Z"/><path class="cls-3" d="M362.66,173.69v10.2a26.88,26.88,0,0,0-.2,5.23c-.16,5.13-.64,10.22-1.28,15.31a170.27,170.27,0,0,1-6.87,31.33q-21,64.71-79,100.48A176.15,176.15,0,0,1,215,359.38c-4.45.84-8.92,1.52-13.43,2h-.47a48.05,48.05,0,0,1-7.84-14.05,55.16,55.16,0,0,1-2.36-27.2,16.93,16.93,0,0,1,.83-3.91,2.39,2.39,0,0,0,.82-.43c6.07-4.22,11.91-8.74,17.6-13.44,4.28-3.54,8.45-7.19,12.45-11,3.72-3.56,7.37-7.2,10.89-11,2.87-3.07,5.65-6.21,8.41-9.38,3-3.4,5.79-6.91,8.52-10.49q7.38-9.67,13.84-20c3.32-5.33,6.46-10.75,9.34-16.33a239.51,239.51,0,0,0,10.47-22.94q4.05-10.4,7.13-21.1,2-7.18,3.56-14.48c.84-4,1.58-8,2.17-12,.35-2.32.71-4.63.94-7s.41-4.55.64-6.81c.36-3.62.52-7.24.66-10.86.16-4.37.11-8.75,0-13.11-.05-1.66-.06-3.33-.18-5-.21-3-.46-6-.73-9q-.28-3-.67-6c-.31-2.38-.68-4.75-1-7.13l6.85.53c4.26.35,8.52.74,12.78,1,3.91.28,7.81.81,11.75.83,3.47,0,6.31-1.23,8.12-4.36a4.5,4.5,0,0,1,.28.37,179.76,179.76,0,0,1,26,83A12.07,12.07,0,0,0,362.66,173.69Z"/><path class="cls-4" d="M335.59,85.92c.18.29.33.6.5.9-1.81,3.13-4.65,4.37-8.12,4.36-3.94,0-7.84-.55-11.75-.83-4.26-.31-8.52-.7-12.78-1l-6.85-.53c-5.95-.51-11.91-.94-17.85-1.57a32.72,32.72,0,0,1-13.35-3.91,13.26,13.26,0,0,1-7-10.83,19.34,19.34,0,0,1,2.1-9.64c1.75-3.9,4.32-7.28,6.78-10.72a41.29,41.29,0,0,0,6-10.8,19.44,19.44,0,0,0,1-5.46c0-.69-.2-.75-.81-.65a66.73,66.73,0,0,1-39.6-5.32l-.3-.15c4.2-3.89,6.83-8.95,10.42-13.26a26.15,26.15,0,0,1,3.87-3.86,151.44,151.44,0,0,1,15.72,7A181.16,181.16,0,0,1,335.59,85.92Z"/><path class="cls-5" d="M299.19,115.9c.11,4.36.16,8.74,0,13.11-.14,3.62-.3,7.24-.66,10.86-.23,2.26-.42,4.54-.64,6.81s-.59,4.64-.94,7c-.59,4-1.33,8-2.17,12q-1.53,7.3-3.56,14.48-3.06,10.72-7.13,21.1a239.51,239.51,0,0,1-10.47,22.94c-2.88,5.58-6,11-9.34,16.33q-6.43,10.35-13.84,20c-2.73,3.58-5.57,7.09-8.52,10.49-2.76,3.17-5.54,6.31-8.41,9.38-3.52,3.77-7.17,7.41-10.89,11-4,3.84-8.17,7.49-12.45,11-5.69,4.7-11.53,9.22-17.6,13.44a2.39,2.39,0,0,1-.82.43,51.83,51.83,0,0,1,7.13-17,49.55,49.55,0,0,1,14.89-14.62,95,95,0,0,0,10.59-7.7c3.84-3.4,6.67-7.41,7.58-12.57a46.67,46.67,0,0,0,.64-8.08,29,29,0,0,1,5.18-17.2c1-1.41,2-2.85,2.93-4.27a53,53,0,0,0,5.76-9.59c2.81-6.8,1-13.18-5-17.43-3.5-2.48-7.5-3.89-11.54-5.17-5.29-1.68-10.64-3.14-15.66-5.58a128,128,0,0,1-19.47-12.31c-6.63-4.88-13.09-10-20.08-14.36a65.77,65.77,0,0,0-23.82-9.4c-7.49-1.29-14.89-1.11-22,2a28.52,28.52,0,0,0-7.49,4.77,15.1,15.1,0,0,0,.79-3.68c.1-3.72-1.4-6.83-3.63-9.67-3.17-4-7.44-6.46-12.18-8.19-4.24-1.55-8.6-2.75-12.75-4.54s-7.79-4-10.22-7.86a16.81,16.81,0,0,1-2.79-8.94c0-6.37,5.24-10.22,11.09-9.52,4.53.55,8.41,2.61,12.06,5.18a78.41,78.41,0,0,0,9,6,17.18,17.18,0,0,0,8,2.23,12.9,12.9,0,0,0,9.28-4.17,33.61,33.61,0,0,0,4.7-5.88c6.85-10.66,15.71-19.43,25.58-27.25,9.12-7.22,18.81-13.65,28.3-20.36A231.25,231.25,0,0,0,207.5,56.44a33.36,33.36,0,0,0,7.41-8.6c2.4-4.28,3.08-8.74,1.26-13.4a10,10,0,0,0-10.66-6.37c-4.72.48-8.65,2.64-12.25,5.54-3,2.44-5.81,5.21-9,7.47-2.61,1.84-5.36,3.47-8.62,3.74a11.73,11.73,0,0,1-10.86-4.61,6.74,6.74,0,0,1,.49-8.67,19.43,19.43,0,0,1,5.8-4.3A51.34,51.34,0,0,0,191.33,7.77a25,25,0,0,0,1.87-3.59l.29-.39A47.17,47.17,0,0,0,198.8.88,167.86,167.86,0,0,1,223.6,5a177.33,177.33,0,0,1,23.61,7.37,6.54,6.54,0,0,1,.6.28,26.15,26.15,0,0,0-3.87,3.86c-3.59,4.31-6.22,9.37-10.42,13.26l.3.15a66.73,66.73,0,0,0,39.6,5.32c.61-.1.83,0,.81.65a19.44,19.44,0,0,1-1,5.46,41.29,41.29,0,0,1-6,10.8c-2.46,3.44-5,6.82-6.78,10.72a19.34,19.34,0,0,0-2.1,9.64,13.26,13.26,0,0,0,7,10.83,32.72,32.72,0,0,0,13.35,3.91c5.94.63,11.9,1.06,17.85,1.57.34,2.38.71,4.75,1,7.13q.39,3,.67,6c.27,3,.52,6,.73,9C299.13,112.57,299.14,114.24,299.19,115.9Zm-101,38.71c.1-.49,0-.68-.53-.71a8.87,8.87,0,0,1-2.31-.21l1-1.12a3.68,3.68,0,0,0-3.79,0,4.07,4.07,0,0,0-2.44,3.53c-.1,2.58,2.94,4.5,5.66,3.59a2.35,2.35,0,0,0,1.91-2.25A18.77,18.77,0,0,1,198.18,154.61Zm-16.76,1.95c3.33-2.52,2.89-6.63-.91-8.36a11,11,0,0,0-5.71-.84c-2.94.28-5.86.86-8.82.25a.22.22,0,0,0-.36-.08l.27.19c.46.28.58.8.8,1.24,1.38,2.73,2.88,5.37,5.35,7.31A7.32,7.32,0,0,0,181.42,156.56ZM165.54,141c1.57-.19,1.93-.73,1.72-2.34,0-.12-.06-.24-.09-.36a5.9,5.9,0,0,0-4.3-4.2,25.07,25.07,0,0,0-6.32-.92A77.8,77.8,0,0,0,133,135.2a47.46,47.46,0,0,0-5.5,1.59,23.89,23.89,0,0,1,3.38.59,81.86,81.86,0,0,0,20.54,4A79.33,79.33,0,0,0,165.54,141Z"/><path class="cls-4" d="M241.45,207.75c6,4.25,7.81,10.63,5,17.43a53,53,0,0,1-5.76,9.59c-1,1.42-1.94,2.86-2.93,4.27a29,29,0,0,0-5.18,17.2,46.67,46.67,0,0,1-.64,8.08c-.91,5.16-3.74,9.17-7.58,12.57a95,95,0,0,1-10.59,7.7,49.55,49.55,0,0,0-14.89,14.62,51.83,51.83,0,0,0-7.13,17,16.93,16.93,0,0,0-.83,3.91,55.16,55.16,0,0,0,2.36,27.2,48.05,48.05,0,0,0,7.84,14.05,60.45,60.45,0,0,1-6.45.64c-2.81.19-5.63.29-8.45.42a2.17,2.17,0,0,0-.29-.24,23.85,23.85,0,0,1-9.33-9.33,70.58,70.58,0,0,1-5.55-12.43c-1.12-3.05-2.11-6.15-3.37-9.16-1.3-3.66-2.58-7.32-3.89-11-7.21-20.18-14.66-40.27-21.69-60.51a148.87,148.87,0,0,1-6.28-23.59,98.07,98.07,0,0,1-1.36-15.29c-.07-4.72-.09-9.44-.41-14.15-.6-8.67-2.91-16.72-8.58-23.55a58.74,58.74,0,0,0-14.21-12c-6.44-4-13.28-7.33-20.05-10.76a113.22,113.22,0,0,1-21.88-13.92c-6.83-5.72-12.53-12.32-15.95-20.68-.38-.93-.73-1.87-1-2.82s-.56-1.92-.9-3.07c-.88,3.34-1.72,6.52-2.61,9.92-1.66-3.49-3.25-6.76-4.78-10-1.68-3.64-3.27-7.32-4.63-11.1a4.77,4.77,0,0,1-.15-.54,8,8,0,0,1,2.25-2.48,41.82,41.82,0,0,1,10.44-7,57.52,57.52,0,0,1,14.49-4.52,93.82,93.82,0,0,1,11.34-1.36c2.59-.15,5.19-.23,7.78-.4s5,0,7.53-.16c4.74-.35,9.49-.19,14.23-.12,2.72,0,5.46,0,8.18.17,2.94.15,5.89.23,8.83.37,3.9.18,7.8.45,11.7.75,3.49.26,7,.61,10.45.94,1.15.11,2.28.27,3.44.41,0-.44-.27-.57-.46-.76-1.59-1.6-3.22-3.18-4.79-4.81a70.43,70.43,0,0,1-11.3-14.37,37.36,37.36,0,0,1-4.45-12.7,25.47,25.47,0,0,1,1.53-13.71,28,28,0,0,1,4.82-7.7c4.37-5.1,9.88-8.75,15.57-12.14,6.49-3.87,13-7.63,19.58-11.41s13.37-7.7,20.06-11.55a22.28,22.28,0,0,1,2.71-1.5,25,25,0,0,1-1.87,3.59,51.34,51.34,0,0,1-20.26,19.47,19.43,19.43,0,0,0-5.8,4.3,6.74,6.74,0,0,0-.49,8.67,11.73,11.73,0,0,0,10.86,4.61c3.26-.27,6-1.9,8.62-3.74,3.19-2.26,6-5,9-7.47,3.6-2.9,7.53-5.06,12.25-5.54a10,10,0,0,1,10.66,6.37c1.82,4.66,1.14,9.12-1.26,13.4a33.36,33.36,0,0,1-7.41,8.6A231.25,231.25,0,0,1,188.61,71c-9.49,6.71-19.18,13.14-28.3,20.36-9.87,7.82-18.73,16.59-25.58,27.25a33.61,33.61,0,0,1-4.7,5.88,12.9,12.9,0,0,1-9.28,4.17,17.18,17.18,0,0,1-8-2.23,78.41,78.41,0,0,1-9-6c-3.65-2.57-7.53-4.63-12.06-5.18-5.85-.7-11.13,3.15-11.09,9.52a16.81,16.81,0,0,0,2.79,8.94c2.43,3.89,6.16,6.1,10.22,7.86s8.51,3,12.75,4.54c4.74,1.73,9,4.15,12.18,8.19,2.23,2.84,3.73,5.95,3.63,9.67a15.1,15.1,0,0,1-.79,3.68,28.52,28.52,0,0,1,7.49-4.77c7.13-3.07,14.53-3.25,22-2a65.77,65.77,0,0,1,23.82,9.4c7,4.37,13.45,9.48,20.08,14.36A128,128,0,0,0,214.25,197c5,2.44,10.37,3.9,15.66,5.58C234,203.86,238,205.27,241.45,207.75Z"/><path class="cls-4" d="M197.65,153.9c.51,0,.63.22.53.71a18.77,18.77,0,0,0-.48,2.86,2.35,2.35,0,0,1-1.91,2.25c-2.72.91-5.76-1-5.66-3.59a4.07,4.07,0,0,1,2.44-3.53,3.68,3.68,0,0,1,3.79,0l-1,1.12A8.87,8.87,0,0,0,197.65,153.9Z"/><path class="cls-2" d="M194.81.58a26.7,26.7,0,0,1,4,.3,47.17,47.17,0,0,1-5.31,2.91Z"/><path class="cls-4" d="M194.81.58l-1.32,3.21-.29.39a22.28,22.28,0,0,0-2.71,1.5q-10,5.77-20.06,11.55c-6.54,3.78-13.09,7.54-19.58,11.41-5.69,3.39-11.2,7-15.57,12.14a28,28,0,0,0-4.82,7.7,25.47,25.47,0,0,0-1.53,13.71,37.36,37.36,0,0,0,4.45,12.7,70.43,70.43,0,0,0,11.3,14.37c1.57,1.63,3.2,3.21,4.79,4.81.19.19.49.32.46.76-1.16-.14-2.29-.3-3.44-.41-3.48-.33-7-.68-10.45-.94-3.9-.3-7.8-.57-11.7-.75-2.94-.14-5.89-.22-8.83-.37-2.72-.15-5.46-.13-8.18-.17-4.74-.07-9.49-.23-14.23.12-2.5.18-5,0-7.53.16s-5.19.25-7.78.4a93.82,93.82,0,0,0-11.34,1.36A57.52,57.52,0,0,0,52,98.75a41.82,41.82,0,0,0-10.44,7,8,8,0,0,0-2.25,2.48l-.13,0c-.11-.36-.22-.72-.34-1.08a70.31,70.31,0,0,1-4.43-24.23,68,68,0,0,1,.75-8.43A118,118,0,0,1,42.39,65,180.95,180.95,0,0,1,149.08,2.89a8.44,8.44,0,0,1,1-.05h0a29.26,29.26,0,0,1-4.24,5.38,31.07,31.07,0,0,0,22.38-1A29.68,29.68,0,0,0,178.79,0h9.06c.4.27.85.13,1.27.16C191,.31,192.92.28,194.81.58Z"/><path class="cls-5" d="M185.93,362.18a2.17,2.17,0,0,1,.29.24c-1.56,0-3.13.05-4.69.05-4.66,0-9.32-.16-14-.51a180.48,180.48,0,0,1-45.17-9.31c-.14,0-.28-.14-.42-.2a43.16,43.16,0,0,1,5-2c5.7-2.2,11.32-4.56,16.91-7s11-5.23,16.43-8c2.3-1.16,4.52-2.45,6.79-3.67a1,1,0,0,0,.53-.5c1.26,3,2.25,6.11,3.37,9.16a70.58,70.58,0,0,0,5.55,12.43A23.85,23.85,0,0,0,185.93,362.18Z"/><path class="cls-4" d="M180.51,148.2c3.8,1.73,4.24,5.84.91,8.36a7.32,7.32,0,0,1-9.38-.29c-2.47-1.94-4-4.58-5.35-7.31-.22-.44-.34-1-.8-1.24l.09-.11c3,.61,5.88,0,8.82-.25A11,11,0,0,1,180.51,148.2Z"/><path class="cls-1" d="M181.53,362.47v.19l-180.66,0c-.71,0-.87-.16-.87-.87Q0,271.6,0,181.4H.19c0,4.87.23,9.72.62,14.57.29,3.63.63,7.26,1.24,10.85,0,.31,0,.63.07.94a172.08,172.08,0,0,0,9.34,36.43Q38.25,314,105.9,346A138.38,138.38,0,0,0,122,352.45c.14.06.28.15.42.2A180.48,180.48,0,0,0,167.56,362C172.21,362.31,176.87,362.47,181.53,362.47Z"/><path class="cls-6" d="M174.26,0h4.53a29.68,29.68,0,0,1-10.56,7.21,31.07,31.07,0,0,1-22.38,1,29.26,29.26,0,0,0,4.24-5.38h0l.13-.12A176.76,176.76,0,0,1,173.29.19C173.61.17,174,.34,174.26,0Z"/><path class="cls-1" d="M0,0H174.26c-.27.32-.65.15-1,.17a176.76,176.76,0,0,0-23.06,2.53c-.09,0-.17,0-.14.12a8.44,8.44,0,0,0-1,.05A180.95,180.95,0,0,0,42.39,65a118,118,0,0,0-7.27,9.38,6.4,6.4,0,0,0-.42.49q-4.23,5.79-8,11.91A180.2,180.2,0,0,0,.21,179.19c0,.74,0,1.48,0,2.21H0Q0,90.71,0,0Z"/><path class="cls-5" d="M167.68,331.26a1,1,0,0,1-.53.5c-2.27,1.22-4.49,2.51-6.79,3.67-5.44,2.74-10.87,5.49-16.43,8s-11.21,4.84-16.91,7a43.16,43.16,0,0,0-5,2A138.38,138.38,0,0,1,105.9,346Q38.34,314,11.46,244.19a172.08,172.08,0,0,1-9.34-36.43c0-.31-.05-.63-.07-.94a3.5,3.5,0,0,1,.68-1.33,79.35,79.35,0,0,1,9.51-11.27,149,149,0,0,0,11-11.75,40.69,40.69,0,0,0,5.68-9.28,36.74,36.74,0,0,0,2.77-12.59A102.22,102.22,0,0,0,31.51,148c-.27-3.74-.64-7.48-.71-11.24-.05-2,0-4.09,0-6.13a37.52,37.52,0,0,1,1.05-8.45,30.46,30.46,0,0,1,7.3-14l.13,0a4.77,4.77,0,0,0,.15.54c1.36,3.78,2.95,7.46,4.63,11.1,1.53,3.29,3.12,6.56,4.78,10,.89-3.4,1.73-6.58,2.61-9.92.34,1.15.59,2.12.9,3.07s.66,1.89,1,2.82c3.42,8.36,9.12,15,15.95,20.68a113.22,113.22,0,0,0,21.88,13.92c6.77,3.43,13.61,6.72,20.05,10.76a58.74,58.74,0,0,1,14.21,12c5.67,6.83,8,14.88,8.58,23.55.32,4.71.34,9.43.41,14.15a98.07,98.07,0,0,0,1.36,15.29,148.87,148.87,0,0,0,6.28,23.59c7,20.24,14.48,40.33,21.69,60.51C165.1,323.94,166.38,327.6,167.68,331.26Z"/><path class="cls-4" d="M167.26,138.62c.21,1.61-.15,2.15-1.72,2.34a79.33,79.33,0,0,1-14.12.37,81.86,81.86,0,0,1-20.54-4,23.89,23.89,0,0,0-3.38-.59,47.46,47.46,0,0,1,5.5-1.59,77.8,77.8,0,0,1,23.55-2.06,25.07,25.07,0,0,1,6.32.92,5.9,5.9,0,0,1,4.3,4.2C167.2,138.38,167.24,138.5,167.26,138.62Z"/><path class="cls-7" d="M166,147.61l-.09.11-.27-.19A.22.22,0,0,1,166,147.61Z"/><path class="cls-8" d="M150.23,2.72l-.13.12h0C150.06,2.72,150.14,2.72,150.23,2.72Z"/><polygon class="cls-8" points="150.1 2.84 150.09 2.85 150.09 2.84 150.1 2.84"/><path class="cls-6" d="M38.8,107.06c.12.36.23.72.34,1.08a30.46,30.46,0,0,0-7.3,14,37.52,37.52,0,0,0-1.05,8.45c0,2,0,4.09,0,6.13.07,3.76.44,7.5.71,11.24a102.22,102.22,0,0,1,.18,12.62,36.74,36.74,0,0,1-2.77,12.59,40.69,40.69,0,0,1-5.68,9.28,149,149,0,0,1-11,11.75,79.35,79.35,0,0,0-9.51,11.27,3.5,3.5,0,0,0-.68,1.33C1.44,203.23,1.1,199.6.81,196c-.39-4.85-.62-9.7-.62-14.57,0-.73,0-1.47,0-2.21A180.2,180.2,0,0,1,26.75,86.8q3.72-6.14,8-11.91a6.4,6.4,0,0,1,.42-.49,68,68,0,0,0-.75,8.43A70.31,70.31,0,0,0,38.8,107.06Z"/></g></g></svg>
