<svg width="105" height="28" viewBox="0 0 105 28" fill="none" xmlns="http://www.w3.org/2000/svg">
<g clip-path="url(#clip0)">
<path d="M95.2907 25.5804C99.3003 25.5804 102.551 22.3299 102.551 18.3202C102.551 14.3105 99.3003 11.0601 95.2907 11.0601C91.281 11.0601 88.0305 14.3105 88.0305 18.3202C88.0305 22.3299 91.281 25.5804 95.2907 25.5804Z" stroke="#172327" stroke-width="4" stroke-miterlimit="10"/>
<path d="M23.4866 0.774414V24.7813L21.7805 24.8297L13.4191 5.69922C13.0283 4.7772 12.3748 3.99064 11.5399 3.43763C10.705 2.88462 9.72567 2.58963 8.72424 2.58945C7.37317 2.58945 6.07743 3.12616 5.12208 4.08151C4.16673 5.03686 3.63008 6.33259 3.63008 7.68366V21.9499C3.63008 22.8709 3.99593 23.7542 4.6472 24.4055C5.29847 25.0568 6.18181 25.4226 7.10285 25.4226V25.4226C7.61344 25.4216 8.11749 25.3082 8.57934 25.0905C9.04118 24.8728 9.4495 24.556 9.77518 24.1628C10.1009 23.7695 10.3361 23.3094 10.4639 22.8151C10.5918 22.3208 10.6092 21.8043 10.5151 21.3025C9.68014 16.6863 7.21781 9.83751 0 9.83751" stroke="#172327" stroke-width="4" stroke-miterlimit="10"/>
<path d="M37.5109 25.4349C41.5206 25.4349 44.771 22.1844 44.771 18.1747C44.771 14.165 41.5206 10.9146 37.5109 10.9146C33.5012 10.9146 30.2507 14.165 30.2507 18.1747C30.2507 22.1844 33.5012 25.4349 37.5109 25.4349Z" stroke="#172327" stroke-width="4" stroke-miterlimit="10"/>
<path d="M52.2925 2.11806V24.8303H53.5025V16.0576L58.9476 4.80432C59.34 3.99902 59.9507 3.32017 60.7102 2.84521C61.4697 2.37025 62.3475 2.11829 63.2433 2.11806V2.11806C64.2915 2.11823 65.3106 2.46299 66.1437 3.09925C66.9767 3.73551 67.5774 4.62799 67.8534 5.63923L71.9796 20.7646C72.1285 21.3105 72.1495 21.8834 72.0409 22.4387C71.9323 22.994 71.697 23.5168 71.3533 23.9664C71.0097 24.4159 70.5671 24.7802 70.0597 25.0308C69.5524 25.2813 68.9941 25.4115 68.4283 25.4111V25.4111C67.8243 25.4096 67.2297 25.2596 66.6973 24.9744C66.1648 24.6892 65.7107 24.2774 65.3749 23.7754C65.039 23.2734 64.8317 22.6965 64.7712 22.0955C64.7107 21.4945 64.7989 20.8878 65.028 20.329L71.29 5.13102C71.6612 4.23496 72.2899 3.46919 73.0966 2.93069C73.9033 2.39218 74.8516 2.10516 75.8215 2.10596V2.10596C77.1218 2.10596 78.3688 2.62208 79.2888 3.54094C80.2088 4.45981 80.7265 5.70629 80.7281 7.00657V26.6332" stroke="#172327" stroke-width="4" stroke-miterlimit="10"/>
</g>
<defs>
<clipPath id="clip0">
<rect width="104.97" height="28" fill="white"/>
</clipPath>
</defs>
</svg>
