<svg width="38" height="38" viewBox="0 0 38 38" fill="none" xmlns="http://www.w3.org/2000/svg">
<circle cx="19" cy="19" r="14" fill="white"/>
<path d="M19 28C23.9706 28 28 23.9706 28 19C28 14.0294 23.9706 10 19 10C14.0294 10 10 14.0294 10 19C10 23.9706 14.0294 28 19 28Z" stroke="black" stroke-width="2" stroke-linecap="round" stroke-linejoin="round"/>
<path d="M19 22C21.0711 22 22.75 20.3211 22.75 18.25C22.75 16.1789 21.0711 14.5 19 14.5C16.9289 14.5 15.25 16.1789 15.25 18.25C15.25 20.3211 16.9289 22 19 22Z" stroke="black" stroke-width="2" stroke-linecap="round" stroke-linejoin="round"/>
<path d="M12.9814 25.6913C13.5464 24.5806 14.4077 23.6478 15.47 22.9963C16.5323 22.3448 17.7541 22 19.0003 22C20.2464 22 21.4683 22.3448 22.5306 22.9963C23.5929 23.6478 24.4542 24.5806 25.0191 25.6913" stroke="black" stroke-width="2" stroke-linecap="round" stroke-linejoin="round"/>
</svg>
