<svg width="90" height="24" viewBox="0 0 90 24" fill="none" xmlns="http://www.w3.org/2000/svg">
<g clip-path="url(#clip0)">
<path d="M81.6766 21.9257C85.1135 21.9257 87.8996 19.1396 87.8996 15.7027C87.8996 12.2659 85.1135 9.47974 81.6766 9.47974C78.2397 9.47974 75.4536 12.2659 75.4536 15.7027C75.4536 19.1396 78.2397 21.9257 81.6766 21.9257Z" stroke="#FFDEE5" stroke-width="3.73487" stroke-miterlimit="10"/>
<path d="M20.1314 0.663818V21.2412L18.669 21.2827L11.5021 4.88508C11.1671 4.09478 10.6069 3.42058 9.89131 2.94658C9.17568 2.47257 8.33629 2.21972 7.47792 2.21957C6.31986 2.21957 5.20923 2.6796 4.39035 3.49847C3.57148 4.31734 3.1115 5.42797 3.1115 6.58603V18.8142C3.1115 19.6037 3.42508 20.3608 3.98331 20.919C4.54155 21.4773 5.29869 21.7909 6.08816 21.7909V21.7909C6.52581 21.79 6.95785 21.6928 7.35372 21.5062C7.74959 21.3195 8.09957 21.0481 8.37873 20.711C8.65789 20.3739 8.85949 19.9795 8.9691 19.5558C9.07871 19.1321 9.09359 18.6895 9.01291 18.2593C8.29726 14.3025 6.18669 8.43218 0 8.43218" stroke="#FFDEE5" stroke-width="3.26801" stroke-miterlimit="10"/>
<path d="M32.1522 21.8012C35.5891 21.8012 38.3752 19.0151 38.3752 15.5782C38.3752 12.1414 35.5891 9.35522 32.1522 9.35522C28.7153 9.35522 25.9292 12.1414 25.9292 15.5782C25.9292 19.0151 28.7153 21.8012 32.1522 21.8012Z" stroke="#FFDEE5" stroke-width="3.73487" stroke-miterlimit="10"/>
<path d="M44.8213 1.815V21.2826H45.8585V13.7631L50.5257 4.11751C50.862 3.42725 51.3855 2.84538 52.0365 2.43827C52.6875 2.03116 53.4399 1.8152 54.2077 1.815V1.815C55.1062 1.81515 55.9797 2.11065 56.6937 2.65602C57.4078 3.20139 57.9227 3.96636 58.1592 4.83315L61.696 17.7977C61.8236 18.2656 61.8416 18.7567 61.7485 19.2327C61.6554 19.7087 61.4537 20.1568 61.1592 20.5421C60.8646 20.9275 60.4852 21.2397 60.0503 21.4545C59.6155 21.6692 59.137 21.7808 58.652 21.7804V21.7804C58.1342 21.7792 57.6246 21.6506 57.1683 21.4062C56.7119 21.1617 56.3226 20.8087 56.0347 20.3784C55.7469 19.9481 55.5691 19.4536 55.5173 18.9385C55.4655 18.4234 55.5411 17.9034 55.7375 17.4243L61.1049 4.39754C61.423 3.62949 61.9619 2.97311 62.6534 2.51154C63.3448 2.04996 64.1577 1.80394 64.989 1.80463V1.80463C66.1036 1.80463 67.1724 2.24701 67.961 3.03462C68.7496 3.82222 69.1933 4.89063 69.1947 6.00515V22.828" stroke="#FFDEE5" stroke-width="3.26801" stroke-miterlimit="10"/>
</g>
<defs>
<clipPath id="clip0">
<rect width="89.9741" height="24" fill="white"/>
</clipPath>
</defs>
</svg>
