<svg width="48" height="48" viewBox="0 0 48 48" fill="none" xmlns="http://www.w3.org/2000/svg">
<rect width="48" height="48" rx="8" fill="#57BD6F"/>
<path d="M35.8944 16.5527L33.8944 12.5527C33.8114 12.3866 33.6837 12.247 33.5257 12.1493C33.3677 12.0517 33.1857 12 33 12H15C14.8143 12 14.6323 12.0517 14.4743 12.1493C14.3163 12.247 14.1886 12.3866 14.1056 12.5527L12.1056 16.5527C12.0361 16.6916 12 16.8447 12 17V34C12.0006 34.5302 12.2115 35.0386 12.5865 35.4135C12.9614 35.7885 13.4698 35.9994 14 36H34C34.5302 35.9994 35.0386 35.7885 35.4135 35.4135C35.7885 35.0386 35.9994 34.5302 36 34V17C36 16.8447 35.9639 16.6916 35.8944 16.5527V16.5527ZM28.9498 27.4645L24.7072 31.7072C24.7004 31.7139 24.6929 31.7198 24.686 31.7263C24.6693 31.7421 24.6527 31.7579 24.6349 31.7725C24.6266 31.7794 24.6176 31.7853 24.6091 31.7919C24.5917 31.8052 24.5745 31.8187 24.5562 31.831C24.5492 31.8357 24.5417 31.8396 24.5345 31.8441C24.5141 31.8571 24.4935 31.87 24.4721 31.8815C24.4668 31.8843 24.4612 31.8866 24.4559 31.8893C24.4322 31.9015 24.4082 31.9132 24.3834 31.9235C24.3799 31.9251 24.3761 31.9261 24.3725 31.9276C24.346 31.9382 24.3191 31.9481 24.2914 31.9565C24.2878 31.9577 24.284 31.9584 24.2803 31.9594C24.2529 31.9674 24.2252 31.9747 24.1968 31.9804C24.1887 31.9821 24.1802 31.9827 24.172 31.9842C24.1481 31.9883 24.1243 31.9926 24.0999 31.9949C24.0335 32.0017 23.9665 32.0017 23.9001 31.9949C23.8757 31.9926 23.8519 31.9883 23.828 31.9842C23.8198 31.9827 23.8113 31.9821 23.8032 31.9804C23.7748 31.9747 23.7471 31.9674 23.7197 31.9594C23.716 31.9584 23.7122 31.9577 23.7086 31.9565C23.6808 31.9481 23.6538 31.9381 23.6272 31.9274C23.6237 31.926 23.6201 31.925 23.6166 31.9235C23.5918 31.9132 23.5678 31.9015 23.5441 31.8893C23.5387 31.8865 23.5332 31.8843 23.5279 31.8815C23.5065 31.87 23.4859 31.8571 23.4654 31.8441C23.4583 31.8396 23.4508 31.8357 23.4438 31.831C23.4255 31.8187 23.4083 31.8052 23.3909 31.7919C23.3824 31.7853 23.3734 31.7794 23.365 31.7725C23.3478 31.7583 23.3317 31.7428 23.3154 31.7275C23.308 31.7206 23.3 31.7144 23.2928 31.7072L19.0502 27.4645C18.8627 27.2769 18.7573 27.0226 18.7573 26.7573C18.7573 26.4921 18.8627 26.2377 19.0502 26.0502C19.2377 25.8627 19.4921 25.7573 19.7573 25.7573C20.0226 25.7573 20.2769 25.8626 20.4645 26.0502L23 28.5858V21C23 20.7348 23.1054 20.4804 23.2929 20.2929C23.4804 20.1054 23.7348 20 24 20C24.2652 20 24.5196 20.1054 24.7071 20.2929C24.8946 20.4804 25 20.7348 25 21V28.5858L27.5355 26.0502C27.6284 25.9573 27.7386 25.8836 27.86 25.8334C27.9813 25.7831 28.1113 25.7573 28.2427 25.7573C28.374 25.7573 28.504 25.7831 28.6254 25.8334C28.7467 25.8837 28.8569 25.9573 28.9498 26.0502C29.0427 26.1431 29.1163 26.2533 29.1666 26.3746C29.2168 26.496 29.2427 26.626 29.2427 26.7573C29.2427 26.8887 29.2168 27.0187 29.1666 27.14C29.1163 27.2614 29.0426 27.3716 28.9498 27.4645L28.9498 27.4645ZM14.618 16L15.618 14H32.382L33.382 16H14.618Z" fill="white"/>
</svg>
