<svg width="32" height="32" viewBox="0 0 32 32" fill="none" xmlns="http://www.w3.org/2000/svg">
<rect width="32" height="32" rx="12" fill="#172327"/>
<path d="M16.7841 11.2941V15.5472L20.4674 17.6737C20.5566 17.7252 20.6348 17.7938 20.6975 17.8755C20.7602 17.9572 20.8062 18.0505 20.8328 18.15C20.8595 18.2495 20.8663 18.3532 20.8528 18.4553C20.8394 18.5574 20.806 18.6559 20.7545 18.7451C20.703 18.8343 20.6344 18.9125 20.5527 18.9752C20.471 19.0379 20.3777 19.0839 20.2782 19.1105C20.1787 19.1372 20.075 19.144 19.9729 19.1306C19.8707 19.1171 19.7723 19.0837 19.6831 19.0322L15.6076 16.6793C15.6014 16.6756 15.5958 16.6714 15.5896 16.6676C15.5763 16.6594 15.5631 16.6511 15.5503 16.6422C15.5402 16.6351 15.5305 16.6276 15.5208 16.6201C15.5108 16.6124 15.5008 16.6046 15.4913 16.5965C15.4803 16.5872 15.4699 16.5775 15.4596 16.5677C15.4519 16.5603 15.4442 16.5529 15.4367 16.5452C15.4262 16.5344 15.4163 16.5233 15.4065 16.512C15.3997 16.5041 15.393 16.4962 15.3865 16.4881C15.3775 16.4768 15.3689 16.4652 15.3606 16.4534C15.354 16.4442 15.3475 16.4348 15.3413 16.4252C15.3343 16.4142 15.3276 16.4031 15.321 16.3918C15.3146 16.3806 15.3083 16.3693 15.3024 16.3577C15.2972 16.3475 15.2922 16.3372 15.2875 16.3268C15.2815 16.3138 15.2758 16.3006 15.2705 16.2872C15.2667 16.2774 15.2631 16.2676 15.2597 16.2576C15.2548 16.2437 15.2502 16.2296 15.2461 16.2153C15.2432 16.2048 15.2406 16.1942 15.238 16.1837C15.2347 16.17 15.2316 16.1563 15.229 16.1424C15.2267 16.1298 15.225 16.1171 15.2232 16.1044C15.2216 16.0925 15.22 16.0805 15.2189 16.0684C15.2176 16.0527 15.217 16.0369 15.2165 16.0211C15.2164 16.0141 15.2155 16.0071 15.2155 16V11.2941C15.2155 11.0861 15.2981 10.8866 15.4452 10.7395C15.5923 10.5925 15.7918 10.5098 15.9998 10.5098C16.2078 10.5098 16.4073 10.5925 16.5544 10.7395C16.7015 10.8866 16.7841 11.0861 16.7841 11.2941ZM25.728 8.58087C25.5847 8.52151 25.427 8.50598 25.2749 8.53624C25.1227 8.56651 24.983 8.64121 24.8733 8.75091L23.4671 10.1571L22.6549 9.34489C21.3389 8.03013 19.6626 7.13504 17.838 6.77277C16.0134 6.4105 14.1224 6.59731 12.4039 7.30959C10.6855 8.02187 9.21675 9.22764 8.18345 10.7745C7.15014 12.3213 6.59863 14.1398 6.59863 16C6.59863 17.8602 7.15014 19.6787 8.18345 21.2256C9.21675 22.7724 10.6855 23.9782 12.4039 24.6904C14.1224 25.4027 16.0134 25.5895 17.838 25.2273C19.6626 24.865 21.3389 23.9699 22.6549 22.6551C22.802 22.5081 22.8846 22.3086 22.8846 22.1006C22.8846 21.8926 22.802 21.6931 22.6549 21.546C22.5821 21.4732 22.4956 21.4154 22.4004 21.376C22.3053 21.3366 22.2033 21.3163 22.1003 21.3163C21.8923 21.3163 21.6928 21.3989 21.5457 21.546C20.4488 22.6429 19.0513 23.3898 17.5299 23.6925C16.0085 23.9951 14.4315 23.8398 12.9983 23.2461C11.5652 22.6525 10.3403 21.6472 9.47846 20.3574C8.61665 19.0676 8.15666 17.5512 8.15666 16C8.15666 14.4488 8.61665 12.9324 9.47846 11.6426C10.3403 10.3528 11.5652 9.34753 12.9983 8.7539C14.4315 8.16027 16.0085 8.00495 17.5299 8.30757C19.0513 8.6102 20.4488 9.35718 21.5457 10.4541L22.3579 11.2663L20.9517 12.6725C20.842 12.7822 20.7673 12.9219 20.7371 13.0741C20.7068 13.2262 20.7223 13.3839 20.7817 13.5272C20.8411 13.6705 20.9416 13.793 21.0706 13.8792C21.1996 13.9654 21.3512 14.0114 21.5063 14.0114H25.4279C25.5309 14.0114 25.6329 13.9911 25.728 13.9517C25.8232 13.9123 25.9097 13.8545 25.9825 13.7817C26.0553 13.7088 26.1131 13.6224 26.1525 13.5272C26.1919 13.432 26.2122 13.3301 26.2122 13.2271V9.30549C26.2122 9.15037 26.1662 8.99873 26.08 8.86975C25.9938 8.74077 25.8714 8.64024 25.728 8.58087Z" fill="#F4EEEB"/>
</svg>
