<svg width="570" height="96" viewBox="0 0 570 96" fill="none" xmlns="http://www.w3.org/2000/svg">
<path d="M24.5711 95.8C16.7711 95.8 11.1378 93.8667 7.67109 90C4.20443 86.1333 2.47109 79.9 2.47109 71.3V62.9H19.3711V73.6C19.3711 77.8667 20.7378 80 23.4711 80C25.0044 80 26.0711 79.5667 26.6711 78.7C27.2711 77.7667 27.5711 76.2333 27.5711 74.1C27.5711 71.3 27.2378 69 26.5711 67.2C25.9044 65.3333 25.0378 63.8 23.9711 62.6C22.9711 61.3333 21.1378 59.4 18.4711 56.8L11.0711 49.4C5.33776 43.8 2.47109 37.6 2.47109 30.8C2.47109 23.4667 4.13776 17.9 7.47109 14.1C10.8711 10.2333 15.8044 8.3 22.2711 8.3C30.0044 8.3 35.5711 10.3667 38.9711 14.5C42.3711 18.5667 44.0711 24.9667 44.0711 33.7H26.5711L26.4711 27.8C26.4711 26.6667 26.1378 25.7667 25.4711 25.1C24.8711 24.4333 24.0044 24.1 22.8711 24.1C21.5378 24.1 20.5378 24.4667 19.8711 25.2C19.2044 25.9333 18.8711 26.9333 18.8711 28.2C18.8711 31 20.4711 33.9 23.6711 36.9L33.6711 46.5C36.0044 48.7667 37.9378 50.9333 39.4711 53C41.0044 55 42.2378 57.4 43.1711 60.2C44.1044 62.9333 44.5711 66.2 44.5711 70C44.5711 78.4667 43.0044 84.9 39.8711 89.3C36.8044 93.6333 31.7044 95.8 24.5711 95.8ZM47.9648 95L56.2648 9.1H85.3648L93.5648 95H77.2648L76.0648 81.1H65.6648L64.6648 95H47.9648ZM66.9648 67.4H74.7648L70.9648 23.7H70.1648L66.9648 67.4ZM109.2 95V66.7L95.5 9.1H112.5L117.3 38.2L122.1 9.1H139.1L125.4 66.7V95H109.2Z" fill="white"/>
<line x1="153" y1="92" x2="570" y2="92" stroke="white" stroke-width="4"/>
</svg>
