<svg width="24" height="24" viewBox="0 0 24 24" fill="none" xmlns="http://www.w3.org/2000/svg">
<path d="M12 16.5C14.4853 16.5 16.5 14.4853 16.5 12C16.5 9.51472 14.4853 7.5 12 7.5C9.51472 7.5 7.5 9.51472 7.5 12C7.5 14.4853 9.51472 16.5 12 16.5Z" stroke="black" stroke-width="1.5" stroke-linecap="round" stroke-linejoin="round"/>
<path d="M17.2181 6.10189C17.4583 6.31455 17.6854 6.5416 17.898 6.78178L20.4595 7.14755C20.8749 7.87087 21.1951 8.64479 21.4123 9.45013L19.8604 11.5194C19.8604 11.5194 19.8799 12.1606 19.8604 12.4807L21.413 14.5506C21.1953 15.3558 20.8745 16.1295 20.4586 16.8525L17.898 17.2183C17.898 17.2183 17.4584 17.6855 17.2183 17.8981L16.8525 20.4596C16.1292 20.875 15.3552 21.1953 14.5499 21.4125L12.4808 19.8605C12.1606 19.88 11.8395 19.88 11.5193 19.8605L9.44944 21.4131C8.64425 21.1954 7.87054 20.8746 7.1475 20.4587L6.7818 17.8983C6.54162 17.6856 6.31457 17.4586 6.10191 17.2184L3.54044 16.8526C3.12505 16.1293 2.80479 15.3554 2.58759 14.55L4.13957 12.4808C4.13957 12.4808 4.12005 11.8396 4.13951 11.5194L2.58691 9.44956C2.80466 8.64437 3.12545 7.87066 3.54132 7.14762L6.10177 6.78192C6.31443 6.54174 6.54148 6.31469 6.78166 6.10203L7.14743 3.54056C7.87075 3.12517 8.64467 2.80491 9.45001 2.58771L11.5191 4.13964C11.8393 4.12017 12.1604 4.12017 12.4806 4.13963L14.5505 2.58704C15.3557 2.80478 16.1294 3.12557 16.8524 3.54144L17.2181 6.10189Z" stroke="black" stroke-width="1.5" stroke-linecap="round" stroke-linejoin="round"/>
</svg>
