<svg width="32" height="32" viewBox="0 0 32 32" fill="none" xmlns="http://www.w3.org/2000/svg">
<rect width="32" height="32" rx="12" fill="#172327"/>
<path d="M25.3755 22.7499H24.6255V7.74988C24.6255 7.55097 24.5465 7.3602 24.4058 7.21955C24.2652 7.0789 24.0744 6.99988 23.8755 6.99988H18.6255C18.4266 6.99988 18.2358 7.0789 18.0952 7.21955C17.9545 7.3602 17.8755 7.55097 17.8755 7.74988V11.4999H13.3755C13.1766 11.4999 12.9858 11.5789 12.8452 11.7196C12.7045 11.8602 12.6255 12.051 12.6255 12.2499V15.9999H8.12549C7.92658 15.9999 7.73581 16.0789 7.59516 16.2196C7.45451 16.3602 7.37549 16.551 7.37549 16.7499V22.7499H6.62549C6.42658 22.7499 6.23581 22.8289 6.09516 22.9695C5.95451 23.1102 5.87549 23.301 5.87549 23.4999C5.87549 23.6988 5.95451 23.8896 6.09516 24.0302C6.23581 24.1709 6.42658 24.2499 6.62549 24.2499H25.3755C25.5744 24.2499 25.7652 24.1709 25.9058 24.0302C26.0465 23.8896 26.1255 23.6988 26.1255 23.4999C26.1255 23.301 26.0465 23.1102 25.9058 22.9695C25.7652 22.8289 25.5744 22.7499 25.3755 22.7499ZM14.1255 12.9999H17.8755V22.7499H14.1255V12.9999ZM8.87549 17.4999H12.6255V22.7499H8.87549V17.4999Z" fill="#F4EEEB"/>
</svg>
