<svg width="48" height="48" viewBox="0 0 48 48" fill="none" xmlns="http://www.w3.org/2000/svg">
<rect width="48" height="48" rx="8" fill="#F6C042"/>
<path d="M24 32.5C28.6944 32.5 32.5 28.6944 32.5 24C32.5 19.3056 28.6944 15.5 24 15.5C19.3056 15.5 15.5 19.3056 15.5 24C15.5 28.6944 19.3056 32.5 24 32.5Z" fill="white"/>
<path d="M24 13.5C24.2652 13.5 24.5196 13.3946 24.7071 13.2071C24.8946 13.0196 25 12.7652 25 12.5V10C25 9.73478 24.8946 9.48043 24.7071 9.29289C24.5196 9.10536 24.2652 9 24 9C23.7348 9 23.4804 9.10536 23.2929 9.29289C23.1054 9.48043 23 9.73478 23 10V12.5C23 12.7652 23.1054 13.0196 23.2929 13.2071C23.4804 13.3946 23.7348 13.5 24 13.5Z" fill="white"/>
<path d="M15.1612 16.5759C15.254 16.6691 15.3642 16.7431 15.4856 16.7936C15.6071 16.8442 15.7373 16.8703 15.8688 16.8704C16.0003 16.8706 16.1306 16.8448 16.2521 16.7945C16.3736 16.7443 16.4841 16.6705 16.5771 16.5775C16.6701 16.4846 16.7438 16.3741 16.7941 16.2526C16.8443 16.131 16.8701 16.0008 16.8699 15.8693C16.8698 15.7377 16.8437 15.6075 16.7931 15.4861C16.7426 15.3647 16.6686 15.2545 16.5754 15.1617L14.8076 13.3939C14.7148 13.301 14.6045 13.2272 14.4832 13.1769C14.3618 13.1266 14.2318 13.1006 14.1004 13.1006C13.969 13.1005 13.8389 13.1264 13.7175 13.1766C13.5962 13.2269 13.4859 13.3006 13.393 13.3935C13.3001 13.4864 13.2264 13.5967 13.1762 13.718C13.1259 13.8394 13.1001 13.9695 13.1001 14.1009C13.1001 14.2323 13.1261 14.3623 13.1764 14.4837C13.2267 14.605 13.3005 14.7153 13.3934 14.8081L15.1612 16.5759Z" fill="white"/>
<path d="M13.5 24C13.5 23.7348 13.3946 23.4804 13.2071 23.2929C13.0196 23.1054 12.7652 23 12.5 23H10C9.73478 23 9.48043 23.1054 9.29289 23.2929C9.10536 23.4804 9 23.7348 9 24C9 24.2652 9.10536 24.5196 9.29289 24.7071C9.48043 24.8946 9.73478 25 10 25H12.5C12.7652 25 13.0196 24.8946 13.2071 24.7071C13.3946 24.5196 13.5 24.2652 13.5 24V24Z" fill="white"/>
<path d="M15.1612 31.4245L13.3934 33.1922C13.3005 33.2851 13.2267 33.3953 13.1764 33.5166C13.1261 33.638 13.1001 33.7681 13.1001 33.8994C13.1001 34.0308 13.1259 34.1609 13.1762 34.2823C13.2264 34.4037 13.3001 34.514 13.393 34.6068C13.4859 34.6997 13.5962 34.7734 13.7175 34.8237C13.8389 34.8739 13.969 34.8998 14.1004 34.8997C14.2318 34.8997 14.3618 34.8738 14.4832 34.8234C14.6045 34.7731 14.7148 34.6994 14.8076 34.6064L16.5754 32.8386C16.6686 32.7459 16.7426 32.6356 16.7931 32.5142C16.8437 32.3928 16.8698 32.2626 16.8699 32.1311C16.8701 31.9995 16.8443 31.8693 16.7941 31.7477C16.7438 31.6262 16.6701 31.5158 16.5771 31.4228C16.4841 31.3298 16.3736 31.256 16.2521 31.2058C16.1306 31.1555 16.0003 31.1297 15.8688 31.1299C15.7373 31.13 15.6071 31.1561 15.4856 31.2067C15.3642 31.2572 15.254 31.3312 15.1612 31.4245V31.4245Z" fill="white"/>
<path d="M24 34.5C23.7348 34.5 23.4804 34.6054 23.2929 34.7929C23.1054 34.9804 23 35.2348 23 35.5V38C23 38.2652 23.1054 38.5196 23.2929 38.7071C23.4804 38.8946 23.7348 39 24 39C24.2652 39 24.5196 38.8946 24.7071 38.7071C24.8946 38.5196 25 38.2652 25 38V35.5C25 35.2348 24.8946 34.9804 24.7071 34.7929C24.5196 34.6054 24.2652 34.5 24 34.5V34.5Z" fill="white"/>
<path d="M32.8386 31.4245C32.7459 31.3312 32.6356 31.2572 32.5142 31.2067C32.3928 31.1561 32.2626 31.13 32.1311 31.1299C31.9995 31.1297 31.8693 31.1555 31.7477 31.2058C31.6262 31.256 31.5158 31.3298 31.4228 31.4228C31.3298 31.5158 31.256 31.6262 31.2058 31.7477C31.1555 31.8693 31.1297 31.9995 31.1299 32.1311C31.13 32.2626 31.1561 32.3928 31.2067 32.5142C31.2572 32.6356 31.3312 32.7459 31.4245 32.8386L33.1922 34.6064C33.2851 34.6994 33.3953 34.7731 33.5166 34.8234C33.638 34.8738 33.7681 34.8997 33.8994 34.8997C34.0308 34.8998 34.1609 34.8739 34.2823 34.8237C34.4037 34.7734 34.514 34.6997 34.6069 34.6068C34.6997 34.514 34.7734 34.4037 34.8237 34.2823C34.8739 34.1609 34.8998 34.0308 34.8997 33.8994C34.8997 33.7681 34.8738 33.638 34.8234 33.5166C34.7731 33.3953 34.6994 33.2851 34.6064 33.1922L32.8386 31.4245Z" fill="white"/>
<path d="M38 23H35.5C35.2348 23 34.9804 23.1054 34.7929 23.2929C34.6054 23.4804 34.5 23.7348 34.5 24C34.5 24.2652 34.6054 24.5196 34.7929 24.7071C34.9804 24.8946 35.2348 25 35.5 25H38C38.2652 25 38.5196 24.8946 38.7071 24.7071C38.8946 24.5196 39 24.2652 39 24C39 23.7348 38.8946 23.4804 38.7071 23.2929C38.5196 23.1054 38.2652 23 38 23Z" fill="white"/>
<path d="M32.1318 16.8688C32.2632 16.8689 32.3933 16.8431 32.5146 16.7929C32.636 16.7426 32.7462 16.6689 32.8389 16.5759L34.6067 14.8081C34.6997 14.7153 34.7734 14.605 34.8237 14.4837C34.8741 14.3623 34.9 14.2323 34.9 14.1009C34.9001 13.9695 34.8742 13.8394 34.824 13.718C34.7737 13.5967 34.7 13.4864 34.6071 13.3935C34.5143 13.3006 34.404 13.2269 34.2826 13.1766C34.1612 13.1264 34.0311 13.1005 33.8997 13.1006C33.7684 13.1006 33.6383 13.1266 33.5169 13.1769C33.3956 13.2272 33.2854 13.301 33.1925 13.3939L31.4248 15.1617C31.2849 15.3015 31.1896 15.4797 31.1511 15.6737C31.1125 15.8677 31.1323 16.0687 31.208 16.2515C31.2836 16.4342 31.4118 16.5904 31.5763 16.7003C31.7407 16.8101 31.9341 16.8688 32.1319 16.8688H32.1318Z" fill="white"/>
</svg>
