<svg width="40" height="40" viewBox="0 0 40 40" fill="none" xmlns="http://www.w3.org/2000/svg">
<path d="M20.0041 29.3553C20.0006 29.3529 19.9994 29.3529 19.9959 29.3553C19.5964 29.6221 19.1802 29.8631 18.75 30.0768V36.2499C18.75 36.5814 18.8817 36.8993 19.1161 37.1338C19.3505 37.3682 19.6685 37.4999 20 37.4999C20.3315 37.4999 20.6495 37.3682 20.8839 37.1338C21.1183 36.8993 21.25 36.5814 21.25 36.2499V30.0767C20.8199 29.863 20.4038 29.622 20.0043 29.3553H20.0041Z" fill="#095941"/>
<path d="M30.9533 9.78058C30.0475 7.62327 28.5249 5.78147 26.5764 4.48624C24.6279 3.19101 22.3403 2.50003 20.0006 2.5C17.6608 2.49997 15.3732 3.19088 13.4247 4.48605C11.4761 5.78123 9.95344 7.62299 9.04766 9.78027C7.10128 10.6813 5.45179 12.118 4.29223 13.9223C3.13268 15.7267 2.51103 17.8239 2.50004 19.9687C2.48356 26.0339 7.4001 31.0931 13.4601 31.2463C15.2926 31.2955 17.1091 30.8939 18.75 30.0769V24.5226L11.941 21.118C11.7941 21.0447 11.663 20.9431 11.5553 20.8191C11.4476 20.6951 11.3655 20.5511 11.3135 20.3953C11.2615 20.2395 11.2407 20.075 11.2523 19.9112C11.2639 19.7474 11.3077 19.5874 11.3811 19.4405C11.4546 19.2936 11.5562 19.1627 11.6803 19.0551C11.8044 18.9475 11.9485 18.8654 12.1043 18.8136C12.2602 18.7617 12.4247 18.741 12.5885 18.7528C12.7523 18.7645 12.9122 18.8084 13.059 18.882L18.75 21.7275V13.75C18.75 13.4185 18.8817 13.1005 19.1162 12.8661C19.3506 12.6317 19.6685 12.5 20 12.5C20.3316 12.5 20.6495 12.6317 20.8839 12.8661C21.1183 13.1005 21.25 13.4185 21.25 13.75V17.9775L26.941 15.132C27.0879 15.0584 27.2478 15.0145 27.4116 15.0028C27.5754 14.991 27.7399 15.0117 27.8957 15.0636C28.0516 15.1154 28.1957 15.1975 28.3198 15.3051C28.4438 15.4127 28.5455 15.5436 28.619 15.6905C28.6924 15.8374 28.7362 15.9974 28.7478 16.1612C28.7594 16.325 28.7386 16.4895 28.6866 16.6453C28.6346 16.8011 28.5524 16.9451 28.4448 17.0691C28.3371 17.1931 28.206 17.2947 28.059 17.368L21.25 20.7726V30.0768C22.8029 30.8506 24.5146 31.2523 26.2496 31.25C26.3463 31.25 26.4432 31.2488 26.5403 31.2463C32.6003 31.093 37.5168 26.0336 37.5 19.9681C37.4889 17.8236 36.8673 15.7266 35.708 13.9224C34.5486 12.1183 32.8993 10.6816 30.9533 9.78058Z" fill="#095941"/>
</svg>
