<svg width="24" height="24" viewBox="0 0 24 24" fill="none" xmlns="http://www.w3.org/2000/svg">
<path d="M12.0025 17.6134C12.0004 17.6119 11.9996 17.6119 11.9975 17.6134C11.7578 17.7735 11.5081 17.918 11.25 18.0463V21.7501C11.25 21.949 11.329 22.1398 11.4697 22.2805C11.6103 22.4211 11.8011 22.5001 12 22.5001C12.1989 22.5001 12.3897 22.4211 12.5303 22.2805C12.671 22.1398 12.75 21.949 12.75 21.7501V18.0462C12.4919 17.918 12.2423 17.7734 12.0026 17.6134H12.0025Z" fill="white"/>
<path d="M18.572 5.86835C18.0285 4.57396 17.115 3.46888 15.9458 2.69174C14.7767 1.91461 13.4042 1.50002 12.0003 1.5C10.5965 1.49998 9.22393 1.91453 8.0548 2.69163C6.88567 3.46874 5.97207 4.57379 5.4286 5.86816C4.26077 6.40876 3.27107 7.2708 2.57534 8.3534C1.87961 9.436 1.50662 10.6944 1.50002 11.9812C1.49014 15.6204 4.44006 18.6559 8.07607 18.7478C9.17555 18.7773 10.2654 18.5363 11.25 18.0461V14.7135L7.16462 12.6708C7.07645 12.6268 6.99781 12.5659 6.9332 12.4915C6.86859 12.4171 6.81927 12.3307 6.78807 12.2372C6.75687 12.1437 6.7444 12.045 6.75136 11.9467C6.75833 11.8484 6.7846 11.7525 6.82867 11.6643C6.87274 11.5762 6.93374 11.4976 7.0082 11.433C7.08265 11.3685 7.1691 11.3193 7.2626 11.2881C7.3561 11.257 7.45481 11.2446 7.5531 11.2517C7.65139 11.2587 7.74733 11.2851 7.83543 11.3292L11.25 13.0365V8.25C11.25 8.05109 11.329 7.86033 11.4697 7.71967C11.6103 7.57902 11.8011 7.5 12 7.5C12.1989 7.5 12.3897 7.57902 12.5304 7.71967C12.671 7.86033 12.75 8.05109 12.75 8.25V10.7865L16.1646 9.0792C16.2527 9.03505 16.3487 9.00871 16.4469 9.00166C16.5452 8.99462 16.644 9.00701 16.7374 9.03813C16.8309 9.06925 16.9174 9.1185 16.9919 9.18305C17.0663 9.2476 17.1273 9.32619 17.1714 9.41432C17.2155 9.50246 17.2417 9.59842 17.2487 9.69671C17.2557 9.79501 17.2432 9.89371 17.212 9.98719C17.1808 10.0807 17.1315 10.1671 17.0669 10.2415C17.0022 10.3159 16.9236 10.3768 16.8354 10.4208L12.75 12.4635V18.0461C13.6817 18.5104 14.7088 18.7514 15.7498 18.75C15.8078 18.75 15.8659 18.7493 15.9242 18.7478C19.5602 18.6558 22.5101 15.6202 22.5 11.9809C22.4934 10.6942 22.1204 9.43594 21.4248 8.35345C20.7291 7.27097 19.7396 6.40898 18.572 5.86835Z" fill="white"/>
</svg>
