<svg width="48" height="48" viewBox="0 0 48 48" fill="none" xmlns="http://www.w3.org/2000/svg">
<rect width="48" height="48" rx="8" fill="#CED3F9"/>
<path d="M34.9995 14H30V13C29.9991 12.2046 29.6827 11.4421 29.1203 10.8797C28.5579 10.3173 27.7954 10.0009 27 10H21C20.2046 10.0009 19.4421 10.3173 18.8797 10.8797C18.3173 11.4421 18.0009 12.2046 18 13V14H12.9995C12.7343 14 12.4799 14.1054 12.2924 14.2929C12.1049 14.4804 11.9995 14.7348 11.9995 15C11.9995 15.2652 12.1049 15.5196 12.2924 15.7071C12.4799 15.8946 12.7343 16 12.9995 16H13.9995V34C14.0001 34.5302 14.211 35.0386 14.586 35.4135C14.9609 35.7885 15.4693 35.9994 15.9995 36H31.9995C32.5298 35.9994 33.0381 35.7885 33.4131 35.4135C33.788 35.0386 33.9989 34.5302 33.9995 34V16H34.9995C35.2647 16 35.5191 15.8946 35.7066 15.7071C35.8942 15.5196 35.9995 15.2652 35.9995 15C35.9995 14.7348 35.8942 14.4804 35.7066 14.2929C35.5191 14.1054 35.2647 14 34.9995 14ZM22 29C22 29.2652 21.8946 29.5196 21.7071 29.7071C21.5196 29.8946 21.2652 30 21 30C20.7348 30 20.4804 29.8946 20.2929 29.7071C20.1054 29.5196 20 29.2652 20 29V21C20 20.7348 20.1054 20.4804 20.2929 20.2929C20.4804 20.1054 20.7348 20 21 20C21.2652 20 21.5196 20.1054 21.7071 20.2929C21.8946 20.4804 22 20.7348 22 21V29ZM28 29C28 29.2652 27.8946 29.5196 27.7071 29.7071C27.5196 29.8946 27.2652 30 27 30C26.7348 30 26.4804 29.8946 26.2929 29.7071C26.1054 29.5196 26 29.2652 26 29V21C26 20.7348 26.1054 20.4804 26.2929 20.2929C26.4804 20.1054 26.7348 20 27 20C27.2652 20 27.5196 20.1054 27.7071 20.2929C27.8946 20.4804 28 20.7348 28 21V29ZM28 14H20V13C20.0003 12.7349 20.1058 12.4807 20.2932 12.2932C20.4807 12.1058 20.7349 12.0003 21 12H27C27.2651 12.0003 27.5193 12.1058 27.7068 12.2932C27.8942 12.4807 27.9997 12.7349 28 13V14Z" fill="white"/>
</svg>
