<svg width="28" height="28" viewBox="0 0 28 28" fill="none" xmlns="http://www.w3.org/2000/svg">
<path d="M12.4062 5.14062C11.9375 5.60938 11.9844 6.3125 12.4062 6.78125L18.0781 12.125H4.625C3.96875 12.125 3.5 12.6406 3.5 13.25V14.75C3.5 15.4062 3.96875 15.875 4.625 15.875H18.0781L12.4062 21.2656C11.9844 21.7344 11.9844 22.4375 12.4062 22.9062L13.4375 23.9375C13.9062 24.3594 14.6094 24.3594 15.0312 23.9375L24.1719 14.7969C24.5938 14.375 24.5938 13.6719 24.1719 13.2031L15.0312 4.10938C14.6094 3.6875 13.9062 3.6875 13.4375 4.10938L12.4062 5.14062Z" fill="white"/>
</svg>
